ISO-10303-21;
HEADER;
FILE_DESCRIPTION(('FreeCAD Model'),'2;1');
FILE_NAME('Open CASCADE Shape Model','2026-09-10T19:12:20',(''),(''),
  'Open CASCADE STEP processor 7.8','FreeCAD','Unknown');
FILE_SCHEMA(('AUTOMOTIVE_DESIGN { 1 0 10303 214 1 1 1 1 }'));
ENDSEC;
DATA;
#1 = APPLICATION_PROTOCOL_DEFINITION('international standard',
  'automotive_design',2000,#2);
#2 = APPLICATION_CONTEXT(
  'core data for automotive mechanical design processes');
#3 = SHAPE_DEFINITION_REPRESENTATION(#4,#10);
#4 = PRODUCT_DEFINITION_SHAPE('','',#5);
#5 = PRODUCT_DEFINITION('design','',#6,#9);
#6 = PRODUCT_DEFINITION_FORMATION('','',#7);
#7 = PRODUCT('Second_wheel','Second_wheel','',(#8));
#8 = PRODUCT_CONTEXT('',#2,'mechanical');
#9 = PRODUCT_DEFINITION_CONTEXT('part definition',#2,'design');
#10 = ADVANCED_BREP_SHAPE_REPRESENTATION('',(#11,#15),#1907);
#11 = AXIS2_PLACEMENT_3D('',#12,#13,#14);
#12 = CARTESIAN_POINT('',(0.,0.,0.));
#13 = DIRECTION('',(0.,0.,1.));
#14 = DIRECTION('',(1.,0.,-0.));
#15 = MANIFOLD_SOLID_BREP('',#16);
#16 = CLOSED_SHELL('',(#17,#390,#421,#663,#687,#711,#728,#752,#776,#793,
    #817,#841,#858,#882,#906,#923,#947,#971,#988,#1012,#1036,#1053,#1077
    ,#1101,#1118,#1142,#1166,#1183,#1207,#1231,#1248,#1272,#1290,#1367,
    #1379,#1391,#1403,#1415,#1427,#1439,#1451,#1463,#1475,#1487,#1512,
    #1543,#1581,#1698,#1722,#1746,#1763,#1780,#1792,#1816,#1839,#1864,
    #1889,#1898));
#17 = ADVANCED_FACE('',(#18),#385,.T.);
#18 = FACE_BOUND('',#19,.F.);
#19 = EDGE_LOOP('',(#20,#30,#39,#47,#54,#55,#64,#72,#81,#89,#98,#106,
    #115,#123,#132,#140,#149,#157,#166,#174,#183,#191,#200,#208,#217,
    #225,#234,#242,#251,#259,#268,#276,#285,#293,#302,#310,#319,#327,
    #336,#344,#353,#361,#370,#378));
#20 = ORIENTED_EDGE('',*,*,#21,.F.);
#21 = EDGE_CURVE('',#22,#24,#26,.T.);
#22 = VERTEX_POINT('',#23);
#23 = CARTESIAN_POINT('',(-9.748846085563,1.,-8.));
#24 = VERTEX_POINT('',#25);
#25 = CARTESIAN_POINT('',(-9.748846085563,1.,4.E-15));
#26 = LINE('',#27,#28);
#27 = CARTESIAN_POINT('',(-9.748846085563,1.,5.97E-15));
#28 = VECTOR('',#29,1.);
#29 = DIRECTION('',(6.1E-16,0.,1.));
#30 = ORIENTED_EDGE('',*,*,#31,.T.);
#31 = EDGE_CURVE('',#22,#32,#34,.T.);
#32 = VERTEX_POINT('',#33);
#33 = CARTESIAN_POINT('',(-9.8,-2.E-15,-8.));
#34 = CIRCLE('',#35,9.8);
#35 = AXIS2_PLACEMENT_3D('',#36,#37,#38);
#36 = CARTESIAN_POINT('',(2.45E-15,0.,-8.));
#37 = DIRECTION('',(6.1E-16,0.,1.));
#38 = DIRECTION('',(-1.,0.,6.1E-16));
#39 = ORIENTED_EDGE('',*,*,#40,.T.);
#40 = EDGE_CURVE('',#32,#41,#43,.T.);
#41 = VERTEX_POINT('',#42);
#42 = CARTESIAN_POINT('',(-9.8,-2.E-15,-30.));
#43 = LINE('',#44,#45);
#44 = CARTESIAN_POINT('',(-9.8,-2.4E-15,0.));
#45 = VECTOR('',#46,1.);
#46 = DIRECTION('',(0.,0.,-1.));
#47 = ORIENTED_EDGE('',*,*,#48,.T.);
#48 = EDGE_CURVE('',#41,#41,#49,.T.);
#49 = CIRCLE('',#50,9.8);
#50 = AXIS2_PLACEMENT_3D('',#51,#52,#53);
#51 = CARTESIAN_POINT('',(1.47E-14,0.,-30.));
#52 = DIRECTION('',(0.,0.,-1.));
#53 = DIRECTION('',(-1.,0.,0.));
#54 = ORIENTED_EDGE('',*,*,#40,.F.);
#55 = ORIENTED_EDGE('',*,*,#56,.T.);
#56 = EDGE_CURVE('',#32,#57,#59,.T.);
#57 = VERTEX_POINT('',#58);
#58 = CARTESIAN_POINT('',(-9.748846085563,-1.,-8.));
#59 = CIRCLE('',#60,9.8);
#60 = AXIS2_PLACEMENT_3D('',#61,#62,#63);
#61 = CARTESIAN_POINT('',(2.45E-15,0.,-8.));
#62 = DIRECTION('',(6.1E-16,0.,1.));
#63 = DIRECTION('',(-1.,0.,6.1E-16));
#64 = ORIENTED_EDGE('',*,*,#65,.T.);
#65 = EDGE_CURVE('',#57,#66,#68,.T.);
#66 = VERTEX_POINT('',#67);
#67 = CARTESIAN_POINT('',(-9.748846085563,-1.,4.E-15));
#68 = LINE('',#69,#70);
#69 = CARTESIAN_POINT('',(-9.748846085563,-1.,5.97E-15));
#70 = VECTOR('',#71,1.);
#71 = DIRECTION('',(6.1E-16,0.,1.));
#72 = ORIENTED_EDGE('',*,*,#73,.F.);
#73 = EDGE_CURVE('',#74,#66,#76,.T.);
#74 = VERTEX_POINT('',#75);
#75 = CARTESIAN_POINT('',(-8.474767411059,-4.921210961588,3.E-15));
#76 = CIRCLE('',#77,9.8);
#77 = AXIS2_PLACEMENT_3D('',#78,#79,#80);
#78 = CARTESIAN_POINT('',(1.47E-14,0.,0.));
#79 = DIRECTION('',(0.,0.,-1.));
#80 = DIRECTION('',(-1.,0.,0.));
#81 = ORIENTED_EDGE('',*,*,#82,.F.);
#82 = EDGE_CURVE('',#83,#74,#85,.T.);
#83 = VERTEX_POINT('',#84);
#84 = CARTESIAN_POINT('',(-8.474767411059,-4.921210961588,-8.));
#85 = LINE('',#86,#87);
#86 = CARTESIAN_POINT('',(-8.474767411059,-4.921210961588,4.9E-15));
#87 = VECTOR('',#88,1.);
#88 = DIRECTION('',(6.1E-16,-0.,1.));
#89 = ORIENTED_EDGE('',*,*,#90,.T.);
#90 = EDGE_CURVE('',#83,#91,#93,.T.);
#91 = VERTEX_POINT('',#92);
#92 = CARTESIAN_POINT('',(-7.299196906474,-6.539244950338,-8.));
#93 = CIRCLE('',#94,9.8);
#94 = AXIS2_PLACEMENT_3D('',#95,#96,#97);
#95 = CARTESIAN_POINT('',(2.45E-15,0.,-8.));
#96 = DIRECTION('',(6.1E-16,0.,1.));
#97 = DIRECTION('',(-1.,0.,6.1E-16));
#98 = ORIENTED_EDGE('',*,*,#99,.T.);
#99 = EDGE_CURVE('',#91,#100,#102,.T.);
#100 = VERTEX_POINT('',#101);
#101 = CARTESIAN_POINT('',(-7.299196906474,-6.539244950338,2.E-15));
#102 = LINE('',#103,#104);
#103 = CARTESIAN_POINT('',(-7.299196906474,-6.539244950338,4.76E-15));
#104 = VECTOR('',#105,1.);
#105 = DIRECTION('',(6.1E-16,-0.,1.));
#106 = ORIENTED_EDGE('',*,*,#107,.F.);
#107 = EDGE_CURVE('',#108,#100,#110,.T.);
#108 = VERTEX_POINT('',#109);
#109 = CARTESIAN_POINT('',(-3.96361563228,-8.962686601658,1.E-15));
#110 = CIRCLE('',#111,9.8);
#111 = AXIS2_PLACEMENT_3D('',#112,#113,#114);
#112 = CARTESIAN_POINT('',(1.47E-14,0.,0.));
#113 = DIRECTION('',(0.,0.,-1.));
#114 = DIRECTION('',(-1.,0.,0.));
#115 = ORIENTED_EDGE('',*,*,#116,.F.);
#116 = EDGE_CURVE('',#117,#108,#119,.T.);
#117 = VERTEX_POINT('',#118);
#118 = CARTESIAN_POINT('',(-3.96361563228,-8.962686601658,-8.));
#119 = LINE('',#120,#121);
#120 = CARTESIAN_POINT('',(-3.96361563228,-8.962686601658,1.96E-15));
#121 = VECTOR('',#122,1.);
#122 = DIRECTION('',(6.1E-16,-0.,1.));
#123 = ORIENTED_EDGE('',*,*,#124,.T.);
#124 = EDGE_CURVE('',#117,#125,#127,.T.);
#125 = VERTEX_POINT('',#126);
#126 = CARTESIAN_POINT('',(-2.06150259969,-9.580720590408,-8.));
#127 = CIRCLE('',#128,9.8);
#128 = AXIS2_PLACEMENT_3D('',#129,#130,#131);
#129 = CARTESIAN_POINT('',(2.45E-15,0.,-8.));
#130 = DIRECTION('',(6.1E-16,0.,1.));
#131 = DIRECTION('',(-1.,0.,6.1E-16));
#132 = ORIENTED_EDGE('',*,*,#133,.T.);
#133 = EDGE_CURVE('',#125,#134,#136,.T.);
#134 = VERTEX_POINT('',#135);
#135 = CARTESIAN_POINT('',(-2.061502599689,-9.580720590408,0.));
#136 = LINE('',#137,#138);
#137 = CARTESIAN_POINT('',(-2.06150259969,-9.580720590408,1.73E-15));
#138 = VECTOR('',#139,1.);
#139 = DIRECTION('',(6.1E-16,-0.,1.));
#140 = ORIENTED_EDGE('',*,*,#141,.F.);
#141 = EDGE_CURVE('',#142,#134,#144,.T.);
#142 = VERTEX_POINT('',#143);
#143 = CARTESIAN_POINT('',(2.061502599689,-9.580720590408,-1.E-15));
#144 = CIRCLE('',#145,9.8);
#145 = AXIS2_PLACEMENT_3D('',#146,#147,#148);
#146 = CARTESIAN_POINT('',(1.47E-14,0.,0.));
#147 = DIRECTION('',(0.,0.,-1.));
#148 = DIRECTION('',(-1.,0.,0.));
#149 = ORIENTED_EDGE('',*,*,#150,.F.);
#150 = EDGE_CURVE('',#151,#142,#153,.T.);
#151 = VERTEX_POINT('',#152);
#152 = CARTESIAN_POINT('',(2.06150259969,-9.580720590408,-8.));
#153 = LINE('',#154,#155);
#154 = CARTESIAN_POINT('',(2.06150259969,-9.580720590408,-1.73E-15));
#155 = VECTOR('',#156,1.);
#156 = DIRECTION('',(6.1E-16,-0.,1.));
#157 = ORIENTED_EDGE('',*,*,#158,.T.);
#158 = EDGE_CURVE('',#151,#159,#161,.T.);
#159 = VERTEX_POINT('',#160);
#160 = CARTESIAN_POINT('',(3.96361563228,-8.962686601658,-8.));
#161 = CIRCLE('',#162,9.8);
#162 = AXIS2_PLACEMENT_3D('',#163,#164,#165);
#163 = CARTESIAN_POINT('',(2.45E-15,0.,-8.));
#164 = DIRECTION('',(6.1E-16,0.,1.));
#165 = DIRECTION('',(-1.,0.,6.1E-16));
#166 = ORIENTED_EDGE('',*,*,#167,.T.);
#167 = EDGE_CURVE('',#159,#168,#170,.T.);
#168 = VERTEX_POINT('',#169);
#169 = CARTESIAN_POINT('',(3.96361563228,-8.962686601658,-2.E-15));
#170 = LINE('',#171,#172);
#171 = CARTESIAN_POINT('',(3.96361563228,-8.962686601658,-1.96E-15));
#172 = VECTOR('',#173,1.);
#173 = DIRECTION('',(6.1E-16,-0.,1.));
#174 = ORIENTED_EDGE('',*,*,#175,.F.);
#175 = EDGE_CURVE('',#176,#168,#178,.T.);
#176 = VERTEX_POINT('',#177);
#177 = CARTESIAN_POINT('',(7.299196906474,-6.539244950338,-3.E-15));
#178 = CIRCLE('',#179,9.8);
#179 = AXIS2_PLACEMENT_3D('',#180,#181,#182);
#180 = CARTESIAN_POINT('',(1.47E-14,0.,0.));
#181 = DIRECTION('',(0.,0.,-1.));
#182 = DIRECTION('',(-1.,0.,0.));
#183 = ORIENTED_EDGE('',*,*,#184,.F.);
#184 = EDGE_CURVE('',#185,#176,#187,.T.);
#185 = VERTEX_POINT('',#186);
#186 = CARTESIAN_POINT('',(7.299196906474,-6.539244950338,-8.));
#187 = LINE('',#188,#189);
#188 = CARTESIAN_POINT('',(7.299196906474,-6.539244950338,-4.76E-15));
#189 = VECTOR('',#190,1.);
#190 = DIRECTION('',(6.1E-16,-0.,1.));
#191 = ORIENTED_EDGE('',*,*,#192,.T.);
#192 = EDGE_CURVE('',#185,#193,#195,.T.);
#193 = VERTEX_POINT('',#194);
#194 = CARTESIAN_POINT('',(8.474767411059,-4.921210961588,-8.));
#195 = CIRCLE('',#196,9.8);
#196 = AXIS2_PLACEMENT_3D('',#197,#198,#199);
#197 = CARTESIAN_POINT('',(2.45E-15,0.,-8.));
#198 = DIRECTION('',(6.1E-16,0.,1.));
#199 = DIRECTION('',(-1.,0.,6.1E-16));
#200 = ORIENTED_EDGE('',*,*,#201,.T.);
#201 = EDGE_CURVE('',#193,#202,#204,.T.);
#202 = VERTEX_POINT('',#203);
#203 = CARTESIAN_POINT('',(8.474767411059,-4.921210961588,-4.E-15));
#204 = LINE('',#205,#206);
#205 = CARTESIAN_POINT('',(8.474767411059,-4.921210961588,-4.9E-15));
#206 = VECTOR('',#207,1.);
#207 = DIRECTION('',(6.1E-16,-0.,1.));
#208 = ORIENTED_EDGE('',*,*,#209,.F.);
#209 = EDGE_CURVE('',#210,#202,#212,.T.);
#210 = VERTEX_POINT('',#211);
#211 = CARTESIAN_POINT('',(9.748846085563,-1.,-4.E-15));
#212 = CIRCLE('',#213,9.8);
#213 = AXIS2_PLACEMENT_3D('',#214,#215,#216);
#214 = CARTESIAN_POINT('',(1.47E-14,0.,0.));
#215 = DIRECTION('',(0.,0.,-1.));
#216 = DIRECTION('',(-1.,0.,0.));
#217 = ORIENTED_EDGE('',*,*,#218,.F.);
#218 = EDGE_CURVE('',#219,#210,#221,.T.);
#219 = VERTEX_POINT('',#220);
#220 = CARTESIAN_POINT('',(9.748846085563,-1.,-8.));
#221 = LINE('',#222,#223);
#222 = CARTESIAN_POINT('',(9.748846085563,-1.,-5.97E-15));
#223 = VECTOR('',#224,1.);
#224 = DIRECTION('',(6.1E-16,-0.,1.));
#225 = ORIENTED_EDGE('',*,*,#226,.T.);
#226 = EDGE_CURVE('',#219,#227,#229,.T.);
#227 = VERTEX_POINT('',#228);
#228 = CARTESIAN_POINT('',(9.748846085563,1.,-8.));
#229 = CIRCLE('',#230,9.8);
#230 = AXIS2_PLACEMENT_3D('',#231,#232,#233);
#231 = CARTESIAN_POINT('',(2.45E-15,0.,-8.));
#232 = DIRECTION('',(6.1E-16,0.,1.));
#233 = DIRECTION('',(-1.,0.,6.1E-16));
#234 = ORIENTED_EDGE('',*,*,#235,.T.);
#235 = EDGE_CURVE('',#227,#236,#238,.T.);
#236 = VERTEX_POINT('',#237);
#237 = CARTESIAN_POINT('',(9.748846085563,1.,-4.E-15));
#238 = LINE('',#239,#240);
#239 = CARTESIAN_POINT('',(9.748846085563,1.,-5.97E-15));
#240 = VECTOR('',#241,1.);
#241 = DIRECTION('',(6.1E-16,-0.,1.));
#242 = ORIENTED_EDGE('',*,*,#243,.F.);
#243 = EDGE_CURVE('',#244,#236,#246,.T.);
#244 = VERTEX_POINT('',#245);
#245 = CARTESIAN_POINT('',(8.474767411059,4.921210961588,-4.E-15));
#246 = CIRCLE('',#247,9.8);
#247 = AXIS2_PLACEMENT_3D('',#248,#249,#250);
#248 = CARTESIAN_POINT('',(1.47E-14,0.,0.));
#249 = DIRECTION('',(0.,0.,-1.));
#250 = DIRECTION('',(-1.,0.,0.));
#251 = ORIENTED_EDGE('',*,*,#252,.F.);
#252 = EDGE_CURVE('',#253,#244,#255,.T.);
#253 = VERTEX_POINT('',#254);
#254 = CARTESIAN_POINT('',(8.474767411059,4.921210961588,-8.));
#255 = LINE('',#256,#257);
#256 = CARTESIAN_POINT('',(8.474767411059,4.921210961588,-4.9E-15));
#257 = VECTOR('',#258,1.);
#258 = DIRECTION('',(6.1E-16,-0.,1.));
#259 = ORIENTED_EDGE('',*,*,#260,.T.);
#260 = EDGE_CURVE('',#253,#261,#263,.T.);
#261 = VERTEX_POINT('',#262);
#262 = CARTESIAN_POINT('',(7.299196906474,6.539244950338,-8.));
#263 = CIRCLE('',#264,9.8);
#264 = AXIS2_PLACEMENT_3D('',#265,#266,#267);
#265 = CARTESIAN_POINT('',(2.45E-15,0.,-8.));
#266 = DIRECTION('',(6.1E-16,0.,1.));
#267 = DIRECTION('',(-1.,0.,6.1E-16));
#268 = ORIENTED_EDGE('',*,*,#269,.T.);
#269 = EDGE_CURVE('',#261,#270,#272,.T.);
#270 = VERTEX_POINT('',#271);
#271 = CARTESIAN_POINT('',(7.299196906474,6.539244950338,-3.E-15));
#272 = LINE('',#273,#274);
#273 = CARTESIAN_POINT('',(7.299196906474,6.539244950338,-4.76E-15));
#274 = VECTOR('',#275,1.);
#275 = DIRECTION('',(6.1E-16,-0.,1.));
#276 = ORIENTED_EDGE('',*,*,#277,.F.);
#277 = EDGE_CURVE('',#278,#270,#280,.T.);
#278 = VERTEX_POINT('',#279);
#279 = CARTESIAN_POINT('',(3.96361563228,8.962686601658,-2.E-15));
#280 = CIRCLE('',#281,9.8);
#281 = AXIS2_PLACEMENT_3D('',#282,#283,#284);
#282 = CARTESIAN_POINT('',(1.47E-14,0.,0.));
#283 = DIRECTION('',(0.,0.,-1.));
#284 = DIRECTION('',(-1.,0.,0.));
#285 = ORIENTED_EDGE('',*,*,#286,.F.);
#286 = EDGE_CURVE('',#287,#278,#289,.T.);
#287 = VERTEX_POINT('',#288);
#288 = CARTESIAN_POINT('',(3.96361563228,8.962686601658,-8.));
#289 = LINE('',#290,#291);
#290 = CARTESIAN_POINT('',(3.96361563228,8.962686601658,-1.96E-15));
#291 = VECTOR('',#292,1.);
#292 = DIRECTION('',(6.1E-16,-0.,1.));
#293 = ORIENTED_EDGE('',*,*,#294,.T.);
#294 = EDGE_CURVE('',#287,#295,#297,.T.);
#295 = VERTEX_POINT('',#296);
#296 = CARTESIAN_POINT('',(2.06150259969,9.580720590408,-8.));
#297 = CIRCLE('',#298,9.8);
#298 = AXIS2_PLACEMENT_3D('',#299,#300,#301);
#299 = CARTESIAN_POINT('',(2.45E-15,0.,-8.));
#300 = DIRECTION('',(6.1E-16,0.,1.));
#301 = DIRECTION('',(-1.,0.,6.1E-16));
#302 = ORIENTED_EDGE('',*,*,#303,.T.);
#303 = EDGE_CURVE('',#295,#304,#306,.T.);
#304 = VERTEX_POINT('',#305);
#305 = CARTESIAN_POINT('',(2.061502599689,9.580720590408,-1.E-15));
#306 = LINE('',#307,#308);
#307 = CARTESIAN_POINT('',(2.06150259969,9.580720590408,-1.73E-15));
#308 = VECTOR('',#309,1.);
#309 = DIRECTION('',(6.1E-16,-0.,1.));
#310 = ORIENTED_EDGE('',*,*,#311,.F.);
#311 = EDGE_CURVE('',#312,#304,#314,.T.);
#312 = VERTEX_POINT('',#313);
#313 = CARTESIAN_POINT('',(-2.061502599689,9.580720590408,0.));
#314 = CIRCLE('',#315,9.8);
#315 = AXIS2_PLACEMENT_3D('',#316,#317,#318);
#316 = CARTESIAN_POINT('',(1.47E-14,0.,0.));
#317 = DIRECTION('',(0.,0.,-1.));
#318 = DIRECTION('',(-1.,0.,0.));
#319 = ORIENTED_EDGE('',*,*,#320,.F.);
#320 = EDGE_CURVE('',#321,#312,#323,.T.);
#321 = VERTEX_POINT('',#322);
#322 = CARTESIAN_POINT('',(-2.06150259969,9.580720590408,-8.));
#323 = LINE('',#324,#325);
#324 = CARTESIAN_POINT('',(-2.06150259969,9.580720590408,1.73E-15));
#325 = VECTOR('',#326,1.);
#326 = DIRECTION('',(6.1E-16,-0.,1.));
#327 = ORIENTED_EDGE('',*,*,#328,.T.);
#328 = EDGE_CURVE('',#321,#329,#331,.T.);
#329 = VERTEX_POINT('',#330);
#330 = CARTESIAN_POINT('',(-3.96361563228,8.962686601658,-8.));
#331 = CIRCLE('',#332,9.8);
#332 = AXIS2_PLACEMENT_3D('',#333,#334,#335);
#333 = CARTESIAN_POINT('',(2.45E-15,0.,-8.));
#334 = DIRECTION('',(6.1E-16,0.,1.));
#335 = DIRECTION('',(-1.,0.,6.1E-16));
#336 = ORIENTED_EDGE('',*,*,#337,.T.);
#337 = EDGE_CURVE('',#329,#338,#340,.T.);
#338 = VERTEX_POINT('',#339);
#339 = CARTESIAN_POINT('',(-3.96361563228,8.962686601658,1.E-15));
#340 = LINE('',#341,#342);
#341 = CARTESIAN_POINT('',(-3.96361563228,8.962686601658,1.96E-15));
#342 = VECTOR('',#343,1.);
#343 = DIRECTION('',(6.1E-16,-0.,1.));
#344 = ORIENTED_EDGE('',*,*,#345,.F.);
#345 = EDGE_CURVE('',#346,#338,#348,.T.);
#346 = VERTEX_POINT('',#347);
#347 = CARTESIAN_POINT('',(-7.299196906474,6.539244950338,2.E-15));
#348 = CIRCLE('',#349,9.8);
#349 = AXIS2_PLACEMENT_3D('',#350,#351,#352);
#350 = CARTESIAN_POINT('',(1.47E-14,0.,0.));
#351 = DIRECTION('',(0.,0.,-1.));
#352 = DIRECTION('',(-1.,0.,0.));
#353 = ORIENTED_EDGE('',*,*,#354,.F.);
#354 = EDGE_CURVE('',#355,#346,#357,.T.);
#355 = VERTEX_POINT('',#356);
#356 = CARTESIAN_POINT('',(-7.299196906474,6.539244950338,-8.));
#357 = LINE('',#358,#359);
#358 = CARTESIAN_POINT('',(-7.299196906474,6.539244950338,4.76E-15));
#359 = VECTOR('',#360,1.);
#360 = DIRECTION('',(6.1E-16,-0.,1.));
#361 = ORIENTED_EDGE('',*,*,#362,.T.);
#362 = EDGE_CURVE('',#355,#363,#365,.T.);
#363 = VERTEX_POINT('',#364);
#364 = CARTESIAN_POINT('',(-8.474767411059,4.921210961588,-8.));
#365 = CIRCLE('',#366,9.8);
#366 = AXIS2_PLACEMENT_3D('',#367,#368,#369);
#367 = CARTESIAN_POINT('',(2.45E-15,0.,-8.));
#368 = DIRECTION('',(6.1E-16,0.,1.));
#369 = DIRECTION('',(-1.,0.,6.1E-16));
#370 = ORIENTED_EDGE('',*,*,#371,.T.);
#371 = EDGE_CURVE('',#363,#372,#374,.T.);
#372 = VERTEX_POINT('',#373);
#373 = CARTESIAN_POINT('',(-8.474767411059,4.921210961588,3.E-15));
#374 = LINE('',#375,#376);
#375 = CARTESIAN_POINT('',(-8.474767411059,4.921210961588,4.9E-15));
#376 = VECTOR('',#377,1.);
#377 = DIRECTION('',(6.1E-16,-0.,1.));
#378 = ORIENTED_EDGE('',*,*,#379,.F.);
#379 = EDGE_CURVE('',#24,#372,#380,.T.);
#380 = CIRCLE('',#381,9.8);
#381 = AXIS2_PLACEMENT_3D('',#382,#383,#384);
#382 = CARTESIAN_POINT('',(1.47E-14,0.,0.));
#383 = DIRECTION('',(0.,0.,-1.));
#384 = DIRECTION('',(-1.,0.,0.));
#385 = CYLINDRICAL_SURFACE('',#386,9.8);
#386 = AXIS2_PLACEMENT_3D('',#387,#388,#389);
#387 = CARTESIAN_POINT('',(1.47E-14,0.,0.));
#388 = DIRECTION('',(0.,0.,1.));
#389 = DIRECTION('',(-1.,0.,0.));
#390 = ADVANCED_FACE('',(#391),#416,.F.);
#391 = FACE_BOUND('',#392,.F.);
#392 = EDGE_LOOP('',(#393,#401,#409,#415));
#393 = ORIENTED_EDGE('',*,*,#394,.F.);
#394 = EDGE_CURVE('',#395,#24,#397,.T.);
#395 = VERTEX_POINT('',#396);
#396 = CARTESIAN_POINT('',(-7.8,1.,1.E-15));
#397 = LINE('',#398,#399);
#398 = CARTESIAN_POINT('',(-7.8,1.,0.));
#399 = VECTOR('',#400,1.);
#400 = DIRECTION('',(-1.,0.,0.));
#401 = ORIENTED_EDGE('',*,*,#402,.T.);
#402 = EDGE_CURVE('',#395,#403,#405,.T.);
#403 = VERTEX_POINT('',#404);
#404 = CARTESIAN_POINT('',(-7.8,1.,-8.));
#405 = LINE('',#406,#407);
#406 = CARTESIAN_POINT('',(-7.8,1.,9.6E-16));
#407 = VECTOR('',#408,1.);
#408 = DIRECTION('',(-1.2E-16,0.,-1.));
#409 = ORIENTED_EDGE('',*,*,#410,.T.);
#410 = EDGE_CURVE('',#403,#22,#411,.T.);
#411 = LINE('',#412,#413);
#412 = CARTESIAN_POINT('',(-7.8,1.,-8.));
#413 = VECTOR('',#414,1.);
#414 = DIRECTION('',(-1.,0.,0.));
#415 = ORIENTED_EDGE('',*,*,#21,.T.);
#416 = PLANE('',#417);
#417 = AXIS2_PLACEMENT_3D('',#418,#419,#420);
#418 = CARTESIAN_POINT('',(-7.8,1.,9.6E-16));
#419 = DIRECTION('',(0.,1.,0.));
#420 = DIRECTION('',(-1.,0.,1.2E-16));
#421 = ADVANCED_FACE('',(#422,#647),#658,.F.);
#422 = FACE_BOUND('',#423,.F.);
#423 = EDGE_LOOP('',(#424,#432,#433,#434,#442,#450,#456,#457,#465,#473,
    #479,#480,#488,#496,#502,#503,#511,#519,#525,#526,#534,#542,#548,
    #549,#557,#565,#571,#572,#580,#588,#594,#595,#603,#611,#617,#618,
    #626,#634,#640,#641));
#424 = ORIENTED_EDGE('',*,*,#425,.T.);
#425 = EDGE_CURVE('',#426,#395,#428,.T.);
#426 = VERTEX_POINT('',#427);
#427 = CARTESIAN_POINT('',(-7.8,-1.,1.E-15));
#428 = LINE('',#429,#430);
#429 = CARTESIAN_POINT('',(-7.8,-1.,0.));
#430 = VECTOR('',#431,1.);
#431 = DIRECTION('',(0.,1.,0.));
#432 = ORIENTED_EDGE('',*,*,#394,.T.);
#433 = ORIENTED_EDGE('',*,*,#379,.T.);
#434 = ORIENTED_EDGE('',*,*,#435,.T.);
#435 = EDGE_CURVE('',#372,#436,#438,.T.);
#436 = VERTEX_POINT('',#437);
#437 = CARTESIAN_POINT('',(-6.898117808417,3.775707973506,0.));
#438 = LINE('',#439,#440);
#439 = CARTESIAN_POINT('',(-10.13418578591,6.126848982676,-8.8E-16));
#440 = VECTOR('',#441,1.);
#441 = DIRECTION('',(0.809016994375,-0.587785252292,8.E-17));
#442 = ORIENTED_EDGE('',*,*,#443,.T.);
#443 = EDGE_CURVE('',#436,#444,#446,.T.);
#444 = VERTEX_POINT('',#445);
#445 = CARTESIAN_POINT('',(-5.722547303832,5.393741962256,0.));
#446 = LINE('',#447,#448);
#447 = CARTESIAN_POINT('',(-6.898117808417,3.775707973506,-5.4E-16));
#448 = VECTOR('',#449,1.);
#449 = DIRECTION('',(0.587785252292,0.809016994375,-1.2E-16));
#450 = ORIENTED_EDGE('',*,*,#451,.T.);
#451 = EDGE_CURVE('',#444,#346,#452,.T.);
#452 = LINE('',#453,#454);
#453 = CARTESIAN_POINT('',(-5.722547303832,5.393741962256,-7.8E-16));
#454 = VECTOR('',#455,1.);
#455 = DIRECTION('',(-0.809016994375,0.587785252292,-8.E-17));
#456 = ORIENTED_EDGE('',*,*,#345,.T.);
#457 = ORIENTED_EDGE('',*,*,#458,.T.);
#458 = EDGE_CURVE('',#338,#459,#461,.T.);
#459 = VERTEX_POINT('',#460);
#460 = CARTESIAN_POINT('',(-3.36138907242,7.109223832727,-1.E-15));
#461 = LINE('',#462,#463);
#462 = CARTESIAN_POINT('',(-4.59745704992,10.913449897908,-2.54E-15));
#463 = VECTOR('',#464,1.);
#464 = DIRECTION('',(0.309016994375,-0.951056516295,2.2E-16));
#465 = ORIENTED_EDGE('',*,*,#466,.T.);
#466 = EDGE_CURVE('',#459,#467,#469,.T.);
#467 = VERTEX_POINT('',#468);
#468 = CARTESIAN_POINT('',(-1.459276039829,7.727257821477,-1.E-15));
#469 = LINE('',#470,#471);
#470 = CARTESIAN_POINT('',(-3.36138907242,7.109223832727,-1.66E-15));
#471 = VECTOR('',#472,1.);
#472 = DIRECTION('',(0.951056516295,0.309016994375,-7.E-17));
#473 = ORIENTED_EDGE('',*,*,#474,.T.);
#474 = EDGE_CURVE('',#467,#312,#475,.T.);
#475 = LINE('',#476,#477);
#476 = CARTESIAN_POINT('',(-1.459276039829,7.727257821477,-1.8E-15));
#477 = VECTOR('',#478,1.);
#478 = DIRECTION('',(-0.309016994375,0.951056516295,-2.2E-16));
#479 = ORIENTED_EDGE('',*,*,#311,.T.);
#480 = ORIENTED_EDGE('',*,*,#481,.T.);
#481 = EDGE_CURVE('',#304,#482,#484,.T.);
#482 = VERTEX_POINT('',#483);
#483 = CARTESIAN_POINT('',(1.459276039829,7.727257821477,-1.E-15));
#484 = LINE('',#485,#486);
#485 = CARTESIAN_POINT('',(2.695344017329,11.531483886658,-2.69E-15));
#486 = VECTOR('',#487,1.);
#487 = DIRECTION('',(-0.309016994375,-0.951056516295,2.2E-16));
#488 = ORIENTED_EDGE('',*,*,#489,.T.);
#489 = EDGE_CURVE('',#482,#490,#492,.T.);
#490 = VERTEX_POINT('',#491);
#491 = CARTESIAN_POINT('',(3.36138907242,7.109223832727,-1.E-15));
#492 = LINE('',#493,#494);
#493 = CARTESIAN_POINT('',(1.459276039829,7.727257821477,-1.8E-15));
#494 = VECTOR('',#495,1.);
#495 = DIRECTION('',(0.951056516295,-0.309016994375,7.E-17));
#496 = ORIENTED_EDGE('',*,*,#497,.T.);
#497 = EDGE_CURVE('',#490,#278,#498,.T.);
#498 = LINE('',#499,#500);
#499 = CARTESIAN_POINT('',(3.36138907242,7.109223832727,-1.66E-15));
#500 = VECTOR('',#501,1.);
#501 = DIRECTION('',(0.309016994375,0.951056516295,-2.2E-16));
#502 = ORIENTED_EDGE('',*,*,#277,.T.);
#503 = ORIENTED_EDGE('',*,*,#504,.T.);
#504 = EDGE_CURVE('',#270,#505,#507,.T.);
#505 = VERTEX_POINT('',#506);
#506 = CARTESIAN_POINT('',(5.722547303832,5.393741962256,-2.E-15));
#507 = LINE('',#508,#509);
#508 = CARTESIAN_POINT('',(8.958615281332,7.744882971426,-1.11E-15));
#509 = VECTOR('',#510,1.);
#510 = DIRECTION('',(-0.809016994375,-0.587785252292,8.E-17));
#511 = ORIENTED_EDGE('',*,*,#512,.T.);
#512 = EDGE_CURVE('',#505,#513,#515,.T.);
#513 = VERTEX_POINT('',#514);
#514 = CARTESIAN_POINT('',(6.898117808417,3.775707973506,-2.E-15));
#515 = LINE('',#516,#517);
#516 = CARTESIAN_POINT('',(5.722547303832,5.393741962256,-7.8E-16));
#517 = VECTOR('',#518,1.);
#518 = DIRECTION('',(0.587785252292,-0.809016994375,1.2E-16));
#519 = ORIENTED_EDGE('',*,*,#520,.T.);
#520 = EDGE_CURVE('',#513,#244,#521,.T.);
#521 = LINE('',#522,#523);
#522 = CARTESIAN_POINT('',(6.898117808417,3.775707973506,-5.4E-16));
#523 = VECTOR('',#524,1.);
#524 = DIRECTION('',(0.809016994375,0.587785252292,-8.E-17));
#525 = ORIENTED_EDGE('',*,*,#243,.T.);
#526 = ORIENTED_EDGE('',*,*,#527,.T.);
#527 = EDGE_CURVE('',#236,#528,#530,.T.);
#528 = VERTEX_POINT('',#529);
#529 = CARTESIAN_POINT('',(7.8,1.,-2.E-15));
#530 = LINE('',#531,#532);
#531 = CARTESIAN_POINT('',(11.8,1.,0.));
#532 = VECTOR('',#533,1.);
#533 = DIRECTION('',(-1.,2.4E-16,0.));
#534 = ORIENTED_EDGE('',*,*,#535,.T.);
#535 = EDGE_CURVE('',#528,#536,#538,.T.);
#536 = VERTEX_POINT('',#537);
#537 = CARTESIAN_POINT('',(7.8,-1.,-2.E-15));
#538 = LINE('',#539,#540);
#539 = CARTESIAN_POINT('',(7.8,1.,0.));
#540 = VECTOR('',#541,1.);
#541 = DIRECTION('',(-2.4E-16,-1.,0.));
#542 = ORIENTED_EDGE('',*,*,#543,.T.);
#543 = EDGE_CURVE('',#536,#210,#544,.T.);
#544 = LINE('',#545,#546);
#545 = CARTESIAN_POINT('',(7.8,-1.,0.));
#546 = VECTOR('',#547,1.);
#547 = DIRECTION('',(1.,-2.4E-16,-0.));
#548 = ORIENTED_EDGE('',*,*,#209,.T.);
#549 = ORIENTED_EDGE('',*,*,#550,.T.);
#550 = EDGE_CURVE('',#202,#551,#553,.T.);
#551 = VERTEX_POINT('',#552);
#552 = CARTESIAN_POINT('',(6.898117808417,-3.775707973506,-2.E-15));
#553 = LINE('',#554,#555);
#554 = CARTESIAN_POINT('',(10.134185785917,-6.126848982676,-8.8E-16));
#555 = VECTOR('',#556,1.);
#556 = DIRECTION('',(-0.809016994375,0.587785252292,8.E-17));
#557 = ORIENTED_EDGE('',*,*,#558,.T.);
#558 = EDGE_CURVE('',#551,#559,#561,.T.);
#559 = VERTEX_POINT('',#560);
#560 = CARTESIAN_POINT('',(5.722547303832,-5.393741962256,-2.E-15));
#561 = LINE('',#562,#563);
#562 = CARTESIAN_POINT('',(6.898117808417,-3.775707973506,-5.4E-16));
#563 = VECTOR('',#564,1.);
#564 = DIRECTION('',(-0.587785252292,-0.809016994375,-1.2E-16));
#565 = ORIENTED_EDGE('',*,*,#566,.T.);
#566 = EDGE_CURVE('',#559,#176,#567,.T.);
#567 = LINE('',#568,#569);
#568 = CARTESIAN_POINT('',(5.722547303832,-5.393741962256,-7.8E-16));
#569 = VECTOR('',#570,1.);
#570 = DIRECTION('',(0.809016994375,-0.587785252292,-8.E-17));
#571 = ORIENTED_EDGE('',*,*,#175,.T.);
#572 = ORIENTED_EDGE('',*,*,#573,.T.);
#573 = EDGE_CURVE('',#168,#574,#576,.T.);
#574 = VERTEX_POINT('',#575);
#575 = CARTESIAN_POINT('',(3.36138907242,-7.109223832727,-1.E-15));
#576 = LINE('',#577,#578);
#577 = CARTESIAN_POINT('',(4.59745704992,-10.9134498979,-2.54E-15));
#578 = VECTOR('',#579,1.);
#579 = DIRECTION('',(-0.309016994375,0.951056516295,2.2E-16));
#580 = ORIENTED_EDGE('',*,*,#581,.T.);
#581 = EDGE_CURVE('',#574,#582,#584,.T.);
#582 = VERTEX_POINT('',#583);
#583 = CARTESIAN_POINT('',(1.459276039829,-7.727257821477,-1.E-15));
#584 = LINE('',#585,#586);
#585 = CARTESIAN_POINT('',(3.36138907242,-7.109223832727,-1.66E-15));
#586 = VECTOR('',#587,1.);
#587 = DIRECTION('',(-0.951056516295,-0.309016994375,-7.E-17));
#588 = ORIENTED_EDGE('',*,*,#589,.T.);
#589 = EDGE_CURVE('',#582,#142,#590,.T.);
#590 = LINE('',#591,#592);
#591 = CARTESIAN_POINT('',(1.459276039829,-7.727257821477,-1.8E-15));
#592 = VECTOR('',#593,1.);
#593 = DIRECTION('',(0.309016994375,-0.951056516295,-2.2E-16));
#594 = ORIENTED_EDGE('',*,*,#141,.T.);
#595 = ORIENTED_EDGE('',*,*,#596,.T.);
#596 = EDGE_CURVE('',#134,#597,#599,.T.);
#597 = VERTEX_POINT('',#598);
#598 = CARTESIAN_POINT('',(-1.459276039829,-7.727257821477,-1.E-15));
#599 = LINE('',#600,#601);
#600 = CARTESIAN_POINT('',(-2.695344017329,-11.53148388665,-2.69E-15));
#601 = VECTOR('',#602,1.);
#602 = DIRECTION('',(0.309016994375,0.951056516295,2.2E-16));
#603 = ORIENTED_EDGE('',*,*,#604,.T.);
#604 = EDGE_CURVE('',#597,#605,#607,.T.);
#605 = VERTEX_POINT('',#606);
#606 = CARTESIAN_POINT('',(-3.36138907242,-7.109223832727,-1.E-15));
#607 = LINE('',#608,#609);
#608 = CARTESIAN_POINT('',(-1.459276039829,-7.727257821477,-1.8E-15));
#609 = VECTOR('',#610,1.);
#610 = DIRECTION('',(-0.951056516295,0.309016994375,7.E-17));
#611 = ORIENTED_EDGE('',*,*,#612,.T.);
#612 = EDGE_CURVE('',#605,#108,#613,.T.);
#613 = LINE('',#614,#615);
#614 = CARTESIAN_POINT('',(-3.36138907242,-7.109223832727,-1.66E-15));
#615 = VECTOR('',#616,1.);
#616 = DIRECTION('',(-0.309016994375,-0.951056516295,-2.2E-16));
#617 = ORIENTED_EDGE('',*,*,#107,.T.);
#618 = ORIENTED_EDGE('',*,*,#619,.T.);
#619 = EDGE_CURVE('',#100,#620,#622,.T.);
#620 = VERTEX_POINT('',#621);
#621 = CARTESIAN_POINT('',(-5.722547303832,-5.393741962256,0.));
#622 = LINE('',#623,#624);
#623 = CARTESIAN_POINT('',(-8.958615281332,-7.744882971426,-1.11E-15));
#624 = VECTOR('',#625,1.);
#625 = DIRECTION('',(0.809016994375,0.587785252292,8.E-17));
#626 = ORIENTED_EDGE('',*,*,#627,.T.);
#627 = EDGE_CURVE('',#620,#628,#630,.T.);
#628 = VERTEX_POINT('',#629);
#629 = CARTESIAN_POINT('',(-6.898117808417,-3.775707973506,0.));
#630 = LINE('',#631,#632);
#631 = CARTESIAN_POINT('',(-5.722547303832,-5.393741962256,-7.8E-16));
#632 = VECTOR('',#633,1.);
#633 = DIRECTION('',(-0.587785252292,0.809016994375,1.2E-16));
#634 = ORIENTED_EDGE('',*,*,#635,.T.);
#635 = EDGE_CURVE('',#628,#74,#636,.T.);
#636 = LINE('',#637,#638);
#637 = CARTESIAN_POINT('',(-6.898117808417,-3.775707973506,-5.4E-16));
#638 = VECTOR('',#639,1.);
#639 = DIRECTION('',(-0.809016994375,-0.587785252292,-8.E-17));
#640 = ORIENTED_EDGE('',*,*,#73,.T.);
#641 = ORIENTED_EDGE('',*,*,#642,.T.);
#642 = EDGE_CURVE('',#66,#426,#643,.T.);
#643 = LINE('',#644,#645);
#644 = CARTESIAN_POINT('',(-11.8,-1.,0.));
#645 = VECTOR('',#646,1.);
#646 = DIRECTION('',(1.,0.,0.));
#647 = FACE_BOUND('',#648,.F.);
#648 = EDGE_LOOP('',(#649));
#649 = ORIENTED_EDGE('',*,*,#650,.F.);
#650 = EDGE_CURVE('',#651,#651,#653,.T.);
#651 = VERTEX_POINT('',#652);
#652 = CARTESIAN_POINT('',(-4.,-1.E-15,1.E-15));
#653 = CIRCLE('',#654,4.);
#654 = AXIS2_PLACEMENT_3D('',#655,#656,#657);
#655 = CARTESIAN_POINT('',(0.,0.,0.));
#656 = DIRECTION('',(0.,0.,-1.));
#657 = DIRECTION('',(-1.,0.,0.));
#658 = PLANE('',#659);
#659 = AXIS2_PLACEMENT_3D('',#660,#661,#662);
#660 = CARTESIAN_POINT('',(1.47E-14,0.,0.));
#661 = DIRECTION('',(0.,0.,-1.));
#662 = DIRECTION('',(-1.,0.,0.));
#663 = ADVANCED_FACE('',(#664),#682,.F.);
#664 = FACE_BOUND('',#665,.F.);
#665 = EDGE_LOOP('',(#666,#667,#668,#676));
#666 = ORIENTED_EDGE('',*,*,#435,.F.);
#667 = ORIENTED_EDGE('',*,*,#371,.F.);
#668 = ORIENTED_EDGE('',*,*,#669,.T.);
#669 = EDGE_CURVE('',#363,#670,#672,.T.);
#670 = VERTEX_POINT('',#671);
#671 = CARTESIAN_POINT('',(-6.898117808417,3.775707973506,-8.));
#672 = LINE('',#673,#674);
#673 = CARTESIAN_POINT('',(-10.13418578591,6.126848982676,-8.));
#674 = VECTOR('',#675,1.);
#675 = DIRECTION('',(0.809016994375,-0.587785252292,8.E-17));
#676 = ORIENTED_EDGE('',*,*,#677,.F.);
#677 = EDGE_CURVE('',#436,#670,#678,.T.);
#678 = LINE('',#679,#680);
#679 = CARTESIAN_POINT('',(-6.898117808417,3.775707973506,-1.3E-16));
#680 = VECTOR('',#681,1.);
#681 = DIRECTION('',(-9.935933854364E-17,-2.205169423064E-16,-1.));
#682 = PLANE('',#683);
#683 = AXIS2_PLACEMENT_3D('',#684,#685,#686);
#684 = CARTESIAN_POINT('',(-10.13418578591,6.126848982676,-3.2E-16));
#685 = DIRECTION('',(-0.587785252292,-0.809016994375,2.3E-16));
#686 = DIRECTION('',(0.809016994375,-0.587785252292,5.E-17));
#687 = ADVANCED_FACE('',(#688),#706,.T.);
#688 = FACE_BOUND('',#689,.T.);
#689 = EDGE_LOOP('',(#690,#698,#704,#705));
#690 = ORIENTED_EDGE('',*,*,#691,.T.);
#691 = EDGE_CURVE('',#670,#692,#694,.T.);
#692 = VERTEX_POINT('',#693);
#693 = CARTESIAN_POINT('',(-5.722547303832,5.393741962256,-8.));
#694 = LINE('',#695,#696);
#695 = CARTESIAN_POINT('',(-6.898117808417,3.775707973506,-8.));
#696 = VECTOR('',#697,1.);
#697 = DIRECTION('',(0.587785252292,0.809016994375,-1.2E-16));
#698 = ORIENTED_EDGE('',*,*,#699,.T.);
#699 = EDGE_CURVE('',#692,#355,#700,.T.);
#700 = LINE('',#701,#702);
#701 = CARTESIAN_POINT('',(-5.722547303832,5.393741962256,-8.));
#702 = VECTOR('',#703,1.);
#703 = DIRECTION('',(-0.809016994375,0.587785252292,-8.E-17));
#704 = ORIENTED_EDGE('',*,*,#362,.T.);
#705 = ORIENTED_EDGE('',*,*,#669,.T.);
#706 = PLANE('',#707);
#707 = AXIS2_PLACEMENT_3D('',#708,#709,#710);
#708 = CARTESIAN_POINT('',(-7.928366544874,5.760295472466,-8.));
#709 = DIRECTION('',(-5.812870725101E-18,1.441048595084E-16,1.));
#710 = DIRECTION('',(0.809016994375,-0.587785252292,8.940542240542E-17)
  );
#711 = ADVANCED_FACE('',(#712),#723,.F.);
#712 = FACE_BOUND('',#713,.F.);
#713 = EDGE_LOOP('',(#714,#715,#721,#722));
#714 = ORIENTED_EDGE('',*,*,#451,.F.);
#715 = ORIENTED_EDGE('',*,*,#716,.T.);
#716 = EDGE_CURVE('',#444,#692,#717,.T.);
#717 = LINE('',#718,#719);
#718 = CARTESIAN_POINT('',(-5.722547303832,5.393741962256,-6.E-16));
#719 = VECTOR('',#720,1.);
#720 = DIRECTION('',(-9.935933854364E-17,-2.205169423064E-16,-1.));
#721 = ORIENTED_EDGE('',*,*,#699,.T.);
#722 = ORIENTED_EDGE('',*,*,#354,.T.);
#723 = PLANE('',#724);
#724 = AXIS2_PLACEMENT_3D('',#725,#726,#727);
#725 = CARTESIAN_POINT('',(-5.722547303832,5.393741962256,-6.E-16));
#726 = DIRECTION('',(0.587785252292,0.809016994375,-2.3E-16));
#727 = DIRECTION('',(-0.809016994375,0.587785252292,-5.E-17));
#728 = ADVANCED_FACE('',(#729),#747,.F.);
#729 = FACE_BOUND('',#730,.F.);
#730 = EDGE_LOOP('',(#731,#732,#733,#741));
#731 = ORIENTED_EDGE('',*,*,#458,.F.);
#732 = ORIENTED_EDGE('',*,*,#337,.F.);
#733 = ORIENTED_EDGE('',*,*,#734,.T.);
#734 = EDGE_CURVE('',#329,#735,#737,.T.);
#735 = VERTEX_POINT('',#736);
#736 = CARTESIAN_POINT('',(-3.36138907242,7.109223832727,-8.));
#737 = LINE('',#738,#739);
#738 = CARTESIAN_POINT('',(-4.59745704992,10.913449897908,-8.));
#739 = VECTOR('',#740,1.);
#740 = DIRECTION('',(0.309016994375,-0.951056516295,2.2E-16));
#741 = ORIENTED_EDGE('',*,*,#742,.F.);
#742 = EDGE_CURVE('',#459,#735,#743,.T.);
#743 = LINE('',#744,#745);
#744 = CARTESIAN_POINT('',(-3.36138907242,7.109223832727,-2.36E-15));
#745 = VECTOR('',#746,1.);
#746 = DIRECTION('',(-3.849182194682E-17,-3.449904051466E-16,-1.));
#747 = PLANE('',#748);
#748 = AXIS2_PLACEMENT_3D('',#749,#750,#751);
#749 = CARTESIAN_POINT('',(-4.59745704992,10.913449897908,-3.64E-15));
#750 = DIRECTION('',(-0.951056516295,-0.309016994375,1.4E-16));
#751 = DIRECTION('',(0.309016994375,-0.951056516295,3.2E-16));
#752 = ADVANCED_FACE('',(#753),#771,.T.);
#753 = FACE_BOUND('',#754,.T.);
#754 = EDGE_LOOP('',(#755,#763,#769,#770));
#755 = ORIENTED_EDGE('',*,*,#756,.T.);
#756 = EDGE_CURVE('',#735,#757,#759,.T.);
#757 = VERTEX_POINT('',#758);
#758 = CARTESIAN_POINT('',(-1.459276039829,7.727257821477,-8.));
#759 = LINE('',#760,#761);
#760 = CARTESIAN_POINT('',(-3.36138907242,7.109223832727,-8.));
#761 = VECTOR('',#762,1.);
#762 = DIRECTION('',(0.951056516295,0.309016994375,-7.E-17));
#763 = ORIENTED_EDGE('',*,*,#764,.T.);
#764 = EDGE_CURVE('',#757,#321,#765,.T.);
#765 = LINE('',#766,#767);
#766 = CARTESIAN_POINT('',(-1.459276039829,7.727257821477,-8.));
#767 = VECTOR('',#768,1.);
#768 = DIRECTION('',(-0.309016994375,0.951056516295,-2.2E-16));
#769 = ORIENTED_EDGE('',*,*,#328,.T.);
#770 = ORIENTED_EDGE('',*,*,#734,.T.);
#771 = PLANE('',#772);
#772 = AXIS2_PLACEMENT_3D('',#773,#774,#775);
#773 = CARTESIAN_POINT('',(-3.028366544874,9.320353859693,-8.));
#774 = DIRECTION('',(1.409782621828E-18,2.308636231912E-16,1.));
#775 = DIRECTION('',(0.309016994375,-0.951056516295,2.19128706423E-16));
#776 = ADVANCED_FACE('',(#777),#788,.F.);
#777 = FACE_BOUND('',#778,.F.);
#778 = EDGE_LOOP('',(#779,#780,#786,#787));
#779 = ORIENTED_EDGE('',*,*,#474,.F.);
#780 = ORIENTED_EDGE('',*,*,#781,.T.);
#781 = EDGE_CURVE('',#467,#757,#782,.T.);
#782 = LINE('',#783,#784);
#783 = CARTESIAN_POINT('',(-1.459276039829,7.727257821477,-2.64E-15));
#784 = VECTOR('',#785,1.);
#785 = DIRECTION('',(-3.849182194682E-17,-3.449904051466E-16,-1.));
#786 = ORIENTED_EDGE('',*,*,#764,.T.);
#787 = ORIENTED_EDGE('',*,*,#320,.T.);
#788 = PLANE('',#789);
#789 = AXIS2_PLACEMENT_3D('',#790,#791,#792);
#790 = CARTESIAN_POINT('',(-1.459276039829,7.727257821477,-2.64E-15));
#791 = DIRECTION('',(0.951056516295,0.309016994375,-1.4E-16));
#792 = DIRECTION('',(-0.309016994375,0.951056516295,-3.2E-16));
#793 = ADVANCED_FACE('',(#794),#812,.F.);
#794 = FACE_BOUND('',#795,.F.);
#795 = EDGE_LOOP('',(#796,#797,#798,#806));
#796 = ORIENTED_EDGE('',*,*,#481,.F.);
#797 = ORIENTED_EDGE('',*,*,#303,.F.);
#798 = ORIENTED_EDGE('',*,*,#799,.T.);
#799 = EDGE_CURVE('',#295,#800,#802,.T.);
#800 = VERTEX_POINT('',#801);
#801 = CARTESIAN_POINT('',(1.459276039829,7.727257821477,-8.));
#802 = LINE('',#803,#804);
#803 = CARTESIAN_POINT('',(2.695344017329,11.531483886658,-8.));
#804 = VECTOR('',#805,1.);
#805 = DIRECTION('',(-0.309016994375,-0.951056516295,2.2E-16));
#806 = ORIENTED_EDGE('',*,*,#807,.F.);
#807 = EDGE_CURVE('',#482,#800,#808,.T.);
#808 = LINE('',#809,#810);
#809 = CARTESIAN_POINT('',(1.459276039829,7.727257821477,-2.64E-15));
#810 = VECTOR('',#811,1.);
#811 = DIRECTION('',(3.849182194682E-17,-3.449904051466E-16,-1.));
#812 = PLANE('',#813);
#813 = AXIS2_PLACEMENT_3D('',#814,#815,#816);
#814 = CARTESIAN_POINT('',(2.695344017329,11.531483886658,-3.93E-15));
#815 = DIRECTION('',(-0.951056516295,0.309016994375,-1.4E-16));
#816 = DIRECTION('',(-0.309016994375,-0.951056516295,3.2E-16));
#817 = ADVANCED_FACE('',(#818),#836,.T.);
#818 = FACE_BOUND('',#819,.T.);
#819 = EDGE_LOOP('',(#820,#828,#834,#835));
#820 = ORIENTED_EDGE('',*,*,#821,.T.);
#821 = EDGE_CURVE('',#800,#822,#824,.T.);
#822 = VERTEX_POINT('',#823);
#823 = CARTESIAN_POINT('',(3.36138907242,7.109223832727,-8.));
#824 = LINE('',#825,#826);
#825 = CARTESIAN_POINT('',(1.459276039829,7.727257821477,-8.));
#826 = VECTOR('',#827,1.);
#827 = DIRECTION('',(0.951056516295,-0.309016994375,7.E-17));
#828 = ORIENTED_EDGE('',*,*,#829,.T.);
#829 = EDGE_CURVE('',#822,#287,#830,.T.);
#830 = LINE('',#831,#832);
#831 = CARTESIAN_POINT('',(3.36138907242,7.109223832727,-8.));
#832 = VECTOR('',#833,1.);
#833 = DIRECTION('',(0.309016994375,0.951056516295,-2.2E-16));
#834 = ORIENTED_EDGE('',*,*,#294,.T.);
#835 = ORIENTED_EDGE('',*,*,#799,.T.);
#836 = PLANE('',#837);
#837 = AXIS2_PLACEMENT_3D('',#838,#839,#840);
#838 = CARTESIAN_POINT('',(3.028366544874,9.320353859693,-8.));
#839 = DIRECTION('',(-1.409782621828E-18,2.308636231912E-16,1.));
#840 = DIRECTION('',(-0.309016994375,-0.951056516295,2.19128706423E-16)
  );
#841 = ADVANCED_FACE('',(#842),#853,.F.);
#842 = FACE_BOUND('',#843,.F.);
#843 = EDGE_LOOP('',(#844,#845,#851,#852));
#844 = ORIENTED_EDGE('',*,*,#497,.F.);
#845 = ORIENTED_EDGE('',*,*,#846,.T.);
#846 = EDGE_CURVE('',#490,#822,#847,.T.);
#847 = LINE('',#848,#849);
#848 = CARTESIAN_POINT('',(3.36138907242,7.109223832727,-2.36E-15));
#849 = VECTOR('',#850,1.);
#850 = DIRECTION('',(3.849182194682E-17,-3.449904051466E-16,-1.));
#851 = ORIENTED_EDGE('',*,*,#829,.T.);
#852 = ORIENTED_EDGE('',*,*,#286,.T.);
#853 = PLANE('',#854);
#854 = AXIS2_PLACEMENT_3D('',#855,#856,#857);
#855 = CARTESIAN_POINT('',(3.36138907242,7.109223832727,-2.36E-15));
#856 = DIRECTION('',(0.951056516295,-0.309016994375,1.4E-16));
#857 = DIRECTION('',(0.309016994375,0.951056516295,-3.2E-16));
#858 = ADVANCED_FACE('',(#859),#877,.F.);
#859 = FACE_BOUND('',#860,.F.);
#860 = EDGE_LOOP('',(#861,#862,#863,#871));
#861 = ORIENTED_EDGE('',*,*,#504,.F.);
#862 = ORIENTED_EDGE('',*,*,#269,.F.);
#863 = ORIENTED_EDGE('',*,*,#864,.T.);
#864 = EDGE_CURVE('',#261,#865,#867,.T.);
#865 = VERTEX_POINT('',#866);
#866 = CARTESIAN_POINT('',(5.722547303832,5.393741962256,-8.));
#867 = LINE('',#868,#869);
#868 = CARTESIAN_POINT('',(8.958615281332,7.744882971426,-8.));
#869 = VECTOR('',#870,1.);
#870 = DIRECTION('',(-0.809016994375,-0.587785252292,8.E-17));
#871 = ORIENTED_EDGE('',*,*,#872,.F.);
#872 = EDGE_CURVE('',#505,#865,#873,.T.);
#873 = LINE('',#874,#875);
#874 = CARTESIAN_POINT('',(5.722547303832,5.393741962256,-6.E-16));
#875 = VECTOR('',#876,1.);
#876 = DIRECTION('',(9.935933854364E-17,-2.205169423064E-16,-1.));
#877 = PLANE('',#878);
#878 = AXIS2_PLACEMENT_3D('',#879,#880,#881);
#879 = CARTESIAN_POINT('',(8.958615281332,7.744882971426,-7.8E-16));
#880 = DIRECTION('',(-0.587785252292,0.809016994375,-2.3E-16));
#881 = DIRECTION('',(-0.809016994375,-0.587785252292,5.E-17));
#882 = ADVANCED_FACE('',(#883),#901,.T.);
#883 = FACE_BOUND('',#884,.T.);
#884 = EDGE_LOOP('',(#885,#893,#899,#900));
#885 = ORIENTED_EDGE('',*,*,#886,.T.);
#886 = EDGE_CURVE('',#865,#887,#889,.T.);
#887 = VERTEX_POINT('',#888);
#888 = CARTESIAN_POINT('',(6.898117808417,3.775707973506,-8.));
#889 = LINE('',#890,#891);
#890 = CARTESIAN_POINT('',(5.722547303832,5.393741962256,-8.));
#891 = VECTOR('',#892,1.);
#892 = DIRECTION('',(0.587785252292,-0.809016994375,1.2E-16));
#893 = ORIENTED_EDGE('',*,*,#894,.T.);
#894 = EDGE_CURVE('',#887,#253,#895,.T.);
#895 = LINE('',#896,#897);
#896 = CARTESIAN_POINT('',(6.898117808417,3.775707973506,-8.));
#897 = VECTOR('',#898,1.);
#898 = DIRECTION('',(0.809016994375,0.587785252292,-8.E-17));
#899 = ORIENTED_EDGE('',*,*,#260,.T.);
#900 = ORIENTED_EDGE('',*,*,#864,.T.);
#901 = PLANE('',#902);
#902 = AXIS2_PLACEMENT_3D('',#903,#904,#905);
#903 = CARTESIAN_POINT('',(7.928366544874,5.760295472466,-8.));
#904 = DIRECTION('',(5.812870725101E-18,1.441048595084E-16,1.));
#905 = DIRECTION('',(-0.809016994375,-0.587785252292,8.940542240542E-17)
  );
#906 = ADVANCED_FACE('',(#907),#918,.F.);
#907 = FACE_BOUND('',#908,.F.);
#908 = EDGE_LOOP('',(#909,#910,#916,#917));
#909 = ORIENTED_EDGE('',*,*,#520,.F.);
#910 = ORIENTED_EDGE('',*,*,#911,.T.);
#911 = EDGE_CURVE('',#513,#887,#912,.T.);
#912 = LINE('',#913,#914);
#913 = CARTESIAN_POINT('',(6.898117808417,3.775707973506,-1.3E-16));
#914 = VECTOR('',#915,1.);
#915 = DIRECTION('',(9.935933854364E-17,-2.205169423064E-16,-1.));
#916 = ORIENTED_EDGE('',*,*,#894,.T.);
#917 = ORIENTED_EDGE('',*,*,#252,.T.);
#918 = PLANE('',#919);
#919 = AXIS2_PLACEMENT_3D('',#920,#921,#922);
#920 = CARTESIAN_POINT('',(6.898117808417,3.775707973506,-1.3E-16));
#921 = DIRECTION('',(0.587785252292,-0.809016994375,2.3E-16));
#922 = DIRECTION('',(0.809016994375,0.587785252292,-5.E-17));
#923 = ADVANCED_FACE('',(#924),#942,.F.);
#924 = FACE_BOUND('',#925,.F.);
#925 = EDGE_LOOP('',(#926,#927,#928,#936));
#926 = ORIENTED_EDGE('',*,*,#527,.F.);
#927 = ORIENTED_EDGE('',*,*,#235,.F.);
#928 = ORIENTED_EDGE('',*,*,#929,.T.);
#929 = EDGE_CURVE('',#227,#930,#932,.T.);
#930 = VERTEX_POINT('',#931);
#931 = CARTESIAN_POINT('',(7.8,1.,-8.));
#932 = LINE('',#933,#934);
#933 = CARTESIAN_POINT('',(11.8,1.,-8.));
#934 = VECTOR('',#935,1.);
#935 = DIRECTION('',(-1.,2.4E-16,0.));
#936 = ORIENTED_EDGE('',*,*,#937,.F.);
#937 = EDGE_CURVE('',#528,#930,#938,.T.);
#938 = LINE('',#939,#940);
#939 = CARTESIAN_POINT('',(7.8,1.,9.6E-16));
#940 = VECTOR('',#941,1.);
#941 = DIRECTION('',(1.2E-16,0.,-1.));
#942 = PLANE('',#943);
#943 = AXIS2_PLACEMENT_3D('',#944,#945,#946);
#944 = CARTESIAN_POINT('',(11.8,1.,1.45E-15));
#945 = DIRECTION('',(2.4E-16,1.,0.));
#946 = DIRECTION('',(-1.,2.4E-16,-1.2E-16));
#947 = ADVANCED_FACE('',(#948),#966,.T.);
#948 = FACE_BOUND('',#949,.T.);
#949 = EDGE_LOOP('',(#950,#958,#964,#965));
#950 = ORIENTED_EDGE('',*,*,#951,.T.);
#951 = EDGE_CURVE('',#930,#952,#954,.T.);
#952 = VERTEX_POINT('',#953);
#953 = CARTESIAN_POINT('',(7.8,-1.,-8.));
#954 = LINE('',#955,#956);
#955 = CARTESIAN_POINT('',(7.8,1.,-8.));
#956 = VECTOR('',#957,1.);
#957 = DIRECTION('',(-2.4E-16,-1.,0.));
#958 = ORIENTED_EDGE('',*,*,#959,.T.);
#959 = EDGE_CURVE('',#952,#219,#960,.T.);
#960 = LINE('',#961,#962);
#961 = CARTESIAN_POINT('',(7.8,-1.,-8.));
#962 = VECTOR('',#963,1.);
#963 = DIRECTION('',(1.,-2.4E-16,-0.));
#964 = ORIENTED_EDGE('',*,*,#226,.T.);
#965 = ORIENTED_EDGE('',*,*,#929,.T.);
#966 = PLANE('',#967);
#967 = AXIS2_PLACEMENT_3D('',#968,#969,#970);
#968 = CARTESIAN_POINT('',(9.8,-2.3E-15,-8.));
#969 = DIRECTION('',(0.,0.,1.));
#970 = DIRECTION('',(-1.,2.4E-16,0.));
#971 = ADVANCED_FACE('',(#972),#983,.F.);
#972 = FACE_BOUND('',#973,.F.);
#973 = EDGE_LOOP('',(#974,#975,#981,#982));
#974 = ORIENTED_EDGE('',*,*,#543,.F.);
#975 = ORIENTED_EDGE('',*,*,#976,.T.);
#976 = EDGE_CURVE('',#536,#952,#977,.T.);
#977 = LINE('',#978,#979);
#978 = CARTESIAN_POINT('',(7.8,-1.,9.6E-16));
#979 = VECTOR('',#980,1.);
#980 = DIRECTION('',(1.2E-16,0.,-1.));
#981 = ORIENTED_EDGE('',*,*,#959,.T.);
#982 = ORIENTED_EDGE('',*,*,#218,.T.);
#983 = PLANE('',#984);
#984 = AXIS2_PLACEMENT_3D('',#985,#986,#987);
#985 = CARTESIAN_POINT('',(7.8,-1.,9.6E-16));
#986 = DIRECTION('',(-2.4E-16,-1.,0.));
#987 = DIRECTION('',(1.,-2.4E-16,1.2E-16));
#988 = ADVANCED_FACE('',(#989),#1007,.F.);
#989 = FACE_BOUND('',#990,.F.);
#990 = EDGE_LOOP('',(#991,#992,#993,#1001));
#991 = ORIENTED_EDGE('',*,*,#550,.F.);
#992 = ORIENTED_EDGE('',*,*,#201,.F.);
#993 = ORIENTED_EDGE('',*,*,#994,.T.);
#994 = EDGE_CURVE('',#193,#995,#997,.T.);
#995 = VERTEX_POINT('',#996);
#996 = CARTESIAN_POINT('',(6.898117808417,-3.775707973506,-8.));
#997 = LINE('',#998,#999);
#998 = CARTESIAN_POINT('',(10.134185785917,-6.126848982676,-8.));
#999 = VECTOR('',#1000,1.);
#1000 = DIRECTION('',(-0.809016994375,0.587785252292,8.E-17));
#1001 = ORIENTED_EDGE('',*,*,#1002,.F.);
#1002 = EDGE_CURVE('',#551,#995,#1003,.T.);
#1003 = LINE('',#1004,#1005);
#1004 = CARTESIAN_POINT('',(6.898117808417,-3.775707973506,-1.3E-16));
#1005 = VECTOR('',#1006,1.);
#1006 = DIRECTION('',(9.935933854364E-17,2.205169423064E-16,-1.));
#1007 = PLANE('',#1008);
#1008 = AXIS2_PLACEMENT_3D('',#1009,#1010,#1011);
#1009 = CARTESIAN_POINT('',(10.134185785917,-6.126848982676,-3.2E-16));
#1010 = DIRECTION('',(0.587785252292,0.809016994375,2.3E-16));
#1011 = DIRECTION('',(-0.809016994375,0.587785252292,5.E-17));
#1012 = ADVANCED_FACE('',(#1013),#1031,.T.);
#1013 = FACE_BOUND('',#1014,.T.);
#1014 = EDGE_LOOP('',(#1015,#1023,#1029,#1030));
#1015 = ORIENTED_EDGE('',*,*,#1016,.T.);
#1016 = EDGE_CURVE('',#995,#1017,#1019,.T.);
#1017 = VERTEX_POINT('',#1018);
#1018 = CARTESIAN_POINT('',(5.722547303832,-5.393741962256,-8.));
#1019 = LINE('',#1020,#1021);
#1020 = CARTESIAN_POINT('',(6.898117808417,-3.775707973506,-8.));
#1021 = VECTOR('',#1022,1.);
#1022 = DIRECTION('',(-0.587785252292,-0.809016994375,-1.2E-16));
#1023 = ORIENTED_EDGE('',*,*,#1024,.T.);
#1024 = EDGE_CURVE('',#1017,#185,#1025,.T.);
#1025 = LINE('',#1026,#1027);
#1026 = CARTESIAN_POINT('',(5.722547303832,-5.393741962256,-8.));
#1027 = VECTOR('',#1028,1.);
#1028 = DIRECTION('',(0.809016994375,-0.587785252292,-8.E-17));
#1029 = ORIENTED_EDGE('',*,*,#192,.T.);
#1030 = ORIENTED_EDGE('',*,*,#994,.T.);
#1031 = PLANE('',#1032);
#1032 = AXIS2_PLACEMENT_3D('',#1033,#1034,#1035);
#1033 = CARTESIAN_POINT('',(7.928366544874,-5.760295472466,-8.));
#1034 = DIRECTION('',(5.812870725101E-18,-1.441048595084E-16,1.));
#1035 = DIRECTION('',(-0.809016994375,0.587785252292,8.940542240542E-17)
  );
#1036 = ADVANCED_FACE('',(#1037),#1048,.F.);
#1037 = FACE_BOUND('',#1038,.F.);
#1038 = EDGE_LOOP('',(#1039,#1040,#1046,#1047));
#1039 = ORIENTED_EDGE('',*,*,#566,.F.);
#1040 = ORIENTED_EDGE('',*,*,#1041,.T.);
#1041 = EDGE_CURVE('',#559,#1017,#1042,.T.);
#1042 = LINE('',#1043,#1044);
#1043 = CARTESIAN_POINT('',(5.722547303832,-5.393741962256,-6.E-16));
#1044 = VECTOR('',#1045,1.);
#1045 = DIRECTION('',(9.935933854364E-17,2.205169423064E-16,-1.));
#1046 = ORIENTED_EDGE('',*,*,#1024,.T.);
#1047 = ORIENTED_EDGE('',*,*,#184,.T.);
#1048 = PLANE('',#1049);
#1049 = AXIS2_PLACEMENT_3D('',#1050,#1051,#1052);
#1050 = CARTESIAN_POINT('',(5.722547303832,-5.393741962256,-6.E-16));
#1051 = DIRECTION('',(-0.587785252292,-0.809016994375,-2.3E-16));
#1052 = DIRECTION('',(0.809016994375,-0.587785252292,-5.E-17));
#1053 = ADVANCED_FACE('',(#1054),#1072,.F.);
#1054 = FACE_BOUND('',#1055,.F.);
#1055 = EDGE_LOOP('',(#1056,#1057,#1058,#1066));
#1056 = ORIENTED_EDGE('',*,*,#573,.F.);
#1057 = ORIENTED_EDGE('',*,*,#167,.F.);
#1058 = ORIENTED_EDGE('',*,*,#1059,.T.);
#1059 = EDGE_CURVE('',#159,#1060,#1062,.T.);
#1060 = VERTEX_POINT('',#1061);
#1061 = CARTESIAN_POINT('',(3.36138907242,-7.109223832727,-8.));
#1062 = LINE('',#1063,#1064);
#1063 = CARTESIAN_POINT('',(4.59745704992,-10.9134498979,-8.));
#1064 = VECTOR('',#1065,1.);
#1065 = DIRECTION('',(-0.309016994375,0.951056516295,2.2E-16));
#1066 = ORIENTED_EDGE('',*,*,#1067,.F.);
#1067 = EDGE_CURVE('',#574,#1060,#1068,.T.);
#1068 = LINE('',#1069,#1070);
#1069 = CARTESIAN_POINT('',(3.36138907242,-7.109223832727,-2.36E-15));
#1070 = VECTOR('',#1071,1.);
#1071 = DIRECTION('',(3.849182194682E-17,3.449904051466E-16,-1.));
#1072 = PLANE('',#1073);
#1073 = AXIS2_PLACEMENT_3D('',#1074,#1075,#1076);
#1074 = CARTESIAN_POINT('',(4.59745704992,-10.9134498979,-3.64E-15));
#1075 = DIRECTION('',(0.951056516295,0.309016994375,1.4E-16));
#1076 = DIRECTION('',(-0.309016994375,0.951056516295,3.2E-16));
#1077 = ADVANCED_FACE('',(#1078),#1096,.T.);
#1078 = FACE_BOUND('',#1079,.T.);
#1079 = EDGE_LOOP('',(#1080,#1088,#1094,#1095));
#1080 = ORIENTED_EDGE('',*,*,#1081,.T.);
#1081 = EDGE_CURVE('',#1060,#1082,#1084,.T.);
#1082 = VERTEX_POINT('',#1083);
#1083 = CARTESIAN_POINT('',(1.459276039829,-7.727257821477,-8.));
#1084 = LINE('',#1085,#1086);
#1085 = CARTESIAN_POINT('',(3.36138907242,-7.109223832727,-8.));
#1086 = VECTOR('',#1087,1.);
#1087 = DIRECTION('',(-0.951056516295,-0.309016994375,-7.E-17));
#1088 = ORIENTED_EDGE('',*,*,#1089,.T.);
#1089 = EDGE_CURVE('',#1082,#151,#1090,.T.);
#1090 = LINE('',#1091,#1092);
#1091 = CARTESIAN_POINT('',(1.459276039829,-7.727257821477,-8.));
#1092 = VECTOR('',#1093,1.);
#1093 = DIRECTION('',(0.309016994375,-0.951056516295,-2.2E-16));
#1094 = ORIENTED_EDGE('',*,*,#158,.T.);
#1095 = ORIENTED_EDGE('',*,*,#1059,.T.);
#1096 = PLANE('',#1097);
#1097 = AXIS2_PLACEMENT_3D('',#1098,#1099,#1100);
#1098 = CARTESIAN_POINT('',(3.028366544874,-9.320353859693,-8.));
#1099 = DIRECTION('',(-1.409782621828E-18,-2.308636231912E-16,1.));
#1100 = DIRECTION('',(-0.309016994375,0.951056516295,2.19128706423E-16)
  );
#1101 = ADVANCED_FACE('',(#1102),#1113,.F.);
#1102 = FACE_BOUND('',#1103,.F.);
#1103 = EDGE_LOOP('',(#1104,#1105,#1111,#1112));
#1104 = ORIENTED_EDGE('',*,*,#589,.F.);
#1105 = ORIENTED_EDGE('',*,*,#1106,.T.);
#1106 = EDGE_CURVE('',#582,#1082,#1107,.T.);
#1107 = LINE('',#1108,#1109);
#1108 = CARTESIAN_POINT('',(1.459276039829,-7.727257821477,-2.64E-15));
#1109 = VECTOR('',#1110,1.);
#1110 = DIRECTION('',(3.849182194682E-17,3.449904051466E-16,-1.));
#1111 = ORIENTED_EDGE('',*,*,#1089,.T.);
#1112 = ORIENTED_EDGE('',*,*,#150,.T.);
#1113 = PLANE('',#1114);
#1114 = AXIS2_PLACEMENT_3D('',#1115,#1116,#1117);
#1115 = CARTESIAN_POINT('',(1.459276039829,-7.727257821477,-2.64E-15));
#1116 = DIRECTION('',(-0.951056516295,-0.309016994375,-1.4E-16));
#1117 = DIRECTION('',(0.309016994375,-0.951056516295,-3.2E-16));
#1118 = ADVANCED_FACE('',(#1119),#1137,.F.);
#1119 = FACE_BOUND('',#1120,.F.);
#1120 = EDGE_LOOP('',(#1121,#1122,#1123,#1131));
#1121 = ORIENTED_EDGE('',*,*,#596,.F.);
#1122 = ORIENTED_EDGE('',*,*,#133,.F.);
#1123 = ORIENTED_EDGE('',*,*,#1124,.T.);
#1124 = EDGE_CURVE('',#125,#1125,#1127,.T.);
#1125 = VERTEX_POINT('',#1126);
#1126 = CARTESIAN_POINT('',(-1.459276039829,-7.727257821477,-8.));
#1127 = LINE('',#1128,#1129);
#1128 = CARTESIAN_POINT('',(-2.695344017329,-11.53148388665,-8.));
#1129 = VECTOR('',#1130,1.);
#1130 = DIRECTION('',(0.309016994375,0.951056516295,2.2E-16));
#1131 = ORIENTED_EDGE('',*,*,#1132,.F.);
#1132 = EDGE_CURVE('',#597,#1125,#1133,.T.);
#1133 = LINE('',#1134,#1135);
#1134 = CARTESIAN_POINT('',(-1.459276039829,-7.727257821477,-2.64E-15));
#1135 = VECTOR('',#1136,1.);
#1136 = DIRECTION('',(-3.849182194682E-17,3.449904051466E-16,-1.));
#1137 = PLANE('',#1138);
#1138 = AXIS2_PLACEMENT_3D('',#1139,#1140,#1141);
#1139 = CARTESIAN_POINT('',(-2.695344017329,-11.53148388665,-3.93E-15));
#1140 = DIRECTION('',(0.951056516295,-0.309016994375,-1.4E-16));
#1141 = DIRECTION('',(0.309016994375,0.951056516295,3.2E-16));
#1142 = ADVANCED_FACE('',(#1143),#1161,.T.);
#1143 = FACE_BOUND('',#1144,.T.);
#1144 = EDGE_LOOP('',(#1145,#1153,#1159,#1160));
#1145 = ORIENTED_EDGE('',*,*,#1146,.T.);
#1146 = EDGE_CURVE('',#1125,#1147,#1149,.T.);
#1147 = VERTEX_POINT('',#1148);
#1148 = CARTESIAN_POINT('',(-3.36138907242,-7.109223832727,-8.));
#1149 = LINE('',#1150,#1151);
#1150 = CARTESIAN_POINT('',(-1.459276039829,-7.727257821477,-8.));
#1151 = VECTOR('',#1152,1.);
#1152 = DIRECTION('',(-0.951056516295,0.309016994375,7.E-17));
#1153 = ORIENTED_EDGE('',*,*,#1154,.T.);
#1154 = EDGE_CURVE('',#1147,#117,#1155,.T.);
#1155 = LINE('',#1156,#1157);
#1156 = CARTESIAN_POINT('',(-3.36138907242,-7.109223832727,-8.));
#1157 = VECTOR('',#1158,1.);
#1158 = DIRECTION('',(-0.309016994375,-0.951056516295,-2.2E-16));
#1159 = ORIENTED_EDGE('',*,*,#124,.T.);
#1160 = ORIENTED_EDGE('',*,*,#1124,.T.);
#1161 = PLANE('',#1162);
#1162 = AXIS2_PLACEMENT_3D('',#1163,#1164,#1165);
#1163 = CARTESIAN_POINT('',(-3.028366544874,-9.320353859693,-8.));
#1164 = DIRECTION('',(1.409782621828E-18,-2.308636231912E-16,1.));
#1165 = DIRECTION('',(0.309016994375,0.951056516295,2.19128706423E-16));
#1166 = ADVANCED_FACE('',(#1167),#1178,.F.);
#1167 = FACE_BOUND('',#1168,.F.);
#1168 = EDGE_LOOP('',(#1169,#1170,#1176,#1177));
#1169 = ORIENTED_EDGE('',*,*,#612,.F.);
#1170 = ORIENTED_EDGE('',*,*,#1171,.T.);
#1171 = EDGE_CURVE('',#605,#1147,#1172,.T.);
#1172 = LINE('',#1173,#1174);
#1173 = CARTESIAN_POINT('',(-3.36138907242,-7.109223832727,-2.36E-15));
#1174 = VECTOR('',#1175,1.);
#1175 = DIRECTION('',(-3.849182194682E-17,3.449904051466E-16,-1.));
#1176 = ORIENTED_EDGE('',*,*,#1154,.T.);
#1177 = ORIENTED_EDGE('',*,*,#116,.T.);
#1178 = PLANE('',#1179);
#1179 = AXIS2_PLACEMENT_3D('',#1180,#1181,#1182);
#1180 = CARTESIAN_POINT('',(-3.36138907242,-7.109223832727,-2.36E-15));
#1181 = DIRECTION('',(-0.951056516295,0.309016994375,1.4E-16));
#1182 = DIRECTION('',(-0.309016994375,-0.951056516295,-3.2E-16));
#1183 = ADVANCED_FACE('',(#1184),#1202,.F.);
#1184 = FACE_BOUND('',#1185,.F.);
#1185 = EDGE_LOOP('',(#1186,#1187,#1188,#1196));
#1186 = ORIENTED_EDGE('',*,*,#619,.F.);
#1187 = ORIENTED_EDGE('',*,*,#99,.F.);
#1188 = ORIENTED_EDGE('',*,*,#1189,.T.);
#1189 = EDGE_CURVE('',#91,#1190,#1192,.T.);
#1190 = VERTEX_POINT('',#1191);
#1191 = CARTESIAN_POINT('',(-5.722547303832,-5.393741962256,-8.));
#1192 = LINE('',#1193,#1194);
#1193 = CARTESIAN_POINT('',(-8.958615281332,-7.744882971426,-8.));
#1194 = VECTOR('',#1195,1.);
#1195 = DIRECTION('',(0.809016994375,0.587785252292,8.E-17));
#1196 = ORIENTED_EDGE('',*,*,#1197,.F.);
#1197 = EDGE_CURVE('',#620,#1190,#1198,.T.);
#1198 = LINE('',#1199,#1200);
#1199 = CARTESIAN_POINT('',(-5.722547303832,-5.393741962256,-6.E-16));
#1200 = VECTOR('',#1201,1.);
#1201 = DIRECTION('',(-9.935933854364E-17,2.205169423064E-16,-1.));
#1202 = PLANE('',#1203);
#1203 = AXIS2_PLACEMENT_3D('',#1204,#1205,#1206);
#1204 = CARTESIAN_POINT('',(-8.958615281332,-7.744882971426,-7.8E-16));
#1205 = DIRECTION('',(0.587785252292,-0.809016994375,-2.3E-16));
#1206 = DIRECTION('',(0.809016994375,0.587785252292,5.E-17));
#1207 = ADVANCED_FACE('',(#1208),#1226,.T.);
#1208 = FACE_BOUND('',#1209,.T.);
#1209 = EDGE_LOOP('',(#1210,#1218,#1224,#1225));
#1210 = ORIENTED_EDGE('',*,*,#1211,.T.);
#1211 = EDGE_CURVE('',#1190,#1212,#1214,.T.);
#1212 = VERTEX_POINT('',#1213);
#1213 = CARTESIAN_POINT('',(-6.898117808417,-3.775707973506,-8.));
#1214 = LINE('',#1215,#1216);
#1215 = CARTESIAN_POINT('',(-5.722547303832,-5.393741962256,-8.));
#1216 = VECTOR('',#1217,1.);
#1217 = DIRECTION('',(-0.587785252292,0.809016994375,1.2E-16));
#1218 = ORIENTED_EDGE('',*,*,#1219,.T.);
#1219 = EDGE_CURVE('',#1212,#83,#1220,.T.);
#1220 = LINE('',#1221,#1222);
#1221 = CARTESIAN_POINT('',(-6.898117808417,-3.775707973506,-8.));
#1222 = VECTOR('',#1223,1.);
#1223 = DIRECTION('',(-0.809016994375,-0.587785252292,-8.E-17));
#1224 = ORIENTED_EDGE('',*,*,#90,.T.);
#1225 = ORIENTED_EDGE('',*,*,#1189,.T.);
#1226 = PLANE('',#1227);
#1227 = AXIS2_PLACEMENT_3D('',#1228,#1229,#1230);
#1228 = CARTESIAN_POINT('',(-7.928366544874,-5.760295472466,-8.));
#1229 = DIRECTION('',(-5.812870725101E-18,-1.441048595084E-16,1.));
#1230 = DIRECTION('',(0.809016994375,0.587785252292,8.940542240542E-17)
  );
#1231 = ADVANCED_FACE('',(#1232),#1243,.F.);
#1232 = FACE_BOUND('',#1233,.F.);
#1233 = EDGE_LOOP('',(#1234,#1235,#1241,#1242));
#1234 = ORIENTED_EDGE('',*,*,#635,.F.);
#1235 = ORIENTED_EDGE('',*,*,#1236,.T.);
#1236 = EDGE_CURVE('',#628,#1212,#1237,.T.);
#1237 = LINE('',#1238,#1239);
#1238 = CARTESIAN_POINT('',(-6.898117808417,-3.775707973506,-1.3E-16));
#1239 = VECTOR('',#1240,1.);
#1240 = DIRECTION('',(-9.935933854364E-17,2.205169423064E-16,-1.));
#1241 = ORIENTED_EDGE('',*,*,#1219,.T.);
#1242 = ORIENTED_EDGE('',*,*,#82,.T.);
#1243 = PLANE('',#1244);
#1244 = AXIS2_PLACEMENT_3D('',#1245,#1246,#1247);
#1245 = CARTESIAN_POINT('',(-6.898117808417,-3.775707973506,-1.3E-16));
#1246 = DIRECTION('',(-0.587785252292,0.809016994375,2.3E-16));
#1247 = DIRECTION('',(-0.809016994375,-0.587785252292,-5.E-17));
#1248 = ADVANCED_FACE('',(#1249),#1267,.F.);
#1249 = FACE_BOUND('',#1250,.F.);
#1250 = EDGE_LOOP('',(#1251,#1252,#1253,#1261));
#1251 = ORIENTED_EDGE('',*,*,#642,.F.);
#1252 = ORIENTED_EDGE('',*,*,#65,.F.);
#1253 = ORIENTED_EDGE('',*,*,#1254,.T.);
#1254 = EDGE_CURVE('',#57,#1255,#1257,.T.);
#1255 = VERTEX_POINT('',#1256);
#1256 = CARTESIAN_POINT('',(-7.8,-1.,-8.));
#1257 = LINE('',#1258,#1259);
#1258 = CARTESIAN_POINT('',(-11.8,-1.,-8.));
#1259 = VECTOR('',#1260,1.);
#1260 = DIRECTION('',(1.,0.,0.));
#1261 = ORIENTED_EDGE('',*,*,#1262,.F.);
#1262 = EDGE_CURVE('',#426,#1255,#1263,.T.);
#1263 = LINE('',#1264,#1265);
#1264 = CARTESIAN_POINT('',(-7.8,-1.,9.6E-16));
#1265 = VECTOR('',#1266,1.);
#1266 = DIRECTION('',(-1.2E-16,0.,-1.));
#1267 = PLANE('',#1268);
#1268 = AXIS2_PLACEMENT_3D('',#1269,#1270,#1271);
#1269 = CARTESIAN_POINT('',(-11.8,-1.,1.45E-15));
#1270 = DIRECTION('',(0.,-1.,0.));
#1271 = DIRECTION('',(1.,0.,-1.2E-16));
#1272 = ADVANCED_FACE('',(#1273),#1285,.T.);
#1273 = FACE_BOUND('',#1274,.T.);
#1274 = EDGE_LOOP('',(#1275,#1281,#1282,#1283,#1284));
#1275 = ORIENTED_EDGE('',*,*,#1276,.T.);
#1276 = EDGE_CURVE('',#1255,#403,#1277,.T.);
#1277 = LINE('',#1278,#1279);
#1278 = CARTESIAN_POINT('',(-7.8,-1.,-8.));
#1279 = VECTOR('',#1280,1.);
#1280 = DIRECTION('',(0.,1.,0.));
#1281 = ORIENTED_EDGE('',*,*,#410,.T.);
#1282 = ORIENTED_EDGE('',*,*,#31,.T.);
#1283 = ORIENTED_EDGE('',*,*,#56,.T.);
#1284 = ORIENTED_EDGE('',*,*,#1254,.T.);
#1285 = PLANE('',#1286);
#1286 = AXIS2_PLACEMENT_3D('',#1287,#1288,#1289);
#1287 = CARTESIAN_POINT('',(-9.8,-1.E-16,-8.));
#1288 = DIRECTION('',(0.,0.,1.));
#1289 = DIRECTION('',(1.,0.,0.));
#1290 = ADVANCED_FACE('',(#1291,#1359),#1362,.F.);
#1291 = FACE_BOUND('',#1292,.F.);
#1292 = EDGE_LOOP('',(#1293,#1303,#1311,#1320,#1328,#1336,#1344,#1353));
#1293 = ORIENTED_EDGE('',*,*,#1294,.T.);
#1294 = EDGE_CURVE('',#1295,#1297,#1299,.T.);
#1295 = VERTEX_POINT('',#1296);
#1296 = CARTESIAN_POINT('',(-43.,-2.5,-30.));
#1297 = VERTEX_POINT('',#1298);
#1298 = CARTESIAN_POINT('',(-43.,2.5,-30.));
#1299 = LINE('',#1300,#1301);
#1300 = CARTESIAN_POINT('',(-43.,-2.5,-30.));
#1301 = VECTOR('',#1302,1.);
#1302 = DIRECTION('',(0.,1.,0.));
#1303 = ORIENTED_EDGE('',*,*,#1304,.T.);
#1304 = EDGE_CURVE('',#1297,#1305,#1307,.T.);
#1305 = VERTEX_POINT('',#1306);
#1306 = CARTESIAN_POINT('',(-49.93746088859,2.500000000001,-30.));
#1307 = LINE('',#1308,#1309);
#1308 = CARTESIAN_POINT('',(-43.,2.5,-30.));
#1309 = VECTOR('',#1310,1.);
#1310 = DIRECTION('',(-1.,0.,0.));
#1311 = ORIENTED_EDGE('',*,*,#1312,.T.);
#1312 = EDGE_CURVE('',#1305,#1313,#1315,.T.);
#1313 = VERTEX_POINT('',#1314);
#1314 = CARTESIAN_POINT('',(49.937460888595,2.499999999999,-30.));
#1315 = CIRCLE('',#1316,50.);
#1316 = AXIS2_PLACEMENT_3D('',#1317,#1318,#1319);
#1317 = CARTESIAN_POINT('',(7.35E-15,0.,-30.));
#1318 = DIRECTION('',(0.,0.,-1.));
#1319 = DIRECTION('',(-1.,0.,0.));
#1320 = ORIENTED_EDGE('',*,*,#1321,.T.);
#1321 = EDGE_CURVE('',#1313,#1322,#1324,.T.);
#1322 = VERTEX_POINT('',#1323);
#1323 = CARTESIAN_POINT('',(43.000000000002,2.5,-30.));
#1324 = LINE('',#1325,#1326);
#1325 = CARTESIAN_POINT('',(50.000000000002,2.5,-30.));
#1326 = VECTOR('',#1327,1.);
#1327 = DIRECTION('',(-1.,2.4E-16,0.));
#1328 = ORIENTED_EDGE('',*,*,#1329,.T.);
#1329 = EDGE_CURVE('',#1322,#1330,#1332,.T.);
#1330 = VERTEX_POINT('',#1331);
#1331 = CARTESIAN_POINT('',(43.000000000002,-2.5,-30.));
#1332 = LINE('',#1333,#1334);
#1333 = CARTESIAN_POINT('',(43.000000000002,2.5,-30.));
#1334 = VECTOR('',#1335,1.);
#1335 = DIRECTION('',(-2.4E-16,-1.,0.));
#1336 = ORIENTED_EDGE('',*,*,#1337,.T.);
#1337 = EDGE_CURVE('',#1330,#1338,#1340,.T.);
#1338 = VERTEX_POINT('',#1339);
#1339 = CARTESIAN_POINT('',(49.937460888595,-2.499999999999,-30.));
#1340 = LINE('',#1341,#1342);
#1341 = CARTESIAN_POINT('',(43.000000000002,-2.5,-30.));
#1342 = VECTOR('',#1343,1.);
#1343 = DIRECTION('',(1.,-2.4E-16,-0.));
#1344 = ORIENTED_EDGE('',*,*,#1345,.T.);
#1345 = EDGE_CURVE('',#1338,#1346,#1348,.T.);
#1346 = VERTEX_POINT('',#1347);
#1347 = CARTESIAN_POINT('',(-49.93746088859,-2.500000000001,-30.));
#1348 = CIRCLE('',#1349,50.);
#1349 = AXIS2_PLACEMENT_3D('',#1350,#1351,#1352);
#1350 = CARTESIAN_POINT('',(7.35E-15,0.,-30.));
#1351 = DIRECTION('',(0.,0.,-1.));
#1352 = DIRECTION('',(-1.,0.,0.));
#1353 = ORIENTED_EDGE('',*,*,#1354,.T.);
#1354 = EDGE_CURVE('',#1346,#1295,#1355,.T.);
#1355 = LINE('',#1356,#1357);
#1356 = CARTESIAN_POINT('',(-50.,-2.5,-30.));
#1357 = VECTOR('',#1358,1.);
#1358 = DIRECTION('',(1.,0.,0.));
#1359 = FACE_BOUND('',#1360,.F.);
#1360 = EDGE_LOOP('',(#1361));
#1361 = ORIENTED_EDGE('',*,*,#48,.F.);
#1362 = PLANE('',#1363);
#1363 = AXIS2_PLACEMENT_3D('',#1364,#1365,#1366);
#1364 = CARTESIAN_POINT('',(7.35E-15,0.,-30.));
#1365 = DIRECTION('',(0.,0.,-1.));
#1366 = DIRECTION('',(-1.,0.,0.));
#1367 = ADVANCED_FACE('',(#1368),#1374,.F.);
#1368 = FACE_BOUND('',#1369,.F.);
#1369 = EDGE_LOOP('',(#1370,#1371,#1372,#1373));
#1370 = ORIENTED_EDGE('',*,*,#1262,.T.);
#1371 = ORIENTED_EDGE('',*,*,#1276,.T.);
#1372 = ORIENTED_EDGE('',*,*,#402,.F.);
#1373 = ORIENTED_EDGE('',*,*,#425,.F.);
#1374 = PLANE('',#1375);
#1375 = AXIS2_PLACEMENT_3D('',#1376,#1377,#1378);
#1376 = CARTESIAN_POINT('',(-7.8,-1.,9.6E-16));
#1377 = DIRECTION('',(1.,0.,-1.2E-16));
#1378 = DIRECTION('',(0.,1.,0.));
#1379 = ADVANCED_FACE('',(#1380),#1386,.F.);
#1380 = FACE_BOUND('',#1381,.F.);
#1381 = EDGE_LOOP('',(#1382,#1383,#1384,#1385));
#1382 = ORIENTED_EDGE('',*,*,#1197,.T.);
#1383 = ORIENTED_EDGE('',*,*,#1211,.T.);
#1384 = ORIENTED_EDGE('',*,*,#1236,.F.);
#1385 = ORIENTED_EDGE('',*,*,#627,.F.);
#1386 = PLANE('',#1387);
#1387 = AXIS2_PLACEMENT_3D('',#1388,#1389,#1390);
#1388 = CARTESIAN_POINT('',(-5.722547303832,-5.393741962256,-6.E-16));
#1389 = DIRECTION('',(0.809016994375,0.587785252292,5.E-17));
#1390 = DIRECTION('',(-0.587785252292,0.809016994375,2.3E-16));
#1391 = ADVANCED_FACE('',(#1392),#1398,.F.);
#1392 = FACE_BOUND('',#1393,.F.);
#1393 = EDGE_LOOP('',(#1394,#1395,#1396,#1397));
#1394 = ORIENTED_EDGE('',*,*,#1132,.T.);
#1395 = ORIENTED_EDGE('',*,*,#1146,.T.);
#1396 = ORIENTED_EDGE('',*,*,#1171,.F.);
#1397 = ORIENTED_EDGE('',*,*,#604,.F.);
#1398 = PLANE('',#1399);
#1399 = AXIS2_PLACEMENT_3D('',#1400,#1401,#1402);
#1400 = CARTESIAN_POINT('',(-1.459276039829,-7.727257821477,-2.64E-15));
#1401 = DIRECTION('',(0.309016994375,0.951056516295,3.2E-16));
#1402 = DIRECTION('',(-0.951056516295,0.309016994375,1.4E-16));
#1403 = ADVANCED_FACE('',(#1404),#1410,.F.);
#1404 = FACE_BOUND('',#1405,.F.);
#1405 = EDGE_LOOP('',(#1406,#1407,#1408,#1409));
#1406 = ORIENTED_EDGE('',*,*,#1067,.T.);
#1407 = ORIENTED_EDGE('',*,*,#1081,.T.);
#1408 = ORIENTED_EDGE('',*,*,#1106,.F.);
#1409 = ORIENTED_EDGE('',*,*,#581,.F.);
#1410 = PLANE('',#1411);
#1411 = AXIS2_PLACEMENT_3D('',#1412,#1413,#1414);
#1412 = CARTESIAN_POINT('',(3.36138907242,-7.109223832727,-2.36E-15));
#1413 = DIRECTION('',(-0.309016994375,0.951056516295,3.2E-16));
#1414 = DIRECTION('',(-0.951056516295,-0.309016994375,-1.4E-16));
#1415 = ADVANCED_FACE('',(#1416),#1422,.F.);
#1416 = FACE_BOUND('',#1417,.F.);
#1417 = EDGE_LOOP('',(#1418,#1419,#1420,#1421));
#1418 = ORIENTED_EDGE('',*,*,#1002,.T.);
#1419 = ORIENTED_EDGE('',*,*,#1016,.T.);
#1420 = ORIENTED_EDGE('',*,*,#1041,.F.);
#1421 = ORIENTED_EDGE('',*,*,#558,.F.);
#1422 = PLANE('',#1423);
#1423 = AXIS2_PLACEMENT_3D('',#1424,#1425,#1426);
#1424 = CARTESIAN_POINT('',(6.898117808417,-3.775707973506,-1.3E-16));
#1425 = DIRECTION('',(-0.809016994375,0.587785252292,5.E-17));
#1426 = DIRECTION('',(-0.587785252292,-0.809016994375,-2.3E-16));
#1427 = ADVANCED_FACE('',(#1428),#1434,.F.);
#1428 = FACE_BOUND('',#1429,.F.);
#1429 = EDGE_LOOP('',(#1430,#1431,#1432,#1433));
#1430 = ORIENTED_EDGE('',*,*,#937,.T.);
#1431 = ORIENTED_EDGE('',*,*,#951,.T.);
#1432 = ORIENTED_EDGE('',*,*,#976,.F.);
#1433 = ORIENTED_EDGE('',*,*,#535,.F.);
#1434 = PLANE('',#1435);
#1435 = AXIS2_PLACEMENT_3D('',#1436,#1437,#1438);
#1436 = CARTESIAN_POINT('',(7.8,1.,9.6E-16));
#1437 = DIRECTION('',(-1.,2.4E-16,-1.2E-16));
#1438 = DIRECTION('',(-2.4E-16,-1.,0.));
#1439 = ADVANCED_FACE('',(#1440),#1446,.F.);
#1440 = FACE_BOUND('',#1441,.F.);
#1441 = EDGE_LOOP('',(#1442,#1443,#1444,#1445));
#1442 = ORIENTED_EDGE('',*,*,#872,.T.);
#1443 = ORIENTED_EDGE('',*,*,#886,.T.);
#1444 = ORIENTED_EDGE('',*,*,#911,.F.);
#1445 = ORIENTED_EDGE('',*,*,#512,.F.);
#1446 = PLANE('',#1447);
#1447 = AXIS2_PLACEMENT_3D('',#1448,#1449,#1450);
#1448 = CARTESIAN_POINT('',(5.722547303832,5.393741962256,-6.E-16));
#1449 = DIRECTION('',(-0.809016994375,-0.587785252292,5.E-17));
#1450 = DIRECTION('',(0.587785252292,-0.809016994375,2.3E-16));
#1451 = ADVANCED_FACE('',(#1452),#1458,.F.);
#1452 = FACE_BOUND('',#1453,.F.);
#1453 = EDGE_LOOP('',(#1454,#1455,#1456,#1457));
#1454 = ORIENTED_EDGE('',*,*,#807,.T.);
#1455 = ORIENTED_EDGE('',*,*,#821,.T.);
#1456 = ORIENTED_EDGE('',*,*,#846,.F.);
#1457 = ORIENTED_EDGE('',*,*,#489,.F.);
#1458 = PLANE('',#1459);
#1459 = AXIS2_PLACEMENT_3D('',#1460,#1461,#1462);
#1460 = CARTESIAN_POINT('',(1.459276039829,7.727257821477,-2.64E-15));
#1461 = DIRECTION('',(-0.309016994375,-0.951056516295,3.2E-16));
#1462 = DIRECTION('',(0.951056516295,-0.309016994375,1.4E-16));
#1463 = ADVANCED_FACE('',(#1464),#1470,.F.);
#1464 = FACE_BOUND('',#1465,.F.);
#1465 = EDGE_LOOP('',(#1466,#1467,#1468,#1469));
#1466 = ORIENTED_EDGE('',*,*,#742,.T.);
#1467 = ORIENTED_EDGE('',*,*,#756,.T.);
#1468 = ORIENTED_EDGE('',*,*,#781,.F.);
#1469 = ORIENTED_EDGE('',*,*,#466,.F.);
#1470 = PLANE('',#1471);
#1471 = AXIS2_PLACEMENT_3D('',#1472,#1473,#1474);
#1472 = CARTESIAN_POINT('',(-3.36138907242,7.109223832727,-2.36E-15));
#1473 = DIRECTION('',(0.309016994375,-0.951056516295,3.2E-16));
#1474 = DIRECTION('',(0.951056516295,0.309016994375,-1.4E-16));
#1475 = ADVANCED_FACE('',(#1476),#1482,.F.);
#1476 = FACE_BOUND('',#1477,.F.);
#1477 = EDGE_LOOP('',(#1478,#1479,#1480,#1481));
#1478 = ORIENTED_EDGE('',*,*,#677,.T.);
#1479 = ORIENTED_EDGE('',*,*,#691,.T.);
#1480 = ORIENTED_EDGE('',*,*,#716,.F.);
#1481 = ORIENTED_EDGE('',*,*,#443,.F.);
#1482 = PLANE('',#1483);
#1483 = AXIS2_PLACEMENT_3D('',#1484,#1485,#1486);
#1484 = CARTESIAN_POINT('',(-6.898117808417,3.775707973506,-1.3E-16));
#1485 = DIRECTION('',(0.809016994375,-0.587785252292,5.E-17));
#1486 = DIRECTION('',(0.587785252292,0.809016994375,-2.3E-16));
#1487 = ADVANCED_FACE('',(#1488),#1507,.F.);
#1488 = FACE_BOUND('',#1489,.T.);
#1489 = EDGE_LOOP('',(#1490,#1491,#1499,#1506));
#1490 = ORIENTED_EDGE('',*,*,#650,.F.);
#1491 = ORIENTED_EDGE('',*,*,#1492,.T.);
#1492 = EDGE_CURVE('',#651,#1493,#1495,.T.);
#1493 = VERTEX_POINT('',#1494);
#1494 = CARTESIAN_POINT('',(-4.,-1.E-15,-37.));
#1495 = LINE('',#1496,#1497);
#1496 = CARTESIAN_POINT('',(-4.,-9.8E-16,0.));
#1497 = VECTOR('',#1498,1.);
#1498 = DIRECTION('',(0.,0.,-1.));
#1499 = ORIENTED_EDGE('',*,*,#1500,.F.);
#1500 = EDGE_CURVE('',#1493,#1493,#1501,.T.);
#1501 = CIRCLE('',#1502,4.);
#1502 = AXIS2_PLACEMENT_3D('',#1503,#1504,#1505);
#1503 = CARTESIAN_POINT('',(0.,0.,-37.));
#1504 = DIRECTION('',(0.,0.,1.));
#1505 = DIRECTION('',(-1.,0.,0.));
#1506 = ORIENTED_EDGE('',*,*,#1492,.F.);
#1507 = CYLINDRICAL_SURFACE('',#1508,4.);
#1508 = AXIS2_PLACEMENT_3D('',#1509,#1510,#1511);
#1509 = CARTESIAN_POINT('',(0.,0.,0.));
#1510 = DIRECTION('',(0.,0.,1.));
#1511 = DIRECTION('',(-1.,0.,0.));
#1512 = ADVANCED_FACE('',(#1513),#1538,.F.);
#1513 = FACE_BOUND('',#1514,.F.);
#1514 = EDGE_LOOP('',(#1515,#1523,#1531,#1537));
#1515 = ORIENTED_EDGE('',*,*,#1516,.T.);
#1516 = EDGE_CURVE('',#1295,#1517,#1519,.T.);
#1517 = VERTEX_POINT('',#1518);
#1518 = CARTESIAN_POINT('',(-43.,-2.5,-36.));
#1519 = LINE('',#1520,#1521);
#1520 = CARTESIAN_POINT('',(-43.,-2.5,-30.));
#1521 = VECTOR('',#1522,1.);
#1522 = DIRECTION('',(-1.2E-16,0.,-1.));
#1523 = ORIENTED_EDGE('',*,*,#1524,.T.);
#1524 = EDGE_CURVE('',#1517,#1525,#1527,.T.);
#1525 = VERTEX_POINT('',#1526);
#1526 = CARTESIAN_POINT('',(-43.,2.5,-36.));
#1527 = LINE('',#1528,#1529);
#1528 = CARTESIAN_POINT('',(-43.,-2.5,-36.));
#1529 = VECTOR('',#1530,1.);
#1530 = DIRECTION('',(0.,1.,0.));
#1531 = ORIENTED_EDGE('',*,*,#1532,.F.);
#1532 = EDGE_CURVE('',#1297,#1525,#1533,.T.);
#1533 = LINE('',#1534,#1535);
#1534 = CARTESIAN_POINT('',(-43.,2.5,-30.));
#1535 = VECTOR('',#1536,1.);
#1536 = DIRECTION('',(-1.2E-16,0.,-1.));
#1537 = ORIENTED_EDGE('',*,*,#1294,.F.);
#1538 = PLANE('',#1539);
#1539 = AXIS2_PLACEMENT_3D('',#1540,#1541,#1542);
#1540 = CARTESIAN_POINT('',(-43.,-2.5,-30.));
#1541 = DIRECTION('',(1.,0.,-1.2E-16));
#1542 = DIRECTION('',(0.,1.,0.));
#1543 = ADVANCED_FACE('',(#1544),#1576,.F.);
#1544 = FACE_BOUND('',#1545,.F.);
#1545 = EDGE_LOOP('',(#1546,#1547,#1569,#1575));
#1546 = ORIENTED_EDGE('',*,*,#1354,.F.);
#1547 = ORIENTED_EDGE('',*,*,#1548,.F.);
#1548 = EDGE_CURVE('',#1549,#1346,#1551,.T.);
#1549 = VERTEX_POINT('',#1550);
#1550 = CARTESIAN_POINT('',(-49.35576587122,-2.5,-36.));
#1551 = B_SPLINE_CURVE_WITH_KNOTS('',6,(#1552,#1553,#1554,#1555,#1556,
    #1557,#1558,#1559,#1560,#1561,#1562,#1563,#1564,#1565,#1566,#1567,
    #1568),.UNSPECIFIED.,.F.,.F.,(7,5,5,7),(0.,0.467591045279,
    0.735646063397,1.),.UNSPECIFIED.);
#1552 = CARTESIAN_POINT('',(-49.67340621813,-2.5,-36.6));
#1553 = CARTESIAN_POINT('',(-49.39147475229,-2.5,-36.13339201464));
#1554 = CARTESIAN_POINT('',(-49.16036832557,-2.5,-35.63593815661));
#1555 = CARTESIAN_POINT('',(-48.98447828546,-2.5,-35.11476351942));
#1556 = CARTESIAN_POINT('',(-48.86656761895,-2.5,-34.57749328259));
#1557 = CARTESIAN_POINT('',(-48.80823888913,-2.5,-34.03208365738));
#1558 = CARTESIAN_POINT('',(-48.81011101618,-2.5,-33.17439604059));
#1559 = CARTESIAN_POINT('',(-48.83035371103,-2.5,-32.86190711169));
#1560 = CARTESIAN_POINT('',(-48.87015260578,-2.5,-32.55099927649));
#1561 = CARTESIAN_POINT('',(-48.92934368437,-2.5,-32.24319407417));
#1562 = CARTESIAN_POINT('',(-49.00760395606,-2.5,-31.93998700674));
#1563 = CARTESIAN_POINT('',(-49.19996318072,-2.5,-31.34980650872));
#1564 = CARTESIAN_POINT('',(-49.31355648653,-2.5,-31.06265405377));
#1565 = CARTESIAN_POINT('',(-49.44476904511,-2.5,-30.78279424885));
#1566 = CARTESIAN_POINT('',(-49.59300176881,-2.5,-30.5115650134));
#1567 = CARTESIAN_POINT('',(-49.75752115009,-2.5,-30.2502345656));
#1568 = CARTESIAN_POINT('',(-49.93746088859,-2.5,-30.));
#1569 = ORIENTED_EDGE('',*,*,#1570,.T.);
#1570 = EDGE_CURVE('',#1549,#1517,#1571,.T.);
#1571 = LINE('',#1572,#1573);
#1572 = CARTESIAN_POINT('',(-50.,-2.5,-36.));
#1573 = VECTOR('',#1574,1.);
#1574 = DIRECTION('',(1.,0.,0.));
#1575 = ORIENTED_EDGE('',*,*,#1516,.F.);
#1576 = PLANE('',#1577);
#1577 = AXIS2_PLACEMENT_3D('',#1578,#1579,#1580);
#1578 = CARTESIAN_POINT('',(-50.,-2.5,-30.));
#1579 = DIRECTION('',(0.,-1.,0.));
#1580 = DIRECTION('',(1.,0.,-1.2E-16));
#1581 = ADVANCED_FACE('',(#1582),#1693,.F.);
#1582 = FACE_BOUND('',#1583,.F.);
#1583 = EDGE_LOOP('',(#1584,#1595,#1604,#1611,#1612,#1619,#1620,#1621,
    #1643,#1652,#1672,#1673));
#1584 = ORIENTED_EDGE('',*,*,#1585,.F.);
#1585 = EDGE_CURVE('',#1586,#1588,#1590,.T.);
#1586 = VERTEX_POINT('',#1587);
#1587 = CARTESIAN_POINT('',(-49.41904111508,-1.4E-14,-36.));
#1588 = VERTEX_POINT('',#1589);
#1589 = CARTESIAN_POINT('',(-49.35576587122,2.5,-36.));
#1590 = CIRCLE('',#1591,49.419041115088);
#1591 = AXIS2_PLACEMENT_3D('',#1592,#1593,#1594);
#1592 = CARTESIAN_POINT('',(-1.266E-14,-3.72E-15,-36.));
#1593 = DIRECTION('',(-4.8E-16,-1.1E-16,-1.));
#1594 = DIRECTION('',(-1.,-1.7E-16,4.8E-16));
#1595 = ORIENTED_EDGE('',*,*,#1596,.F.);
#1596 = EDGE_CURVE('',#1597,#1586,#1599,.T.);
#1597 = VERTEX_POINT('',#1598);
#1598 = CARTESIAN_POINT('',(-50.,-1.3E-14,-37.));
#1599 = CIRCLE('',#1600,6.);
#1600 = AXIS2_PLACEMENT_3D('',#1601,#1602,#1603);
#1601 = CARTESIAN_POINT('',(-54.8733971724,-2.688E-14,-33.49999999999));
#1602 = DIRECTION('',(0.,-1.,4.4E-16));
#1603 = DIRECTION('',(1.,0.,0.));
#1604 = ORIENTED_EDGE('',*,*,#1605,.T.);
#1605 = EDGE_CURVE('',#1597,#1597,#1606,.T.);
#1606 = CIRCLE('',#1607,50.);
#1607 = AXIS2_PLACEMENT_3D('',#1608,#1609,#1610);
#1608 = CARTESIAN_POINT('',(7.35E-15,0.,-37.));
#1609 = DIRECTION('',(0.,0.,-1.));
#1610 = DIRECTION('',(-1.,0.,0.));
#1611 = ORIENTED_EDGE('',*,*,#1596,.T.);
#1612 = ORIENTED_EDGE('',*,*,#1613,.F.);
#1613 = EDGE_CURVE('',#1549,#1586,#1614,.T.);
#1614 = CIRCLE('',#1615,49.419041115088);
#1615 = AXIS2_PLACEMENT_3D('',#1616,#1617,#1618);
#1616 = CARTESIAN_POINT('',(-1.266E-14,-3.72E-15,-36.));
#1617 = DIRECTION('',(-4.8E-16,-1.1E-16,-1.));
#1618 = DIRECTION('',(-1.,-1.7E-16,4.8E-16));
#1619 = ORIENTED_EDGE('',*,*,#1548,.T.);
#1620 = ORIENTED_EDGE('',*,*,#1345,.F.);
#1621 = ORIENTED_EDGE('',*,*,#1622,.F.);
#1622 = EDGE_CURVE('',#1623,#1338,#1625,.T.);
#1623 = VERTEX_POINT('',#1624);
#1624 = CARTESIAN_POINT('',(49.355765871221,-2.5,-36.));
#1625 = B_SPLINE_CURVE_WITH_KNOTS('',6,(#1626,#1627,#1628,#1629,#1630,
    #1631,#1632,#1633,#1634,#1635,#1636,#1637,#1638,#1639,#1640,#1641,
    #1642),.UNSPECIFIED.,.F.,.F.,(7,5,5,7),(0.,0.465721644822,
    0.735646187983,1.),.UNSPECIFIED.);
#1626 = CARTESIAN_POINT('',(49.673406218132,-2.5,-36.6));
#1627 = CARTESIAN_POINT('',(49.392601756503,-2.5,-36.1352572522));
#1628 = CARTESIAN_POINT('',(49.162217522061,-2.5,-35.63991594486));
#1629 = CARTESIAN_POINT('',(48.986590858043,-2.5,-35.12101450197));
#1630 = CARTESIAN_POINT('',(48.868458751957,-2.5,-34.5860844812));
#1631 = CARTESIAN_POINT('',(48.809414573104,-2.5,-34.04298504579));
#1632 = CARTESIAN_POINT('',(48.809414576382,-2.5,-33.18529483458));
#1633 = CARTESIAN_POINT('',(48.829248969352,-2.5,-32.87058239636));
#1634 = CARTESIAN_POINT('',(48.868916789631,-2.5,-32.55744089179));
#1635 = CARTESIAN_POINT('',(48.928252844852,-2.5,-32.24742418112));
#1636 = CARTESIAN_POINT('',(49.006928450899,-2.5,-31.94205953537));
#1637 = CARTESIAN_POINT('',(49.199963180468,-2.5,-31.34980650937));
#1638 = CARTESIAN_POINT('',(49.313556486299,-2.5,-31.06265405428));
#1639 = CARTESIAN_POINT('',(49.444769044909,-2.5,-30.78279424922));
#1640 = CARTESIAN_POINT('',(49.593001768661,-2.5,-30.51156501364));
#1641 = CARTESIAN_POINT('',(49.757521150011,-2.5,-30.25023456571));
#1642 = CARTESIAN_POINT('',(49.937460888596,-2.5,-30.));
#1643 = ORIENTED_EDGE('',*,*,#1644,.F.);
#1644 = EDGE_CURVE('',#1645,#1623,#1647,.T.);
#1645 = VERTEX_POINT('',#1646);
#1646 = CARTESIAN_POINT('',(49.355765871221,2.5,-36.));
#1647 = CIRCLE('',#1648,49.419041115088);
#1648 = AXIS2_PLACEMENT_3D('',#1649,#1650,#1651);
#1649 = CARTESIAN_POINT('',(-1.297E-14,-3.72E-15,-36.));
#1650 = DIRECTION('',(-4.8E-16,-1.1E-16,-1.));
#1651 = DIRECTION('',(-1.,-1.7E-16,4.8E-16));
#1652 = ORIENTED_EDGE('',*,*,#1653,.T.);
#1653 = EDGE_CURVE('',#1645,#1313,#1654,.T.);
#1654 = B_SPLINE_CURVE_WITH_KNOTS('',6,(#1655,#1656,#1657,#1658,#1659,
    #1660,#1661,#1662,#1663,#1664,#1665,#1666,#1667,#1668,#1669,#1670,
    #1671),.UNSPECIFIED.,.F.,.F.,(7,5,5,7),(0.,0.465721643685,
    0.734577686532,1.),.UNSPECIFIED.);
#1655 = CARTESIAN_POINT('',(49.673406218132,2.5,-36.6));
#1656 = CARTESIAN_POINT('',(49.392601756503,2.5,-36.1352572522));
#1657 = CARTESIAN_POINT('',(49.162217522061,2.5,-35.63991594486));
#1658 = CARTESIAN_POINT('',(48.986590858043,2.5,-35.12101450197));
#1659 = CARTESIAN_POINT('',(48.868458751957,2.5,-34.5860844812));
#1660 = CARTESIAN_POINT('',(48.809414573104,2.5,-34.04298504579));
#1661 = CARTESIAN_POINT('',(48.809414576377,2.5,-33.18654059879));
#1662 = CARTESIAN_POINT('',(48.829092242329,2.5,-32.87307406437));
#1663 = CARTESIAN_POINT('',(48.868446630575,2.5,-32.56115981898));
#1664 = CARTESIAN_POINT('',(48.927315147019,2.5,-32.25233340539));
#1665 = CARTESIAN_POINT('',(49.005374263304,2.5,-31.948104298));
#1666 = CARTESIAN_POINT('',(49.197670346046,2.5,-31.35561104412));
#1667 = CARTESIAN_POINT('',(49.311436693933,2.5,-31.06717969949));
#1668 = CARTESIAN_POINT('',(49.442972339855,2.5,-30.78608371776));
#1669 = CARTESIAN_POINT('',(49.591672027347,2.5,-30.51367782534));
#1670 = CARTESIAN_POINT('',(49.756793844765,2.5,-30.25124599828));
#1671 = CARTESIAN_POINT('',(49.937460888596,2.5,-30.));
#1672 = ORIENTED_EDGE('',*,*,#1312,.F.);
#1673 = ORIENTED_EDGE('',*,*,#1674,.F.);
#1674 = EDGE_CURVE('',#1588,#1305,#1675,.T.);
#1675 = B_SPLINE_CURVE_WITH_KNOTS('',6,(#1676,#1677,#1678,#1679,#1680,
    #1681,#1682,#1683,#1684,#1685,#1686,#1687,#1688,#1689,#1690,#1691,
    #1692),.UNSPECIFIED.,.F.,.F.,(7,5,5,7),(0.,0.465721643685,
    0.734577686499,1.),.UNSPECIFIED.);
#1676 = CARTESIAN_POINT('',(-49.67340621813,2.5,-36.6));
#1677 = CARTESIAN_POINT('',(-49.3926017565,2.5,-36.1352572522));
#1678 = CARTESIAN_POINT('',(-49.16221752206,2.5,-35.63991594486));
#1679 = CARTESIAN_POINT('',(-48.98659085804,2.5,-35.12101450197));
#1680 = CARTESIAN_POINT('',(-48.86845875195,2.5,-34.5860844812));
#1681 = CARTESIAN_POINT('',(-48.8094145731,2.5,-34.04298504579));
#1682 = CARTESIAN_POINT('',(-48.80941457637,2.5,-33.18654059883));
#1683 = CARTESIAN_POINT('',(-48.82909224232,2.5,-32.87307406444));
#1684 = CARTESIAN_POINT('',(-48.86844663056,2.5,-32.5611598191));
#1685 = CARTESIAN_POINT('',(-48.92731514699,2.5,-32.25233340554));
#1686 = CARTESIAN_POINT('',(-49.00537426325,2.5,-31.94810429819));
#1687 = CARTESIAN_POINT('',(-49.19767034597,2.5,-31.3556110443));
#1688 = CARTESIAN_POINT('',(-49.31143669386,2.5,-31.06717969963));
#1689 = CARTESIAN_POINT('',(-49.44297233979,2.5,-30.78608371786));
#1690 = CARTESIAN_POINT('',(-49.5916720273,2.5,-30.51367782541));
#1691 = CARTESIAN_POINT('',(-49.75679384474,2.5,-30.25124599831));
#1692 = CARTESIAN_POINT('',(-49.93746088859,2.5,-30.));
#1693 = TOROIDAL_SURFACE('',#1694,54.873397172406,6.);
#1694 = AXIS2_PLACEMENT_3D('',#1695,#1696,#1697);
#1695 = CARTESIAN_POINT('',(-4.15E-15,-3.72E-15,-33.49999999999));
#1696 = DIRECTION('',(-2.3E-16,-1.1E-16,-1.));
#1697 = DIRECTION('',(-1.,-1.7E-16,2.3E-16));
#1698 = ADVANCED_FACE('',(#1699),#1717,.F.);
#1699 = FACE_BOUND('',#1700,.F.);
#1700 = EDGE_LOOP('',(#1701,#1702,#1710,#1716));
#1701 = ORIENTED_EDGE('',*,*,#1337,.F.);
#1702 = ORIENTED_EDGE('',*,*,#1703,.T.);
#1703 = EDGE_CURVE('',#1330,#1704,#1706,.T.);
#1704 = VERTEX_POINT('',#1705);
#1705 = CARTESIAN_POINT('',(43.000000000002,-2.5,-36.));
#1706 = LINE('',#1707,#1708);
#1707 = CARTESIAN_POINT('',(43.000000000002,-2.5,-30.));
#1708 = VECTOR('',#1709,1.);
#1709 = DIRECTION('',(1.2E-16,0.,-1.));
#1710 = ORIENTED_EDGE('',*,*,#1711,.T.);
#1711 = EDGE_CURVE('',#1704,#1623,#1712,.T.);
#1712 = LINE('',#1713,#1714);
#1713 = CARTESIAN_POINT('',(43.000000000002,-2.5,-36.));
#1714 = VECTOR('',#1715,1.);
#1715 = DIRECTION('',(1.,-2.4E-16,-0.));
#1716 = ORIENTED_EDGE('',*,*,#1622,.T.);
#1717 = PLANE('',#1718);
#1718 = AXIS2_PLACEMENT_3D('',#1719,#1720,#1721);
#1719 = CARTESIAN_POINT('',(43.000000000002,-2.5,-30.));
#1720 = DIRECTION('',(-2.4E-16,-1.,0.));
#1721 = DIRECTION('',(1.,-2.4E-16,1.2E-16));
#1722 = ADVANCED_FACE('',(#1723),#1741,.F.);
#1723 = FACE_BOUND('',#1724,.F.);
#1724 = EDGE_LOOP('',(#1725,#1733,#1739,#1740));
#1725 = ORIENTED_EDGE('',*,*,#1726,.T.);
#1726 = EDGE_CURVE('',#1322,#1727,#1729,.T.);
#1727 = VERTEX_POINT('',#1728);
#1728 = CARTESIAN_POINT('',(43.000000000002,2.5,-36.));
#1729 = LINE('',#1730,#1731);
#1730 = CARTESIAN_POINT('',(43.000000000002,2.5,-30.));
#1731 = VECTOR('',#1732,1.);
#1732 = DIRECTION('',(1.2E-16,0.,-1.));
#1733 = ORIENTED_EDGE('',*,*,#1734,.T.);
#1734 = EDGE_CURVE('',#1727,#1704,#1735,.T.);
#1735 = LINE('',#1736,#1737);
#1736 = CARTESIAN_POINT('',(43.000000000002,2.5,-36.));
#1737 = VECTOR('',#1738,1.);
#1738 = DIRECTION('',(-2.4E-16,-1.,0.));
#1739 = ORIENTED_EDGE('',*,*,#1703,.F.);
#1740 = ORIENTED_EDGE('',*,*,#1329,.F.);
#1741 = PLANE('',#1742);
#1742 = AXIS2_PLACEMENT_3D('',#1743,#1744,#1745);
#1743 = CARTESIAN_POINT('',(43.000000000002,2.5,-30.));
#1744 = DIRECTION('',(-1.,2.4E-16,-1.2E-16));
#1745 = DIRECTION('',(-2.4E-16,-1.,0.));
#1746 = ADVANCED_FACE('',(#1747),#1758,.F.);
#1747 = FACE_BOUND('',#1748,.F.);
#1748 = EDGE_LOOP('',(#1749,#1750,#1751,#1757));
#1749 = ORIENTED_EDGE('',*,*,#1321,.F.);
#1750 = ORIENTED_EDGE('',*,*,#1653,.F.);
#1751 = ORIENTED_EDGE('',*,*,#1752,.T.);
#1752 = EDGE_CURVE('',#1645,#1727,#1753,.T.);
#1753 = LINE('',#1754,#1755);
#1754 = CARTESIAN_POINT('',(50.000000000002,2.5,-36.));
#1755 = VECTOR('',#1756,1.);
#1756 = DIRECTION('',(-1.,2.4E-16,0.));
#1757 = ORIENTED_EDGE('',*,*,#1726,.F.);
#1758 = PLANE('',#1759);
#1759 = AXIS2_PLACEMENT_3D('',#1760,#1761,#1762);
#1760 = CARTESIAN_POINT('',(50.000000000002,2.5,-30.));
#1761 = DIRECTION('',(2.4E-16,1.,0.));
#1762 = DIRECTION('',(-1.,2.4E-16,-1.2E-16));
#1763 = ADVANCED_FACE('',(#1764),#1775,.F.);
#1764 = FACE_BOUND('',#1765,.F.);
#1765 = EDGE_LOOP('',(#1766,#1767,#1768,#1774));
#1766 = ORIENTED_EDGE('',*,*,#1304,.F.);
#1767 = ORIENTED_EDGE('',*,*,#1532,.T.);
#1768 = ORIENTED_EDGE('',*,*,#1769,.T.);
#1769 = EDGE_CURVE('',#1525,#1588,#1770,.T.);
#1770 = LINE('',#1771,#1772);
#1771 = CARTESIAN_POINT('',(-43.,2.5,-36.));
#1772 = VECTOR('',#1773,1.);
#1773 = DIRECTION('',(-1.,0.,0.));
#1774 = ORIENTED_EDGE('',*,*,#1674,.T.);
#1775 = PLANE('',#1776);
#1776 = AXIS2_PLACEMENT_3D('',#1777,#1778,#1779);
#1777 = CARTESIAN_POINT('',(-43.,2.5,-30.));
#1778 = DIRECTION('',(0.,1.,0.));
#1779 = DIRECTION('',(-1.,0.,1.2E-16));
#1780 = ADVANCED_FACE('',(#1781,#1784),#1787,.T.);
#1781 = FACE_BOUND('',#1782,.T.);
#1782 = EDGE_LOOP('',(#1783));
#1783 = ORIENTED_EDGE('',*,*,#1605,.T.);
#1784 = FACE_BOUND('',#1785,.T.);
#1785 = EDGE_LOOP('',(#1786));
#1786 = ORIENTED_EDGE('',*,*,#1500,.T.);
#1787 = PLANE('',#1788);
#1788 = AXIS2_PLACEMENT_3D('',#1789,#1790,#1791);
#1789 = CARTESIAN_POINT('',(7.35E-15,0.,-37.));
#1790 = DIRECTION('',(0.,0.,-1.));
#1791 = DIRECTION('',(-1.,0.,0.));
#1792 = ADVANCED_FACE('',(#1793,#1800),#1811,.T.);
#1793 = FACE_BOUND('',#1794,.T.);
#1794 = EDGE_LOOP('',(#1795,#1796,#1797,#1798,#1799));
#1795 = ORIENTED_EDGE('',*,*,#1613,.F.);
#1796 = ORIENTED_EDGE('',*,*,#1570,.T.);
#1797 = ORIENTED_EDGE('',*,*,#1524,.T.);
#1798 = ORIENTED_EDGE('',*,*,#1769,.T.);
#1799 = ORIENTED_EDGE('',*,*,#1585,.F.);
#1800 = FACE_BOUND('',#1801,.T.);
#1801 = EDGE_LOOP('',(#1802));
#1802 = ORIENTED_EDGE('',*,*,#1803,.F.);
#1803 = EDGE_CURVE('',#1804,#1804,#1806,.T.);
#1804 = VERTEX_POINT('',#1805);
#1805 = CARTESIAN_POINT('',(-47.,0.,-36.));
#1806 = CIRCLE('',#1807,1.5);
#1807 = AXIS2_PLACEMENT_3D('',#1808,#1809,#1810);
#1808 = CARTESIAN_POINT('',(-45.5,0.,-36.));
#1809 = DIRECTION('',(0.,0.,1.));
#1810 = DIRECTION('',(-1.,0.,0.));
#1811 = PLANE('',#1812);
#1812 = AXIS2_PLACEMENT_3D('',#1813,#1814,#1815);
#1813 = CARTESIAN_POINT('',(-46.2548539792,-5.9E-16,-36.));
#1814 = DIRECTION('',(0.,0.,1.));
#1815 = DIRECTION('',(1.,0.,0.));
#1816 = ADVANCED_FACE('',(#1817,#1823),#1834,.T.);
#1817 = FACE_BOUND('',#1818,.T.);
#1818 = EDGE_LOOP('',(#1819,#1820,#1821,#1822));
#1819 = ORIENTED_EDGE('',*,*,#1644,.F.);
#1820 = ORIENTED_EDGE('',*,*,#1752,.T.);
#1821 = ORIENTED_EDGE('',*,*,#1734,.T.);
#1822 = ORIENTED_EDGE('',*,*,#1711,.T.);
#1823 = FACE_BOUND('',#1824,.T.);
#1824 = EDGE_LOOP('',(#1825));
#1825 = ORIENTED_EDGE('',*,*,#1826,.F.);
#1826 = EDGE_CURVE('',#1827,#1827,#1829,.T.);
#1827 = VERTEX_POINT('',#1828);
#1828 = CARTESIAN_POINT('',(47.000000000002,-6.E-15,-36.));
#1829 = CIRCLE('',#1830,1.5);
#1830 = AXIS2_PLACEMENT_3D('',#1831,#1832,#1833);
#1831 = CARTESIAN_POINT('',(45.500000000002,-1.114E-14,-36.));
#1832 = DIRECTION('',(0.,-0.,1.));
#1833 = DIRECTION('',(1.,-2.4E-16,-0.));
#1834 = PLANE('',#1835);
#1835 = AXIS2_PLACEMENT_3D('',#1836,#1837,#1838);
#1836 = CARTESIAN_POINT('',(46.254853979202,-1.074E-14,-36.));
#1837 = DIRECTION('',(0.,0.,1.));
#1838 = DIRECTION('',(-1.,2.4E-16,0.));
#1839 = ADVANCED_FACE('',(#1840),#1859,.T.);
#1840 = FACE_BOUND('',#1841,.T.);
#1841 = EDGE_LOOP('',(#1842,#1850,#1851,#1852));
#1842 = ORIENTED_EDGE('',*,*,#1843,.T.);
#1843 = EDGE_CURVE('',#1844,#1804,#1846,.T.);
#1844 = VERTEX_POINT('',#1845);
#1845 = CARTESIAN_POINT('',(-47.,0.,-30.));
#1846 = LINE('',#1847,#1848);
#1847 = CARTESIAN_POINT('',(-47.,0.,-30.));
#1848 = VECTOR('',#1849,1.);
#1849 = DIRECTION('',(-1.2E-16,0.,-1.));
#1850 = ORIENTED_EDGE('',*,*,#1803,.T.);
#1851 = ORIENTED_EDGE('',*,*,#1843,.F.);
#1852 = ORIENTED_EDGE('',*,*,#1853,.F.);
#1853 = EDGE_CURVE('',#1844,#1844,#1854,.T.);
#1854 = CIRCLE('',#1855,1.5);
#1855 = AXIS2_PLACEMENT_3D('',#1856,#1857,#1858);
#1856 = CARTESIAN_POINT('',(-45.5,0.,-30.));
#1857 = DIRECTION('',(0.,0.,1.));
#1858 = DIRECTION('',(-1.,0.,0.));
#1859 = CYLINDRICAL_SURFACE('',#1860,1.5);
#1860 = AXIS2_PLACEMENT_3D('',#1861,#1862,#1863);
#1861 = CARTESIAN_POINT('',(-45.5,0.,-30.));
#1862 = DIRECTION('',(1.2E-16,0.,1.));
#1863 = DIRECTION('',(-1.,0.,1.2E-16));
#1864 = ADVANCED_FACE('',(#1865),#1884,.T.);
#1865 = FACE_BOUND('',#1866,.T.);
#1866 = EDGE_LOOP('',(#1867,#1875,#1876,#1877));
#1867 = ORIENTED_EDGE('',*,*,#1868,.T.);
#1868 = EDGE_CURVE('',#1869,#1827,#1871,.T.);
#1869 = VERTEX_POINT('',#1870);
#1870 = CARTESIAN_POINT('',(47.000000000002,-6.E-15,-30.));
#1871 = LINE('',#1872,#1873);
#1872 = CARTESIAN_POINT('',(47.000000000002,-1.151E-14,-30.));
#1873 = VECTOR('',#1874,1.);
#1874 = DIRECTION('',(1.2E-16,0.,-1.));
#1875 = ORIENTED_EDGE('',*,*,#1826,.T.);
#1876 = ORIENTED_EDGE('',*,*,#1868,.F.);
#1877 = ORIENTED_EDGE('',*,*,#1878,.F.);
#1878 = EDGE_CURVE('',#1869,#1869,#1879,.T.);
#1879 = CIRCLE('',#1880,1.5);
#1880 = AXIS2_PLACEMENT_3D('',#1881,#1882,#1883);
#1881 = CARTESIAN_POINT('',(45.500000000002,-1.114E-14,-30.));
#1882 = DIRECTION('',(0.,-0.,1.));
#1883 = DIRECTION('',(1.,-2.4E-16,-0.));
#1884 = CYLINDRICAL_SURFACE('',#1885,1.5);
#1885 = AXIS2_PLACEMENT_3D('',#1886,#1887,#1888);
#1886 = CARTESIAN_POINT('',(45.500000000002,-1.114E-14,-30.));
#1887 = DIRECTION('',(-1.2E-16,0.,1.));
#1888 = DIRECTION('',(1.,-2.4E-16,1.2E-16));
#1889 = ADVANCED_FACE('',(#1890),#1893,.F.);
#1890 = FACE_BOUND('',#1891,.F.);
#1891 = EDGE_LOOP('',(#1892));
#1892 = ORIENTED_EDGE('',*,*,#1853,.F.);
#1893 = PLANE('',#1894);
#1894 = AXIS2_PLACEMENT_3D('',#1895,#1896,#1897);
#1895 = CARTESIAN_POINT('',(7.35E-15,0.,-30.));
#1896 = DIRECTION('',(0.,0.,-1.));
#1897 = DIRECTION('',(-1.,0.,0.));
#1898 = ADVANCED_FACE('',(#1899),#1902,.F.);
#1899 = FACE_BOUND('',#1900,.F.);
#1900 = EDGE_LOOP('',(#1901));
#1901 = ORIENTED_EDGE('',*,*,#1878,.F.);
#1902 = PLANE('',#1903);
#1903 = AXIS2_PLACEMENT_3D('',#1904,#1905,#1906);
#1904 = CARTESIAN_POINT('',(7.35E-15,0.,-30.));
#1905 = DIRECTION('',(0.,0.,-1.));
#1906 = DIRECTION('',(-1.,0.,0.));
#1907 = ( GEOMETRIC_REPRESENTATION_CONTEXT(3) 
GLOBAL_UNCERTAINTY_ASSIGNED_CONTEXT((#1911)) 
GLOBAL_UNIT_ASSIGNED_CONTEXT((#1908,#1909,#1910)) REPRESENTATION_CONTEXT
('Context #1','3D Context with UNIT and UNCERTAINTY') );
#1908 = ( LENGTH_UNIT() NAMED_UNIT(*) SI_UNIT(.MILLI.,.METRE.) );
#1909 = ( NAMED_UNIT(*) PLANE_ANGLE_UNIT() SI_UNIT($,.RADIAN.) );
#1910 = ( NAMED_UNIT(*) SI_UNIT($,.STERADIAN.) SOLID_ANGLE_UNIT() );
#1911 = UNCERTAINTY_MEASURE_WITH_UNIT(LENGTH_MEASURE(2.E-07),#1908,
  'distance_accuracy_value','confusion accuracy');
#1912 = PRODUCT_RELATED_PRODUCT_CATEGORY('part',$,(#7));
#1913 = MECHANICAL_DESIGN_GEOMETRIC_PRESENTATION_REPRESENTATION('',(
    #1914),#1907);
#1914 = STYLED_ITEM('color',(#1915),#15);
#1915 = PRESENTATION_STYLE_ASSIGNMENT((#1916,#1922));
#1916 = SURFACE_STYLE_USAGE(.BOTH.,#1917);
#1917 = SURFACE_SIDE_STYLE('',(#1918));
#1918 = SURFACE_STYLE_FILL_AREA(#1919);
#1919 = FILL_AREA_STYLE('',(#1920));
#1920 = FILL_AREA_STYLE_COLOUR('',#1921);
#1921 = COLOUR_RGB('',0.447058818107,0.474509808674,0.501960817233);
#1922 = CURVE_STYLE('',#1923,POSITIVE_LENGTH_MEASURE(0.1),#1924);
#1923 = DRAUGHTING_PRE_DEFINED_CURVE_FONT('continuous');
#1924 = COLOUR_RGB('',9.803921802644E-02,9.803921802644E-02,
  9.803921802644E-02);
ENDSEC;
END-ISO-10303-21;
