ISO-10303-21;
HEADER;
FILE_DESCRIPTION(('FreeCAD Model'),'2;1');
FILE_NAME('Open CASCADE Shape Model','2026-09-10T11:52:43',(''),(''),
  'Open CASCADE STEP processor 7.8','FreeCAD','Unknown');
FILE_SCHEMA(('AUTOMOTIVE_DESIGN { 1 0 10303 214 1 1 1 1 }'));
ENDSEC;
DATA;
#1 = APPLICATION_PROTOCOL_DEFINITION('international standard',
  'automotive_design',2000,#2);
#2 = APPLICATION_CONTEXT(
  'core data for automotive mechanical design processes');
#3 = SHAPE_DEFINITION_REPRESENTATION(#4,#10);
#4 = PRODUCT_DEFINITION_SHAPE('','',#5);
#5 = PRODUCT_DEFINITION('design','',#6,#9);
#6 = PRODUCT_DEFINITION_FORMATION('','',#7);
#7 = PRODUCT('Leg_1','Leg_1','',(#8));
#8 = PRODUCT_CONTEXT('',#2,'mechanical');
#9 = PRODUCT_DEFINITION_CONTEXT('part definition',#2,'design');
#10 = ADVANCED_BREP_SHAPE_REPRESENTATION('',(#11,#15),#1662);
#11 = AXIS2_PLACEMENT_3D('',#12,#13,#14);
#12 = CARTESIAN_POINT('',(0.,0.,0.));
#13 = DIRECTION('',(0.,0.,1.));
#14 = DIRECTION('',(1.,0.,-0.));
#15 = MANIFOLD_SOLID_BREP('',#16);
#16 = CLOSED_SHELL('',(#17,#411,#443,#467,#491,#509,#551,#575,#599,#623,
    #647,#671,#696,#720,#744,#769,#793,#817,#841,#865,#890,#914,#938,
    #963,#987,#1011,#1035,#1059,#1084,#1108,#1132,#1157,#1181,#1205,
    #1229,#1253,#1278,#1302,#1326,#1351,#1375,#1399,#1423,#1447,#1472,
    #1489,#1514,#1548,#1608,#1628,#1645));
#17 = ADVANCED_FACE('',(#18,#54,#395),#406,.T.);
#18 = FACE_BOUND('',#19,.T.);
#19 = EDGE_LOOP('',(#20,#31,#39,#48));
#20 = ORIENTED_EDGE('',*,*,#21,.F.);
#21 = EDGE_CURVE('',#22,#24,#26,.T.);
#22 = VERTEX_POINT('',#23);
#23 = CARTESIAN_POINT('',(-15.,2.E-15,0.));
#24 = VERTEX_POINT('',#25);
#25 = CARTESIAN_POINT('',(15.,1.E-14,0.));
#26 = CIRCLE('',#27,15.);
#27 = AXIS2_PLACEMENT_3D('',#28,#29,#30);
#28 = CARTESIAN_POINT('',(0.,0.,0.));
#29 = DIRECTION('',(0.,0.,1.));
#30 = DIRECTION('',(1.,0.,0.));
#31 = ORIENTED_EDGE('',*,*,#32,.T.);
#32 = EDGE_CURVE('',#22,#33,#35,.T.);
#33 = VERTEX_POINT('',#34);
#34 = CARTESIAN_POINT('',(-15.,200.,0.));
#35 = LINE('',#36,#37);
#36 = CARTESIAN_POINT('',(-15.,1.84E-15,0.));
#37 = VECTOR('',#38,1.);
#38 = DIRECTION('',(0.,1.,0.));
#39 = ORIENTED_EDGE('',*,*,#40,.F.);
#40 = EDGE_CURVE('',#41,#33,#43,.T.);
#41 = VERTEX_POINT('',#42);
#42 = CARTESIAN_POINT('',(15.,200.,0.));
#43 = CIRCLE('',#44,15.);
#44 = AXIS2_PLACEMENT_3D('',#45,#46,#47);
#45 = CARTESIAN_POINT('',(0.,200.,0.));
#46 = DIRECTION('',(0.,0.,1.));
#47 = DIRECTION('',(1.,0.,0.));
#48 = ORIENTED_EDGE('',*,*,#49,.F.);
#49 = EDGE_CURVE('',#24,#41,#50,.T.);
#50 = LINE('',#51,#52);
#51 = CARTESIAN_POINT('',(15.,9.65E-15,0.));
#52 = VECTOR('',#53,1.);
#53 = DIRECTION('',(0.,1.,0.));
#54 = FACE_BOUND('',#55,.T.);
#55 = EDGE_LOOP('',(#56,#67,#76,#84,#92,#100,#109,#117,#125,#133,#142,
    #150,#158,#166,#175,#183,#191,#199,#208,#216,#224,#232,#241,#249,
    #257,#265,#274,#282,#290,#298,#307,#315,#323,#331,#340,#348,#356,
    #364,#373,#381,#389));
#56 = ORIENTED_EDGE('',*,*,#57,.T.);
#57 = EDGE_CURVE('',#58,#60,#62,.T.);
#58 = VERTEX_POINT('',#59);
#59 = CARTESIAN_POINT('',(9.761117612699,-2.172690256584,-1.E-15));
#60 = VERTEX_POINT('',#61);
#61 = CARTESIAN_POINT('',(10.,0.,0.));
#62 = CIRCLE('',#63,10.);
#63 = AXIS2_PLACEMENT_3D('',#64,#65,#66);
#64 = CARTESIAN_POINT('',(0.,0.,0.));
#65 = DIRECTION('',(0.,0.,1.));
#66 = DIRECTION('',(1.,0.,0.));
#67 = ORIENTED_EDGE('',*,*,#68,.T.);
#68 = EDGE_CURVE('',#60,#69,#71,.T.);
#69 = VERTEX_POINT('',#70);
#70 = CARTESIAN_POINT('',(9.761117612699,2.172690256587,-1.E-15));
#71 = CIRCLE('',#72,10.);
#72 = AXIS2_PLACEMENT_3D('',#73,#74,#75);
#73 = CARTESIAN_POINT('',(0.,0.,0.));
#74 = DIRECTION('',(0.,0.,1.));
#75 = DIRECTION('',(1.,0.,0.));
#76 = ORIENTED_EDGE('',*,*,#77,.T.);
#77 = EDGE_CURVE('',#69,#78,#80,.T.);
#78 = VERTEX_POINT('',#79);
#79 = CARTESIAN_POINT('',(7.997123926647,1.599533963958,-2.E-15));
#80 = LINE('',#81,#82);
#81 = CARTESIAN_POINT('',(11.611138688567,2.773798542582,0.));
#82 = VECTOR('',#83,1.);
#83 = DIRECTION('',(-0.951056516295,-0.309016994375,0.));
#84 = ORIENTED_EDGE('',*,*,#85,.T.);
#85 = EDGE_CURVE('',#78,#86,#88,.T.);
#86 = VERTEX_POINT('',#87);
#87 = CARTESIAN_POINT('',(7.409991637334,3.406541344918,-2.E-15));
#88 = LINE('',#89,#90);
#89 = CARTESIAN_POINT('',(7.997123926647,1.599533963958,0.));
#90 = VECTOR('',#91,1.);
#91 = DIRECTION('',(-0.309016994375,0.951056516295,0.));
#92 = ORIENTED_EDGE('',*,*,#93,.T.);
#93 = EDGE_CURVE('',#86,#94,#96,.T.);
#94 = VERTEX_POINT('',#95);
#95 = CARTESIAN_POINT('',(9.173985323386,3.979697637547,-1.E-15));
#96 = LINE('',#97,#98);
#97 = CARTESIAN_POINT('',(7.409991637334,3.406541344918,0.));
#98 = VECTOR('',#99,1.);
#99 = DIRECTION('',(0.951056516295,0.309016994375,0.));
#100 = ORIENTED_EDGE('',*,*,#101,.T.);
#101 = EDGE_CURVE('',#94,#102,#104,.T.);
#102 = VERTEX_POINT('',#103);
#103 = CARTESIAN_POINT('',(6.619834742145,7.495184319728,-1.E-15));
#104 = CIRCLE('',#105,10.);
#105 = AXIS2_PLACEMENT_3D('',#106,#107,#108);
#106 = CARTESIAN_POINT('',(0.,0.,0.));
#107 = DIRECTION('',(0.,0.,1.));
#108 = DIRECTION('',(1.,0.,0.));
#109 = ORIENTED_EDGE('',*,*,#110,.T.);
#110 = EDGE_CURVE('',#102,#111,#113,.T.);
#111 = VERTEX_POINT('',#112);
#112 = CARTESIAN_POINT('',(5.529626688224,5.99464166476,-2.E-15));
#113 = LINE('',#114,#115);
#114 = CARTESIAN_POINT('',(7.763210646935,9.068906243384,0.));
#115 = VECTOR('',#116,1.);
#116 = DIRECTION('',(-0.587785252292,-0.809016994375,0.));
#117 = ORIENTED_EDGE('',*,*,#118,.T.);
#118 = EDGE_CURVE('',#111,#119,#121,.T.);
#119 = VERTEX_POINT('',#120);
#120 = CARTESIAN_POINT('',(3.992494398912,7.111433644116,-2.E-15));
#121 = LINE('',#122,#123);
#122 = CARTESIAN_POINT('',(5.529626688224,5.99464166476,0.));
#123 = VECTOR('',#124,1.);
#124 = DIRECTION('',(-0.809016994375,0.587785252292,0.));
#125 = ORIENTED_EDGE('',*,*,#126,.T.);
#126 = EDGE_CURVE('',#119,#127,#129,.T.);
#127 = VERTEX_POINT('',#128);
#128 = CARTESIAN_POINT('',(5.082702452832,8.611976299083,-1.E-15));
#129 = LINE('',#130,#131);
#130 = CARTESIAN_POINT('',(3.992494398912,7.111433644116,0.));
#131 = VECTOR('',#132,1.);
#132 = DIRECTION('',(0.587785252292,0.809016994375,0.));
#133 = ORIENTED_EDGE('',*,*,#134,.T.);
#134 = EDGE_CURVE('',#127,#135,#137,.T.);
#135 = VERTEX_POINT('',#136);
#136 = CARTESIAN_POINT('',(0.949999999999,9.954772724678,-1.E-15));
#137 = CIRCLE('',#138,10.);
#138 = AXIS2_PLACEMENT_3D('',#139,#140,#141);
#139 = CARTESIAN_POINT('',(0.,0.,0.));
#140 = DIRECTION('',(0.,0.,1.));
#141 = DIRECTION('',(1.,0.,0.));
#142 = ORIENTED_EDGE('',*,*,#143,.T.);
#143 = EDGE_CURVE('',#135,#144,#146,.T.);
#144 = VERTEX_POINT('',#145);
#145 = CARTESIAN_POINT('',(0.949999999999,8.1,-2.E-15));
#146 = LINE('',#147,#148);
#147 = CARTESIAN_POINT('',(0.949999999999,11.899999999999,0.));
#148 = VECTOR('',#149,1.);
#149 = DIRECTION('',(0.,-1.,-0.));
#150 = ORIENTED_EDGE('',*,*,#151,.T.);
#151 = EDGE_CURVE('',#144,#152,#154,.T.);
#152 = VERTEX_POINT('',#153);
#153 = CARTESIAN_POINT('',(-0.950000000001,8.1,-2.E-15));
#154 = LINE('',#155,#156);
#155 = CARTESIAN_POINT('',(0.949999999999,8.1,0.));
#156 = VECTOR('',#157,1.);
#157 = DIRECTION('',(-1.,0.,0.));
#158 = ORIENTED_EDGE('',*,*,#159,.T.);
#159 = EDGE_CURVE('',#152,#160,#162,.T.);
#160 = VERTEX_POINT('',#161);
#161 = CARTESIAN_POINT('',(-0.950000000001,9.954772724678,-1.E-15));
#162 = LINE('',#163,#164);
#163 = CARTESIAN_POINT('',(-0.950000000001,8.1,0.));
#164 = VECTOR('',#165,1.);
#165 = DIRECTION('',(0.,1.,0.));
#166 = ORIENTED_EDGE('',*,*,#167,.T.);
#167 = EDGE_CURVE('',#160,#168,#170,.T.);
#168 = VERTEX_POINT('',#169);
#169 = CARTESIAN_POINT('',(-5.082702452834,8.611976299082,-1.E-15));
#170 = CIRCLE('',#171,10.);
#171 = AXIS2_PLACEMENT_3D('',#172,#173,#174);
#172 = CARTESIAN_POINT('',(0.,0.,0.));
#173 = DIRECTION('',(0.,0.,1.));
#174 = DIRECTION('',(1.,0.,0.));
#175 = ORIENTED_EDGE('',*,*,#176,.T.);
#176 = EDGE_CURVE('',#168,#177,#179,.T.);
#177 = VERTEX_POINT('',#178);
#178 = CARTESIAN_POINT('',(-3.992494398914,7.111433644114,-1.E-15));
#179 = LINE('',#180,#181);
#180 = CARTESIAN_POINT('',(-6.226078357625,10.185698222738,0.));
#181 = VECTOR('',#182,1.);
#182 = DIRECTION('',(0.587785252292,-0.809016994375,0.));
#183 = ORIENTED_EDGE('',*,*,#184,.T.);
#184 = EDGE_CURVE('',#177,#185,#187,.T.);
#185 = VERTEX_POINT('',#186);
#186 = CARTESIAN_POINT('',(-5.529626688226,5.994641664759,-1.E-15));
#187 = LINE('',#188,#189);
#188 = CARTESIAN_POINT('',(-3.992494398914,7.111433644114,0.));
#189 = VECTOR('',#190,1.);
#190 = DIRECTION('',(-0.809016994375,-0.587785252292,0.));
#191 = ORIENTED_EDGE('',*,*,#192,.T.);
#192 = EDGE_CURVE('',#185,#193,#195,.T.);
#193 = VERTEX_POINT('',#194);
#194 = CARTESIAN_POINT('',(-6.619834742146,7.495184319726,-1.E-15));
#195 = LINE('',#196,#197);
#196 = CARTESIAN_POINT('',(-5.529626688226,5.994641664759,0.));
#197 = VECTOR('',#198,1.);
#198 = DIRECTION('',(-0.587785252292,0.809016994375,0.));
#199 = ORIENTED_EDGE('',*,*,#200,.T.);
#200 = EDGE_CURVE('',#193,#201,#203,.T.);
#201 = VERTEX_POINT('',#202);
#202 = CARTESIAN_POINT('',(-9.173985323387,3.979697637545,0.));
#203 = CIRCLE('',#204,10.);
#204 = AXIS2_PLACEMENT_3D('',#205,#206,#207);
#205 = CARTESIAN_POINT('',(0.,0.,0.));
#206 = DIRECTION('',(0.,0.,1.));
#207 = DIRECTION('',(1.,0.,0.));
#208 = ORIENTED_EDGE('',*,*,#209,.T.);
#209 = EDGE_CURVE('',#201,#210,#212,.T.);
#210 = VERTEX_POINT('',#211);
#211 = CARTESIAN_POINT('',(-7.409991637335,3.406541344916,-1.E-15));
#212 = LINE('',#213,#214);
#213 = CARTESIAN_POINT('',(-11.02400639925,4.580805923541,0.));
#214 = VECTOR('',#215,1.);
#215 = DIRECTION('',(0.951056516295,-0.309016994375,0.));
#216 = ORIENTED_EDGE('',*,*,#217,.T.);
#217 = EDGE_CURVE('',#210,#218,#220,.T.);
#218 = VERTEX_POINT('',#219);
#219 = CARTESIAN_POINT('',(-7.997123926647,1.599533963956,0.));
#220 = LINE('',#221,#222);
#221 = CARTESIAN_POINT('',(-7.409991637335,3.406541344916,0.));
#222 = VECTOR('',#223,1.);
#223 = DIRECTION('',(-0.309016994375,-0.951056516295,0.));
#224 = ORIENTED_EDGE('',*,*,#225,.T.);
#225 = EDGE_CURVE('',#218,#226,#228,.T.);
#226 = VERTEX_POINT('',#227);
#227 = CARTESIAN_POINT('',(-9.761117612699,2.172690256584,0.));
#228 = LINE('',#229,#230);
#229 = CARTESIAN_POINT('',(-7.997123926647,1.599533963956,0.));
#230 = VECTOR('',#231,1.);
#231 = DIRECTION('',(-0.951056516295,0.309016994375,0.));
#232 = ORIENTED_EDGE('',*,*,#233,.T.);
#233 = EDGE_CURVE('',#226,#234,#236,.T.);
#234 = VERTEX_POINT('',#235);
#235 = CARTESIAN_POINT('',(-9.761117612699,-2.172690256586,0.));
#236 = CIRCLE('',#237,10.);
#237 = AXIS2_PLACEMENT_3D('',#238,#239,#240);
#238 = CARTESIAN_POINT('',(0.,0.,0.));
#239 = DIRECTION('',(0.,0.,1.));
#240 = DIRECTION('',(1.,0.,0.));
#241 = ORIENTED_EDGE('',*,*,#242,.T.);
#242 = EDGE_CURVE('',#234,#243,#245,.T.);
#243 = VERTEX_POINT('',#244);
#244 = CARTESIAN_POINT('',(-7.997123926647,-1.599533963958,0.));
#245 = LINE('',#246,#247);
#246 = CARTESIAN_POINT('',(-11.61113868856,-2.773798542582,0.));
#247 = VECTOR('',#248,1.);
#248 = DIRECTION('',(0.951056516295,0.309016994375,-0.));
#249 = ORIENTED_EDGE('',*,*,#250,.T.);
#250 = EDGE_CURVE('',#243,#251,#253,.T.);
#251 = VERTEX_POINT('',#252);
#252 = CARTESIAN_POINT('',(-7.409991637334,-3.406541344918,0.));
#253 = LINE('',#254,#255);
#254 = CARTESIAN_POINT('',(-7.997123926647,-1.599533963958,0.));
#255 = VECTOR('',#256,1.);
#256 = DIRECTION('',(0.309016994375,-0.951056516295,0.));
#257 = ORIENTED_EDGE('',*,*,#258,.T.);
#258 = EDGE_CURVE('',#251,#259,#261,.T.);
#259 = VERTEX_POINT('',#260);
#260 = CARTESIAN_POINT('',(-9.173985323386,-3.979697637547,0.));
#261 = LINE('',#262,#263);
#262 = CARTESIAN_POINT('',(-7.409991637334,-3.406541344918,0.));
#263 = VECTOR('',#264,1.);
#264 = DIRECTION('',(-0.951056516295,-0.309016994375,0.));
#265 = ORIENTED_EDGE('',*,*,#266,.T.);
#266 = EDGE_CURVE('',#259,#267,#269,.T.);
#267 = VERTEX_POINT('',#268);
#268 = CARTESIAN_POINT('',(-6.619834742145,-7.495184319728,0.));
#269 = CIRCLE('',#270,10.);
#270 = AXIS2_PLACEMENT_3D('',#271,#272,#273);
#271 = CARTESIAN_POINT('',(0.,0.,0.));
#272 = DIRECTION('',(0.,0.,1.));
#273 = DIRECTION('',(1.,0.,0.));
#274 = ORIENTED_EDGE('',*,*,#275,.T.);
#275 = EDGE_CURVE('',#267,#276,#278,.T.);
#276 = VERTEX_POINT('',#277);
#277 = CARTESIAN_POINT('',(-5.529626688224,-5.99464166476,0.));
#278 = LINE('',#279,#280);
#279 = CARTESIAN_POINT('',(-7.763210646935,-9.068906243384,0.));
#280 = VECTOR('',#281,1.);
#281 = DIRECTION('',(0.587785252292,0.809016994375,-0.));
#282 = ORIENTED_EDGE('',*,*,#283,.T.);
#283 = EDGE_CURVE('',#276,#284,#286,.T.);
#284 = VERTEX_POINT('',#285);
#285 = CARTESIAN_POINT('',(-3.992494398912,-7.111433644116,0.));
#286 = LINE('',#287,#288);
#287 = CARTESIAN_POINT('',(-5.529626688224,-5.99464166476,0.));
#288 = VECTOR('',#289,1.);
#289 = DIRECTION('',(0.809016994375,-0.587785252292,0.));
#290 = ORIENTED_EDGE('',*,*,#291,.T.);
#291 = EDGE_CURVE('',#284,#292,#294,.T.);
#292 = VERTEX_POINT('',#293);
#293 = CARTESIAN_POINT('',(-5.082702452832,-8.611976299083,0.));
#294 = LINE('',#295,#296);
#295 = CARTESIAN_POINT('',(-3.992494398912,-7.111433644116,0.));
#296 = VECTOR('',#297,1.);
#297 = DIRECTION('',(-0.587785252292,-0.809016994375,0.));
#298 = ORIENTED_EDGE('',*,*,#299,.T.);
#299 = EDGE_CURVE('',#292,#300,#302,.T.);
#300 = VERTEX_POINT('',#301);
#301 = CARTESIAN_POINT('',(-0.949999999999,-9.954772724678,0.));
#302 = CIRCLE('',#303,10.);
#303 = AXIS2_PLACEMENT_3D('',#304,#305,#306);
#304 = CARTESIAN_POINT('',(0.,0.,0.));
#305 = DIRECTION('',(0.,0.,1.));
#306 = DIRECTION('',(1.,0.,0.));
#307 = ORIENTED_EDGE('',*,*,#308,.T.);
#308 = EDGE_CURVE('',#300,#309,#311,.T.);
#309 = VERTEX_POINT('',#310);
#310 = CARTESIAN_POINT('',(-0.949999999999,-8.1,0.));
#311 = LINE('',#312,#313);
#312 = CARTESIAN_POINT('',(-0.949999999999,-11.89999999999,0.));
#313 = VECTOR('',#314,1.);
#314 = DIRECTION('',(0.,1.,0.));
#315 = ORIENTED_EDGE('',*,*,#316,.T.);
#316 = EDGE_CURVE('',#309,#317,#319,.T.);
#317 = VERTEX_POINT('',#318);
#318 = CARTESIAN_POINT('',(0.950000000001,-8.1,0.));
#319 = LINE('',#320,#321);
#320 = CARTESIAN_POINT('',(-0.949999999999,-8.1,0.));
#321 = VECTOR('',#322,1.);
#322 = DIRECTION('',(1.,0.,0.));
#323 = ORIENTED_EDGE('',*,*,#324,.T.);
#324 = EDGE_CURVE('',#317,#325,#327,.T.);
#325 = VERTEX_POINT('',#326);
#326 = CARTESIAN_POINT('',(0.950000000001,-9.954772724678,0.));
#327 = LINE('',#328,#329);
#328 = CARTESIAN_POINT('',(0.950000000001,-8.1,0.));
#329 = VECTOR('',#330,1.);
#330 = DIRECTION('',(0.,-1.,0.));
#331 = ORIENTED_EDGE('',*,*,#332,.T.);
#332 = EDGE_CURVE('',#325,#333,#335,.T.);
#333 = VERTEX_POINT('',#334);
#334 = CARTESIAN_POINT('',(5.082702452834,-8.611976299082,0.));
#335 = CIRCLE('',#336,10.);
#336 = AXIS2_PLACEMENT_3D('',#337,#338,#339);
#337 = CARTESIAN_POINT('',(0.,0.,0.));
#338 = DIRECTION('',(0.,0.,1.));
#339 = DIRECTION('',(1.,0.,0.));
#340 = ORIENTED_EDGE('',*,*,#341,.T.);
#341 = EDGE_CURVE('',#333,#342,#344,.T.);
#342 = VERTEX_POINT('',#343);
#343 = CARTESIAN_POINT('',(3.992494398914,-7.111433644114,-1.E-15));
#344 = LINE('',#345,#346);
#345 = CARTESIAN_POINT('',(6.226078357625,-10.18569822273,0.));
#346 = VECTOR('',#347,1.);
#347 = DIRECTION('',(-0.587785252292,0.809016994375,-0.));
#348 = ORIENTED_EDGE('',*,*,#349,.T.);
#349 = EDGE_CURVE('',#342,#350,#352,.T.);
#350 = VERTEX_POINT('',#351);
#351 = CARTESIAN_POINT('',(5.529626688226,-5.994641664759,-1.E-15));
#352 = LINE('',#353,#354);
#353 = CARTESIAN_POINT('',(3.992494398914,-7.111433644114,0.));
#354 = VECTOR('',#355,1.);
#355 = DIRECTION('',(0.809016994375,0.587785252292,0.));
#356 = ORIENTED_EDGE('',*,*,#357,.T.);
#357 = EDGE_CURVE('',#350,#358,#360,.T.);
#358 = VERTEX_POINT('',#359);
#359 = CARTESIAN_POINT('',(6.619834742146,-7.495184319726,0.));
#360 = LINE('',#361,#362);
#361 = CARTESIAN_POINT('',(5.529626688226,-5.994641664759,0.));
#362 = VECTOR('',#363,1.);
#363 = DIRECTION('',(0.587785252292,-0.809016994375,0.));
#364 = ORIENTED_EDGE('',*,*,#365,.T.);
#365 = EDGE_CURVE('',#358,#366,#368,.T.);
#366 = VERTEX_POINT('',#367);
#367 = CARTESIAN_POINT('',(9.173985323387,-3.979697637545,-1.E-15));
#368 = CIRCLE('',#369,10.);
#369 = AXIS2_PLACEMENT_3D('',#370,#371,#372);
#370 = CARTESIAN_POINT('',(0.,0.,0.));
#371 = DIRECTION('',(0.,0.,1.));
#372 = DIRECTION('',(1.,0.,0.));
#373 = ORIENTED_EDGE('',*,*,#374,.T.);
#374 = EDGE_CURVE('',#366,#375,#377,.T.);
#375 = VERTEX_POINT('',#376);
#376 = CARTESIAN_POINT('',(7.409991637335,-3.406541344916,-1.E-15));
#377 = LINE('',#378,#379);
#378 = CARTESIAN_POINT('',(11.024006399256,-4.580805923541,0.));
#379 = VECTOR('',#380,1.);
#380 = DIRECTION('',(-0.951056516295,0.309016994375,-0.));
#381 = ORIENTED_EDGE('',*,*,#382,.T.);
#382 = EDGE_CURVE('',#375,#383,#385,.T.);
#383 = VERTEX_POINT('',#384);
#384 = CARTESIAN_POINT('',(7.997123926647,-1.599533963956,-2.E-15));
#385 = LINE('',#386,#387);
#386 = CARTESIAN_POINT('',(7.409991637335,-3.406541344916,0.));
#387 = VECTOR('',#388,1.);
#388 = DIRECTION('',(0.309016994375,0.951056516295,0.));
#389 = ORIENTED_EDGE('',*,*,#390,.T.);
#390 = EDGE_CURVE('',#383,#58,#391,.T.);
#391 = LINE('',#392,#393);
#392 = CARTESIAN_POINT('',(7.997123926647,-1.599533963956,0.));
#393 = VECTOR('',#394,1.);
#394 = DIRECTION('',(0.951056516295,-0.309016994375,0.));
#395 = FACE_BOUND('',#396,.T.);
#396 = EDGE_LOOP('',(#397));
#397 = ORIENTED_EDGE('',*,*,#398,.F.);
#398 = EDGE_CURVE('',#399,#399,#401,.T.);
#399 = VERTEX_POINT('',#400);
#400 = CARTESIAN_POINT('',(2.65,200.,0.));
#401 = CIRCLE('',#402,2.65);
#402 = AXIS2_PLACEMENT_3D('',#403,#404,#405);
#403 = CARTESIAN_POINT('',(0.,200.,0.));
#404 = DIRECTION('',(0.,0.,-1.));
#405 = DIRECTION('',(1.,0.,0.));
#406 = PLANE('',#407);
#407 = AXIS2_PLACEMENT_3D('',#408,#409,#410);
#408 = CARTESIAN_POINT('',(0.,100.,0.));
#409 = DIRECTION('',(-0.,-0.,-1.));
#410 = DIRECTION('',(-1.,0.,0.));
#411 = ADVANCED_FACE('',(#412),#438,.T.);
#412 = FACE_BOUND('',#413,.F.);
#413 = EDGE_LOOP('',(#414,#422,#423,#431));
#414 = ORIENTED_EDGE('',*,*,#415,.F.);
#415 = EDGE_CURVE('',#24,#416,#418,.T.);
#416 = VERTEX_POINT('',#417);
#417 = CARTESIAN_POINT('',(15.,1.E-14,10.));
#418 = LINE('',#419,#420);
#419 = CARTESIAN_POINT('',(15.,9.65E-15,8.));
#420 = VECTOR('',#421,1.);
#421 = DIRECTION('',(0.,0.,1.));
#422 = ORIENTED_EDGE('',*,*,#21,.F.);
#423 = ORIENTED_EDGE('',*,*,#424,.T.);
#424 = EDGE_CURVE('',#22,#425,#427,.T.);
#425 = VERTEX_POINT('',#426);
#426 = CARTESIAN_POINT('',(-15.,2.E-15,10.));
#427 = LINE('',#428,#429);
#428 = CARTESIAN_POINT('',(-15.,1.84E-15,0.));
#429 = VECTOR('',#430,1.);
#430 = DIRECTION('',(0.,0.,1.));
#431 = ORIENTED_EDGE('',*,*,#432,.T.);
#432 = EDGE_CURVE('',#425,#416,#433,.T.);
#433 = CIRCLE('',#434,15.);
#434 = AXIS2_PLACEMENT_3D('',#435,#436,#437);
#435 = CARTESIAN_POINT('',(0.,0.,10.));
#436 = DIRECTION('',(0.,0.,1.));
#437 = DIRECTION('',(1.,0.,0.));
#438 = CYLINDRICAL_SURFACE('',#439,15.);
#439 = AXIS2_PLACEMENT_3D('',#440,#441,#442);
#440 = CARTESIAN_POINT('',(0.,0.,0.));
#441 = DIRECTION('',(-0.,-0.,-1.));
#442 = DIRECTION('',(1.,0.,0.));
#443 = ADVANCED_FACE('',(#444),#462,.T.);
#444 = FACE_BOUND('',#445,.T.);
#445 = EDGE_LOOP('',(#446,#447,#455,#461));
#446 = ORIENTED_EDGE('',*,*,#424,.T.);
#447 = ORIENTED_EDGE('',*,*,#448,.T.);
#448 = EDGE_CURVE('',#425,#449,#451,.T.);
#449 = VERTEX_POINT('',#450);
#450 = CARTESIAN_POINT('',(-15.,200.,10.));
#451 = LINE('',#452,#453);
#452 = CARTESIAN_POINT('',(-15.,1.84E-15,10.));
#453 = VECTOR('',#454,1.);
#454 = DIRECTION('',(0.,1.,0.));
#455 = ORIENTED_EDGE('',*,*,#456,.F.);
#456 = EDGE_CURVE('',#33,#449,#457,.T.);
#457 = LINE('',#458,#459);
#458 = CARTESIAN_POINT('',(-15.,200.,8.));
#459 = VECTOR('',#460,1.);
#460 = DIRECTION('',(0.,0.,1.));
#461 = ORIENTED_EDGE('',*,*,#32,.F.);
#462 = PLANE('',#463);
#463 = AXIS2_PLACEMENT_3D('',#464,#465,#466);
#464 = CARTESIAN_POINT('',(-15.,100.,5.));
#465 = DIRECTION('',(-1.,-0.,-0.));
#466 = DIRECTION('',(0.,0.,-1.));
#467 = ADVANCED_FACE('',(#468),#486,.T.);
#468 = FACE_BOUND('',#469,.T.);
#469 = EDGE_LOOP('',(#470,#471,#479,#485));
#470 = ORIENTED_EDGE('',*,*,#49,.T.);
#471 = ORIENTED_EDGE('',*,*,#472,.T.);
#472 = EDGE_CURVE('',#41,#473,#475,.T.);
#473 = VERTEX_POINT('',#474);
#474 = CARTESIAN_POINT('',(15.,200.,10.));
#475 = LINE('',#476,#477);
#476 = CARTESIAN_POINT('',(15.,200.,0.));
#477 = VECTOR('',#478,1.);
#478 = DIRECTION('',(0.,0.,1.));
#479 = ORIENTED_EDGE('',*,*,#480,.F.);
#480 = EDGE_CURVE('',#416,#473,#481,.T.);
#481 = LINE('',#482,#483);
#482 = CARTESIAN_POINT('',(15.,9.65E-15,10.));
#483 = VECTOR('',#484,1.);
#484 = DIRECTION('',(0.,1.,0.));
#485 = ORIENTED_EDGE('',*,*,#415,.F.);
#486 = PLANE('',#487);
#487 = AXIS2_PLACEMENT_3D('',#488,#489,#490);
#488 = CARTESIAN_POINT('',(15.,100.,5.));
#489 = DIRECTION('',(1.,0.,0.));
#490 = DIRECTION('',(0.,0.,1.));
#491 = ADVANCED_FACE('',(#492),#504,.T.);
#492 = FACE_BOUND('',#493,.F.);
#493 = EDGE_LOOP('',(#494,#495,#496,#497));
#494 = ORIENTED_EDGE('',*,*,#456,.F.);
#495 = ORIENTED_EDGE('',*,*,#40,.F.);
#496 = ORIENTED_EDGE('',*,*,#472,.T.);
#497 = ORIENTED_EDGE('',*,*,#498,.T.);
#498 = EDGE_CURVE('',#473,#449,#499,.T.);
#499 = CIRCLE('',#500,15.);
#500 = AXIS2_PLACEMENT_3D('',#501,#502,#503);
#501 = CARTESIAN_POINT('',(0.,200.,10.));
#502 = DIRECTION('',(0.,0.,1.));
#503 = DIRECTION('',(1.,0.,0.));
#504 = CYLINDRICAL_SURFACE('',#505,15.);
#505 = AXIS2_PLACEMENT_3D('',#506,#507,#508);
#506 = CARTESIAN_POINT('',(0.,200.,0.));
#507 = DIRECTION('',(-0.,-0.,-1.));
#508 = DIRECTION('',(1.,0.,0.));
#509 = ADVANCED_FACE('',(#510),#546,.F.);
#510 = FACE_BOUND('',#511,.T.);
#511 = EDGE_LOOP('',(#512,#513,#521,#530,#539,#545));
#512 = ORIENTED_EDGE('',*,*,#57,.F.);
#513 = ORIENTED_EDGE('',*,*,#514,.F.);
#514 = EDGE_CURVE('',#515,#58,#517,.T.);
#515 = VERTEX_POINT('',#516);
#516 = CARTESIAN_POINT('',(9.761117612699,-2.172690256584,8.));
#517 = LINE('',#518,#519);
#518 = CARTESIAN_POINT('',(9.761117612699,-2.172690256584,-3.E-17));
#519 = VECTOR('',#520,1.);
#520 = DIRECTION('',(-0.,-0.,-1.));
#521 = ORIENTED_EDGE('',*,*,#522,.T.);
#522 = EDGE_CURVE('',#515,#523,#525,.T.);
#523 = VERTEX_POINT('',#524);
#524 = CARTESIAN_POINT('',(10.,0.,8.));
#525 = CIRCLE('',#526,10.);
#526 = AXIS2_PLACEMENT_3D('',#527,#528,#529);
#527 = CARTESIAN_POINT('',(0.,0.,8.));
#528 = DIRECTION('',(0.,0.,1.));
#529 = DIRECTION('',(1.,0.,0.));
#530 = ORIENTED_EDGE('',*,*,#531,.T.);
#531 = EDGE_CURVE('',#523,#532,#534,.T.);
#532 = VERTEX_POINT('',#533);
#533 = CARTESIAN_POINT('',(9.761117612699,2.172690256587,8.));
#534 = CIRCLE('',#535,10.);
#535 = AXIS2_PLACEMENT_3D('',#536,#537,#538);
#536 = CARTESIAN_POINT('',(0.,0.,8.));
#537 = DIRECTION('',(0.,0.,1.));
#538 = DIRECTION('',(1.,0.,0.));
#539 = ORIENTED_EDGE('',*,*,#540,.T.);
#540 = EDGE_CURVE('',#532,#69,#541,.T.);
#541 = LINE('',#542,#543);
#542 = CARTESIAN_POINT('',(9.761117612699,2.172690256586,-4.E-17));
#543 = VECTOR('',#544,1.);
#544 = DIRECTION('',(-0.,-0.,-1.));
#545 = ORIENTED_EDGE('',*,*,#68,.F.);
#546 = CYLINDRICAL_SURFACE('',#547,10.);
#547 = AXIS2_PLACEMENT_3D('',#548,#549,#550);
#548 = CARTESIAN_POINT('',(0.,0.,0.));
#549 = DIRECTION('',(-0.,-0.,-1.));
#550 = DIRECTION('',(1.,0.,0.));
#551 = ADVANCED_FACE('',(#552),#570,.T.);
#552 = FACE_BOUND('',#553,.T.);
#553 = EDGE_LOOP('',(#554,#555,#563,#569));
#554 = ORIENTED_EDGE('',*,*,#390,.F.);
#555 = ORIENTED_EDGE('',*,*,#556,.T.);
#556 = EDGE_CURVE('',#383,#557,#559,.T.);
#557 = VERTEX_POINT('',#558);
#558 = CARTESIAN_POINT('',(7.997123926647,-1.599533963956,8.));
#559 = LINE('',#560,#561);
#560 = CARTESIAN_POINT('',(7.997123926647,-1.599533963956,0.));
#561 = VECTOR('',#562,1.);
#562 = DIRECTION('',(0.,0.,1.));
#563 = ORIENTED_EDGE('',*,*,#564,.T.);
#564 = EDGE_CURVE('',#557,#515,#565,.T.);
#565 = LINE('',#566,#567);
#566 = CARTESIAN_POINT('',(7.997123926647,-1.599533963956,8.));
#567 = VECTOR('',#568,1.);
#568 = DIRECTION('',(0.951056516295,-0.309016994375,0.));
#569 = ORIENTED_EDGE('',*,*,#514,.T.);
#570 = PLANE('',#571);
#571 = AXIS2_PLACEMENT_3D('',#572,#573,#574);
#572 = CARTESIAN_POINT('',(7.997123926647,-1.599533963956,0.));
#573 = DIRECTION('',(0.309016994375,0.951056516295,0.));
#574 = DIRECTION('',(0.951056516295,-0.309016994375,0.));
#575 = ADVANCED_FACE('',(#576),#594,.T.);
#576 = FACE_BOUND('',#577,.T.);
#577 = EDGE_LOOP('',(#578,#586,#592,#593));
#578 = ORIENTED_EDGE('',*,*,#579,.T.);
#579 = EDGE_CURVE('',#375,#580,#582,.T.);
#580 = VERTEX_POINT('',#581);
#581 = CARTESIAN_POINT('',(7.409991637335,-3.406541344916,8.));
#582 = LINE('',#583,#584);
#583 = CARTESIAN_POINT('',(7.409991637335,-3.406541344916,0.));
#584 = VECTOR('',#585,1.);
#585 = DIRECTION('',(0.,0.,1.));
#586 = ORIENTED_EDGE('',*,*,#587,.T.);
#587 = EDGE_CURVE('',#580,#557,#588,.T.);
#588 = LINE('',#589,#590);
#589 = CARTESIAN_POINT('',(7.409991637335,-3.406541344916,8.));
#590 = VECTOR('',#591,1.);
#591 = DIRECTION('',(0.309016994375,0.951056516295,0.));
#592 = ORIENTED_EDGE('',*,*,#556,.F.);
#593 = ORIENTED_EDGE('',*,*,#382,.F.);
#594 = PLANE('',#595);
#595 = AXIS2_PLACEMENT_3D('',#596,#597,#598);
#596 = CARTESIAN_POINT('',(7.409991637335,-3.406541344916,0.));
#597 = DIRECTION('',(-0.951056516295,0.309016994375,0.));
#598 = DIRECTION('',(0.309016994375,0.951056516295,0.));
#599 = ADVANCED_FACE('',(#600),#618,.T.);
#600 = FACE_BOUND('',#601,.T.);
#601 = EDGE_LOOP('',(#602,#603,#604,#612));
#602 = ORIENTED_EDGE('',*,*,#77,.F.);
#603 = ORIENTED_EDGE('',*,*,#540,.F.);
#604 = ORIENTED_EDGE('',*,*,#605,.T.);
#605 = EDGE_CURVE('',#532,#606,#608,.T.);
#606 = VERTEX_POINT('',#607);
#607 = CARTESIAN_POINT('',(7.997123926647,1.599533963958,8.));
#608 = LINE('',#609,#610);
#609 = CARTESIAN_POINT('',(11.611138688567,2.773798542582,8.));
#610 = VECTOR('',#611,1.);
#611 = DIRECTION('',(-0.951056516295,-0.309016994375,0.));
#612 = ORIENTED_EDGE('',*,*,#613,.F.);
#613 = EDGE_CURVE('',#78,#606,#614,.T.);
#614 = LINE('',#615,#616);
#615 = CARTESIAN_POINT('',(7.997123926647,1.599533963958,0.));
#616 = VECTOR('',#617,1.);
#617 = DIRECTION('',(0.,0.,1.));
#618 = PLANE('',#619);
#619 = AXIS2_PLACEMENT_3D('',#620,#621,#622);
#620 = CARTESIAN_POINT('',(11.611138688567,2.773798542582,0.));
#621 = DIRECTION('',(0.309016994375,-0.951056516295,0.));
#622 = DIRECTION('',(-0.951056516295,-0.309016994375,0.));
#623 = ADVANCED_FACE('',(#624),#642,.T.);
#624 = FACE_BOUND('',#625,.T.);
#625 = EDGE_LOOP('',(#626,#627,#635,#641));
#626 = ORIENTED_EDGE('',*,*,#374,.F.);
#627 = ORIENTED_EDGE('',*,*,#628,.F.);
#628 = EDGE_CURVE('',#629,#366,#631,.T.);
#629 = VERTEX_POINT('',#630);
#630 = CARTESIAN_POINT('',(9.173985323387,-3.979697637545,8.));
#631 = LINE('',#632,#633);
#632 = CARTESIAN_POINT('',(9.173985323387,-3.979697637545,3.E-17));
#633 = VECTOR('',#634,1.);
#634 = DIRECTION('',(-0.,-0.,-1.));
#635 = ORIENTED_EDGE('',*,*,#636,.T.);
#636 = EDGE_CURVE('',#629,#580,#637,.T.);
#637 = LINE('',#638,#639);
#638 = CARTESIAN_POINT('',(11.024006399256,-4.580805923541,8.));
#639 = VECTOR('',#640,1.);
#640 = DIRECTION('',(-0.951056516295,0.309016994375,-0.));
#641 = ORIENTED_EDGE('',*,*,#579,.F.);
#642 = PLANE('',#643);
#643 = AXIS2_PLACEMENT_3D('',#644,#645,#646);
#644 = CARTESIAN_POINT('',(11.024006399256,-4.580805923541,0.));
#645 = DIRECTION('',(-0.309016994375,-0.951056516295,0.));
#646 = DIRECTION('',(-0.951056516295,0.309016994375,0.));
#647 = ADVANCED_FACE('',(#648),#666,.T.);
#648 = FACE_BOUND('',#649,.T.);
#649 = EDGE_LOOP('',(#650,#651,#659,#665));
#650 = ORIENTED_EDGE('',*,*,#613,.T.);
#651 = ORIENTED_EDGE('',*,*,#652,.T.);
#652 = EDGE_CURVE('',#606,#653,#655,.T.);
#653 = VERTEX_POINT('',#654);
#654 = CARTESIAN_POINT('',(7.409991637334,3.406541344918,8.));
#655 = LINE('',#656,#657);
#656 = CARTESIAN_POINT('',(7.997123926647,1.599533963958,8.));
#657 = VECTOR('',#658,1.);
#658 = DIRECTION('',(-0.309016994375,0.951056516295,0.));
#659 = ORIENTED_EDGE('',*,*,#660,.F.);
#660 = EDGE_CURVE('',#86,#653,#661,.T.);
#661 = LINE('',#662,#663);
#662 = CARTESIAN_POINT('',(7.409991637334,3.406541344918,0.));
#663 = VECTOR('',#664,1.);
#664 = DIRECTION('',(0.,0.,1.));
#665 = ORIENTED_EDGE('',*,*,#85,.F.);
#666 = PLANE('',#667);
#667 = AXIS2_PLACEMENT_3D('',#668,#669,#670);
#668 = CARTESIAN_POINT('',(7.997123926647,1.599533963958,0.));
#669 = DIRECTION('',(-0.951056516295,-0.309016994375,0.));
#670 = DIRECTION('',(-0.309016994375,0.951056516295,0.));
#671 = ADVANCED_FACE('',(#672),#691,.F.);
#672 = FACE_BOUND('',#673,.T.);
#673 = EDGE_LOOP('',(#674,#675,#683,#690));
#674 = ORIENTED_EDGE('',*,*,#365,.F.);
#675 = ORIENTED_EDGE('',*,*,#676,.F.);
#676 = EDGE_CURVE('',#677,#358,#679,.T.);
#677 = VERTEX_POINT('',#678);
#678 = CARTESIAN_POINT('',(6.619834742146,-7.495184319726,8.));
#679 = LINE('',#680,#681);
#680 = CARTESIAN_POINT('',(6.619834742146,-7.495184319726,-4.E-17));
#681 = VECTOR('',#682,1.);
#682 = DIRECTION('',(-0.,-0.,-1.));
#683 = ORIENTED_EDGE('',*,*,#684,.T.);
#684 = EDGE_CURVE('',#677,#629,#685,.T.);
#685 = CIRCLE('',#686,10.);
#686 = AXIS2_PLACEMENT_3D('',#687,#688,#689);
#687 = CARTESIAN_POINT('',(0.,0.,8.));
#688 = DIRECTION('',(0.,0.,1.));
#689 = DIRECTION('',(1.,0.,0.));
#690 = ORIENTED_EDGE('',*,*,#628,.T.);
#691 = CYLINDRICAL_SURFACE('',#692,10.);
#692 = AXIS2_PLACEMENT_3D('',#693,#694,#695);
#693 = CARTESIAN_POINT('',(0.,0.,0.));
#694 = DIRECTION('',(-0.,-0.,-1.));
#695 = DIRECTION('',(1.,0.,0.));
#696 = ADVANCED_FACE('',(#697),#715,.T.);
#697 = FACE_BOUND('',#698,.T.);
#698 = EDGE_LOOP('',(#699,#700,#701,#709));
#699 = ORIENTED_EDGE('',*,*,#93,.F.);
#700 = ORIENTED_EDGE('',*,*,#660,.T.);
#701 = ORIENTED_EDGE('',*,*,#702,.T.);
#702 = EDGE_CURVE('',#653,#703,#705,.T.);
#703 = VERTEX_POINT('',#704);
#704 = CARTESIAN_POINT('',(9.173985323386,3.979697637547,8.));
#705 = LINE('',#706,#707);
#706 = CARTESIAN_POINT('',(7.409991637334,3.406541344918,8.));
#707 = VECTOR('',#708,1.);
#708 = DIRECTION('',(0.951056516295,0.309016994375,0.));
#709 = ORIENTED_EDGE('',*,*,#710,.T.);
#710 = EDGE_CURVE('',#703,#94,#711,.T.);
#711 = LINE('',#712,#713);
#712 = CARTESIAN_POINT('',(9.173985323386,3.979697637547,4.E-17));
#713 = VECTOR('',#714,1.);
#714 = DIRECTION('',(-0.,-0.,-1.));
#715 = PLANE('',#716);
#716 = AXIS2_PLACEMENT_3D('',#717,#718,#719);
#717 = CARTESIAN_POINT('',(7.409991637334,3.406541344918,0.));
#718 = DIRECTION('',(-0.309016994375,0.951056516295,0.));
#719 = DIRECTION('',(0.951056516295,0.309016994375,0.));
#720 = ADVANCED_FACE('',(#721),#739,.T.);
#721 = FACE_BOUND('',#722,.T.);
#722 = EDGE_LOOP('',(#723,#724,#732,#738));
#723 = ORIENTED_EDGE('',*,*,#357,.F.);
#724 = ORIENTED_EDGE('',*,*,#725,.T.);
#725 = EDGE_CURVE('',#350,#726,#728,.T.);
#726 = VERTEX_POINT('',#727);
#727 = CARTESIAN_POINT('',(5.529626688226,-5.994641664759,8.));
#728 = LINE('',#729,#730);
#729 = CARTESIAN_POINT('',(5.529626688226,-5.994641664759,0.));
#730 = VECTOR('',#731,1.);
#731 = DIRECTION('',(0.,0.,1.));
#732 = ORIENTED_EDGE('',*,*,#733,.T.);
#733 = EDGE_CURVE('',#726,#677,#734,.T.);
#734 = LINE('',#735,#736);
#735 = CARTESIAN_POINT('',(5.529626688226,-5.994641664759,8.));
#736 = VECTOR('',#737,1.);
#737 = DIRECTION('',(0.587785252292,-0.809016994375,0.));
#738 = ORIENTED_EDGE('',*,*,#676,.T.);
#739 = PLANE('',#740);
#740 = AXIS2_PLACEMENT_3D('',#741,#742,#743);
#741 = CARTESIAN_POINT('',(5.529626688226,-5.994641664759,0.));
#742 = DIRECTION('',(0.809016994375,0.587785252292,0.));
#743 = DIRECTION('',(0.587785252292,-0.809016994375,0.));
#744 = ADVANCED_FACE('',(#745),#764,.F.);
#745 = FACE_BOUND('',#746,.T.);
#746 = EDGE_LOOP('',(#747,#748,#749,#758));
#747 = ORIENTED_EDGE('',*,*,#101,.F.);
#748 = ORIENTED_EDGE('',*,*,#710,.F.);
#749 = ORIENTED_EDGE('',*,*,#750,.T.);
#750 = EDGE_CURVE('',#703,#751,#753,.T.);
#751 = VERTEX_POINT('',#752);
#752 = CARTESIAN_POINT('',(6.619834742145,7.495184319728,8.));
#753 = CIRCLE('',#754,10.);
#754 = AXIS2_PLACEMENT_3D('',#755,#756,#757);
#755 = CARTESIAN_POINT('',(0.,0.,8.));
#756 = DIRECTION('',(0.,0.,1.));
#757 = DIRECTION('',(1.,0.,0.));
#758 = ORIENTED_EDGE('',*,*,#759,.T.);
#759 = EDGE_CURVE('',#751,#102,#760,.T.);
#760 = LINE('',#761,#762);
#761 = CARTESIAN_POINT('',(6.619834742145,7.495184319728,-1.3E-16));
#762 = VECTOR('',#763,1.);
#763 = DIRECTION('',(-0.,-0.,-1.));
#764 = CYLINDRICAL_SURFACE('',#765,10.);
#765 = AXIS2_PLACEMENT_3D('',#766,#767,#768);
#766 = CARTESIAN_POINT('',(0.,0.,0.));
#767 = DIRECTION('',(-0.,-0.,-1.));
#768 = DIRECTION('',(1.,0.,0.));
#769 = ADVANCED_FACE('',(#770),#788,.T.);
#770 = FACE_BOUND('',#771,.T.);
#771 = EDGE_LOOP('',(#772,#780,#786,#787));
#772 = ORIENTED_EDGE('',*,*,#773,.T.);
#773 = EDGE_CURVE('',#342,#774,#776,.T.);
#774 = VERTEX_POINT('',#775);
#775 = CARTESIAN_POINT('',(3.992494398914,-7.111433644114,8.));
#776 = LINE('',#777,#778);
#777 = CARTESIAN_POINT('',(3.992494398914,-7.111433644114,0.));
#778 = VECTOR('',#779,1.);
#779 = DIRECTION('',(0.,0.,1.));
#780 = ORIENTED_EDGE('',*,*,#781,.T.);
#781 = EDGE_CURVE('',#774,#726,#782,.T.);
#782 = LINE('',#783,#784);
#783 = CARTESIAN_POINT('',(3.992494398914,-7.111433644114,8.));
#784 = VECTOR('',#785,1.);
#785 = DIRECTION('',(0.809016994375,0.587785252292,0.));
#786 = ORIENTED_EDGE('',*,*,#725,.F.);
#787 = ORIENTED_EDGE('',*,*,#349,.F.);
#788 = PLANE('',#789);
#789 = AXIS2_PLACEMENT_3D('',#790,#791,#792);
#790 = CARTESIAN_POINT('',(3.992494398914,-7.111433644114,0.));
#791 = DIRECTION('',(-0.587785252292,0.809016994375,0.));
#792 = DIRECTION('',(0.809016994375,0.587785252292,0.));
#793 = ADVANCED_FACE('',(#794),#812,.T.);
#794 = FACE_BOUND('',#795,.T.);
#795 = EDGE_LOOP('',(#796,#797,#798,#806));
#796 = ORIENTED_EDGE('',*,*,#110,.F.);
#797 = ORIENTED_EDGE('',*,*,#759,.F.);
#798 = ORIENTED_EDGE('',*,*,#799,.T.);
#799 = EDGE_CURVE('',#751,#800,#802,.T.);
#800 = VERTEX_POINT('',#801);
#801 = CARTESIAN_POINT('',(5.529626688224,5.99464166476,8.));
#802 = LINE('',#803,#804);
#803 = CARTESIAN_POINT('',(7.763210646935,9.068906243384,8.));
#804 = VECTOR('',#805,1.);
#805 = DIRECTION('',(-0.587785252292,-0.809016994375,0.));
#806 = ORIENTED_EDGE('',*,*,#807,.F.);
#807 = EDGE_CURVE('',#111,#800,#808,.T.);
#808 = LINE('',#809,#810);
#809 = CARTESIAN_POINT('',(5.529626688224,5.99464166476,0.));
#810 = VECTOR('',#811,1.);
#811 = DIRECTION('',(0.,0.,1.));
#812 = PLANE('',#813);
#813 = AXIS2_PLACEMENT_3D('',#814,#815,#816);
#814 = CARTESIAN_POINT('',(7.763210646935,9.068906243384,0.));
#815 = DIRECTION('',(0.809016994375,-0.587785252292,0.));
#816 = DIRECTION('',(-0.587785252292,-0.809016994375,0.));
#817 = ADVANCED_FACE('',(#818),#836,.T.);
#818 = FACE_BOUND('',#819,.T.);
#819 = EDGE_LOOP('',(#820,#821,#829,#835));
#820 = ORIENTED_EDGE('',*,*,#341,.F.);
#821 = ORIENTED_EDGE('',*,*,#822,.F.);
#822 = EDGE_CURVE('',#823,#333,#825,.T.);
#823 = VERTEX_POINT('',#824);
#824 = CARTESIAN_POINT('',(5.082702452834,-8.611976299082,8.));
#825 = LINE('',#826,#827);
#826 = CARTESIAN_POINT('',(5.082702452834,-8.611976299082,4.E-17));
#827 = VECTOR('',#828,1.);
#828 = DIRECTION('',(-0.,-0.,-1.));
#829 = ORIENTED_EDGE('',*,*,#830,.T.);
#830 = EDGE_CURVE('',#823,#774,#831,.T.);
#831 = LINE('',#832,#833);
#832 = CARTESIAN_POINT('',(6.226078357625,-10.18569822273,8.));
#833 = VECTOR('',#834,1.);
#834 = DIRECTION('',(-0.587785252292,0.809016994375,-0.));
#835 = ORIENTED_EDGE('',*,*,#773,.F.);
#836 = PLANE('',#837);
#837 = AXIS2_PLACEMENT_3D('',#838,#839,#840);
#838 = CARTESIAN_POINT('',(6.226078357625,-10.18569822273,0.));
#839 = DIRECTION('',(-0.809016994375,-0.587785252292,0.));
#840 = DIRECTION('',(-0.587785252292,0.809016994375,0.));
#841 = ADVANCED_FACE('',(#842),#860,.T.);
#842 = FACE_BOUND('',#843,.T.);
#843 = EDGE_LOOP('',(#844,#845,#853,#859));
#844 = ORIENTED_EDGE('',*,*,#807,.T.);
#845 = ORIENTED_EDGE('',*,*,#846,.T.);
#846 = EDGE_CURVE('',#800,#847,#849,.T.);
#847 = VERTEX_POINT('',#848);
#848 = CARTESIAN_POINT('',(3.992494398912,7.111433644116,8.));
#849 = LINE('',#850,#851);
#850 = CARTESIAN_POINT('',(5.529626688224,5.99464166476,8.));
#851 = VECTOR('',#852,1.);
#852 = DIRECTION('',(-0.809016994375,0.587785252292,0.));
#853 = ORIENTED_EDGE('',*,*,#854,.F.);
#854 = EDGE_CURVE('',#119,#847,#855,.T.);
#855 = LINE('',#856,#857);
#856 = CARTESIAN_POINT('',(3.992494398912,7.111433644116,0.));
#857 = VECTOR('',#858,1.);
#858 = DIRECTION('',(0.,0.,1.));
#859 = ORIENTED_EDGE('',*,*,#118,.F.);
#860 = PLANE('',#861);
#861 = AXIS2_PLACEMENT_3D('',#862,#863,#864);
#862 = CARTESIAN_POINT('',(5.529626688224,5.99464166476,0.));
#863 = DIRECTION('',(-0.587785252292,-0.809016994375,0.));
#864 = DIRECTION('',(-0.809016994375,0.587785252292,0.));
#865 = ADVANCED_FACE('',(#866),#885,.F.);
#866 = FACE_BOUND('',#867,.T.);
#867 = EDGE_LOOP('',(#868,#869,#877,#884));
#868 = ORIENTED_EDGE('',*,*,#332,.F.);
#869 = ORIENTED_EDGE('',*,*,#870,.F.);
#870 = EDGE_CURVE('',#871,#325,#873,.T.);
#871 = VERTEX_POINT('',#872);
#872 = CARTESIAN_POINT('',(0.950000000001,-9.954772724678,8.));
#873 = LINE('',#874,#875);
#874 = CARTESIAN_POINT('',(0.950000000001,-9.954772724678,0.));
#875 = VECTOR('',#876,1.);
#876 = DIRECTION('',(-0.,-0.,-1.));
#877 = ORIENTED_EDGE('',*,*,#878,.T.);
#878 = EDGE_CURVE('',#871,#823,#879,.T.);
#879 = CIRCLE('',#880,10.);
#880 = AXIS2_PLACEMENT_3D('',#881,#882,#883);
#881 = CARTESIAN_POINT('',(0.,0.,8.));
#882 = DIRECTION('',(0.,0.,1.));
#883 = DIRECTION('',(1.,0.,0.));
#884 = ORIENTED_EDGE('',*,*,#822,.T.);
#885 = CYLINDRICAL_SURFACE('',#886,10.);
#886 = AXIS2_PLACEMENT_3D('',#887,#888,#889);
#887 = CARTESIAN_POINT('',(0.,0.,0.));
#888 = DIRECTION('',(-0.,-0.,-1.));
#889 = DIRECTION('',(1.,0.,0.));
#890 = ADVANCED_FACE('',(#891),#909,.T.);
#891 = FACE_BOUND('',#892,.T.);
#892 = EDGE_LOOP('',(#893,#894,#895,#903));
#893 = ORIENTED_EDGE('',*,*,#126,.F.);
#894 = ORIENTED_EDGE('',*,*,#854,.T.);
#895 = ORIENTED_EDGE('',*,*,#896,.T.);
#896 = EDGE_CURVE('',#847,#897,#899,.T.);
#897 = VERTEX_POINT('',#898);
#898 = CARTESIAN_POINT('',(5.082702452832,8.611976299083,8.));
#899 = LINE('',#900,#901);
#900 = CARTESIAN_POINT('',(3.992494398912,7.111433644116,8.));
#901 = VECTOR('',#902,1.);
#902 = DIRECTION('',(0.587785252292,0.809016994375,0.));
#903 = ORIENTED_EDGE('',*,*,#904,.T.);
#904 = EDGE_CURVE('',#897,#127,#905,.T.);
#905 = LINE('',#906,#907);
#906 = CARTESIAN_POINT('',(5.082702452832,8.611976299083,1.3E-16));
#907 = VECTOR('',#908,1.);
#908 = DIRECTION('',(-0.,-0.,-1.));
#909 = PLANE('',#910);
#910 = AXIS2_PLACEMENT_3D('',#911,#912,#913);
#911 = CARTESIAN_POINT('',(3.992494398912,7.111433644116,0.));
#912 = DIRECTION('',(-0.809016994375,0.587785252292,0.));
#913 = DIRECTION('',(0.587785252292,0.809016994375,0.));
#914 = ADVANCED_FACE('',(#915),#933,.T.);
#915 = FACE_BOUND('',#916,.T.);
#916 = EDGE_LOOP('',(#917,#918,#926,#932));
#917 = ORIENTED_EDGE('',*,*,#324,.F.);
#918 = ORIENTED_EDGE('',*,*,#919,.T.);
#919 = EDGE_CURVE('',#317,#920,#922,.T.);
#920 = VERTEX_POINT('',#921);
#921 = CARTESIAN_POINT('',(0.950000000001,-8.1,8.));
#922 = LINE('',#923,#924);
#923 = CARTESIAN_POINT('',(0.950000000001,-8.1,0.));
#924 = VECTOR('',#925,1.);
#925 = DIRECTION('',(0.,0.,1.));
#926 = ORIENTED_EDGE('',*,*,#927,.T.);
#927 = EDGE_CURVE('',#920,#871,#928,.T.);
#928 = LINE('',#929,#930);
#929 = CARTESIAN_POINT('',(0.950000000001,-8.1,8.));
#930 = VECTOR('',#931,1.);
#931 = DIRECTION('',(0.,-1.,0.));
#932 = ORIENTED_EDGE('',*,*,#870,.T.);
#933 = PLANE('',#934);
#934 = AXIS2_PLACEMENT_3D('',#935,#936,#937);
#935 = CARTESIAN_POINT('',(0.950000000001,-8.1,0.));
#936 = DIRECTION('',(1.,0.,0.));
#937 = DIRECTION('',(0.,-1.,0.));
#938 = ADVANCED_FACE('',(#939),#958,.F.);
#939 = FACE_BOUND('',#940,.T.);
#940 = EDGE_LOOP('',(#941,#942,#943,#952));
#941 = ORIENTED_EDGE('',*,*,#134,.F.);
#942 = ORIENTED_EDGE('',*,*,#904,.F.);
#943 = ORIENTED_EDGE('',*,*,#944,.T.);
#944 = EDGE_CURVE('',#897,#945,#947,.T.);
#945 = VERTEX_POINT('',#946);
#946 = CARTESIAN_POINT('',(0.949999999999,9.954772724678,8.));
#947 = CIRCLE('',#948,10.);
#948 = AXIS2_PLACEMENT_3D('',#949,#950,#951);
#949 = CARTESIAN_POINT('',(0.,0.,8.));
#950 = DIRECTION('',(0.,0.,1.));
#951 = DIRECTION('',(1.,0.,0.));
#952 = ORIENTED_EDGE('',*,*,#953,.T.);
#953 = EDGE_CURVE('',#945,#135,#954,.T.);
#954 = LINE('',#955,#956);
#955 = CARTESIAN_POINT('',(0.949999999999,9.954772724678,-2.1E-16));
#956 = VECTOR('',#957,1.);
#957 = DIRECTION('',(-0.,-0.,-1.));
#958 = CYLINDRICAL_SURFACE('',#959,10.);
#959 = AXIS2_PLACEMENT_3D('',#960,#961,#962);
#960 = CARTESIAN_POINT('',(0.,0.,0.));
#961 = DIRECTION('',(-0.,-0.,-1.));
#962 = DIRECTION('',(1.,0.,0.));
#963 = ADVANCED_FACE('',(#964),#982,.T.);
#964 = FACE_BOUND('',#965,.T.);
#965 = EDGE_LOOP('',(#966,#974,#980,#981));
#966 = ORIENTED_EDGE('',*,*,#967,.T.);
#967 = EDGE_CURVE('',#309,#968,#970,.T.);
#968 = VERTEX_POINT('',#969);
#969 = CARTESIAN_POINT('',(-0.949999999999,-8.1,8.));
#970 = LINE('',#971,#972);
#971 = CARTESIAN_POINT('',(-0.949999999999,-8.1,0.));
#972 = VECTOR('',#973,1.);
#973 = DIRECTION('',(0.,0.,1.));
#974 = ORIENTED_EDGE('',*,*,#975,.T.);
#975 = EDGE_CURVE('',#968,#920,#976,.T.);
#976 = LINE('',#977,#978);
#977 = CARTESIAN_POINT('',(-0.949999999999,-8.1,8.));
#978 = VECTOR('',#979,1.);
#979 = DIRECTION('',(1.,0.,0.));
#980 = ORIENTED_EDGE('',*,*,#919,.F.);
#981 = ORIENTED_EDGE('',*,*,#316,.F.);
#982 = PLANE('',#983);
#983 = AXIS2_PLACEMENT_3D('',#984,#985,#986);
#984 = CARTESIAN_POINT('',(-0.949999999999,-8.1,0.));
#985 = DIRECTION('',(0.,1.,0.));
#986 = DIRECTION('',(1.,0.,0.));
#987 = ADVANCED_FACE('',(#988),#1006,.T.);
#988 = FACE_BOUND('',#989,.T.);
#989 = EDGE_LOOP('',(#990,#991,#992,#1000));
#990 = ORIENTED_EDGE('',*,*,#143,.F.);
#991 = ORIENTED_EDGE('',*,*,#953,.F.);
#992 = ORIENTED_EDGE('',*,*,#993,.T.);
#993 = EDGE_CURVE('',#945,#994,#996,.T.);
#994 = VERTEX_POINT('',#995);
#995 = CARTESIAN_POINT('',(0.949999999999,8.1,8.));
#996 = LINE('',#997,#998);
#997 = CARTESIAN_POINT('',(0.949999999999,11.899999999999,8.));
#998 = VECTOR('',#999,1.);
#999 = DIRECTION('',(0.,-1.,-0.));
#1000 = ORIENTED_EDGE('',*,*,#1001,.F.);
#1001 = EDGE_CURVE('',#144,#994,#1002,.T.);
#1002 = LINE('',#1003,#1004);
#1003 = CARTESIAN_POINT('',(0.949999999999,8.1,0.));
#1004 = VECTOR('',#1005,1.);
#1005 = DIRECTION('',(0.,0.,1.));
#1006 = PLANE('',#1007);
#1007 = AXIS2_PLACEMENT_3D('',#1008,#1009,#1010);
#1008 = CARTESIAN_POINT('',(0.949999999999,11.899999999999,0.));
#1009 = DIRECTION('',(1.,0.,0.));
#1010 = DIRECTION('',(0.,-1.,0.));
#1011 = ADVANCED_FACE('',(#1012),#1030,.T.);
#1012 = FACE_BOUND('',#1013,.T.);
#1013 = EDGE_LOOP('',(#1014,#1015,#1023,#1029));
#1014 = ORIENTED_EDGE('',*,*,#308,.F.);
#1015 = ORIENTED_EDGE('',*,*,#1016,.F.);
#1016 = EDGE_CURVE('',#1017,#300,#1019,.T.);
#1017 = VERTEX_POINT('',#1018);
#1018 = CARTESIAN_POINT('',(-0.949999999999,-9.954772724678,8.));
#1019 = LINE('',#1020,#1021);
#1020 = CARTESIAN_POINT('',(-0.949999999999,-9.954772724678,0.));
#1021 = VECTOR('',#1022,1.);
#1022 = DIRECTION('',(-0.,-0.,-1.));
#1023 = ORIENTED_EDGE('',*,*,#1024,.T.);
#1024 = EDGE_CURVE('',#1017,#968,#1025,.T.);
#1025 = LINE('',#1026,#1027);
#1026 = CARTESIAN_POINT('',(-0.949999999999,-11.89999999999,8.));
#1027 = VECTOR('',#1028,1.);
#1028 = DIRECTION('',(0.,1.,0.));
#1029 = ORIENTED_EDGE('',*,*,#967,.F.);
#1030 = PLANE('',#1031);
#1031 = AXIS2_PLACEMENT_3D('',#1032,#1033,#1034);
#1032 = CARTESIAN_POINT('',(-0.949999999999,-11.89999999999,0.));
#1033 = DIRECTION('',(-1.,0.,0.));
#1034 = DIRECTION('',(0.,1.,0.));
#1035 = ADVANCED_FACE('',(#1036),#1054,.T.);
#1036 = FACE_BOUND('',#1037,.T.);
#1037 = EDGE_LOOP('',(#1038,#1039,#1047,#1053));
#1038 = ORIENTED_EDGE('',*,*,#1001,.T.);
#1039 = ORIENTED_EDGE('',*,*,#1040,.T.);
#1040 = EDGE_CURVE('',#994,#1041,#1043,.T.);
#1041 = VERTEX_POINT('',#1042);
#1042 = CARTESIAN_POINT('',(-0.950000000001,8.1,8.));
#1043 = LINE('',#1044,#1045);
#1044 = CARTESIAN_POINT('',(0.949999999999,8.1,8.));
#1045 = VECTOR('',#1046,1.);
#1046 = DIRECTION('',(-1.,0.,0.));
#1047 = ORIENTED_EDGE('',*,*,#1048,.F.);
#1048 = EDGE_CURVE('',#152,#1041,#1049,.T.);
#1049 = LINE('',#1050,#1051);
#1050 = CARTESIAN_POINT('',(-0.950000000001,8.1,0.));
#1051 = VECTOR('',#1052,1.);
#1052 = DIRECTION('',(0.,0.,1.));
#1053 = ORIENTED_EDGE('',*,*,#151,.F.);
#1054 = PLANE('',#1055);
#1055 = AXIS2_PLACEMENT_3D('',#1056,#1057,#1058);
#1056 = CARTESIAN_POINT('',(0.949999999999,8.1,0.));
#1057 = DIRECTION('',(0.,-1.,0.));
#1058 = DIRECTION('',(-1.,0.,0.));
#1059 = ADVANCED_FACE('',(#1060),#1079,.F.);
#1060 = FACE_BOUND('',#1061,.T.);
#1061 = EDGE_LOOP('',(#1062,#1063,#1071,#1078));
#1062 = ORIENTED_EDGE('',*,*,#299,.F.);
#1063 = ORIENTED_EDGE('',*,*,#1064,.F.);
#1064 = EDGE_CURVE('',#1065,#292,#1067,.T.);
#1065 = VERTEX_POINT('',#1066);
#1066 = CARTESIAN_POINT('',(-5.082702452832,-8.611976299083,8.));
#1067 = LINE('',#1068,#1069);
#1068 = CARTESIAN_POINT('',(-5.082702452832,-8.611976299083,8.E-17));
#1069 = VECTOR('',#1070,1.);
#1070 = DIRECTION('',(-0.,-0.,-1.));
#1071 = ORIENTED_EDGE('',*,*,#1072,.T.);
#1072 = EDGE_CURVE('',#1065,#1017,#1073,.T.);
#1073 = CIRCLE('',#1074,10.);
#1074 = AXIS2_PLACEMENT_3D('',#1075,#1076,#1077);
#1075 = CARTESIAN_POINT('',(0.,0.,8.));
#1076 = DIRECTION('',(0.,0.,1.));
#1077 = DIRECTION('',(1.,0.,0.));
#1078 = ORIENTED_EDGE('',*,*,#1016,.T.);
#1079 = CYLINDRICAL_SURFACE('',#1080,10.);
#1080 = AXIS2_PLACEMENT_3D('',#1081,#1082,#1083);
#1081 = CARTESIAN_POINT('',(0.,0.,0.));
#1082 = DIRECTION('',(-0.,-0.,-1.));
#1083 = DIRECTION('',(1.,0.,0.));
#1084 = ADVANCED_FACE('',(#1085),#1103,.T.);
#1085 = FACE_BOUND('',#1086,.T.);
#1086 = EDGE_LOOP('',(#1087,#1088,#1089,#1097));
#1087 = ORIENTED_EDGE('',*,*,#159,.F.);
#1088 = ORIENTED_EDGE('',*,*,#1048,.T.);
#1089 = ORIENTED_EDGE('',*,*,#1090,.T.);
#1090 = EDGE_CURVE('',#1041,#1091,#1093,.T.);
#1091 = VERTEX_POINT('',#1092);
#1092 = CARTESIAN_POINT('',(-0.950000000001,9.954772724678,8.));
#1093 = LINE('',#1094,#1095);
#1094 = CARTESIAN_POINT('',(-0.950000000001,8.1,8.));
#1095 = VECTOR('',#1096,1.);
#1096 = DIRECTION('',(0.,1.,0.));
#1097 = ORIENTED_EDGE('',*,*,#1098,.T.);
#1098 = EDGE_CURVE('',#1091,#160,#1099,.T.);
#1099 = LINE('',#1100,#1101);
#1100 = CARTESIAN_POINT('',(-0.950000000001,9.954772724678,2.1E-16));
#1101 = VECTOR('',#1102,1.);
#1102 = DIRECTION('',(-0.,-0.,-1.));
#1103 = PLANE('',#1104);
#1104 = AXIS2_PLACEMENT_3D('',#1105,#1106,#1107);
#1105 = CARTESIAN_POINT('',(-0.950000000001,8.1,0.));
#1106 = DIRECTION('',(-1.,0.,0.));
#1107 = DIRECTION('',(0.,1.,0.));
#1108 = ADVANCED_FACE('',(#1109),#1127,.T.);
#1109 = FACE_BOUND('',#1110,.T.);
#1110 = EDGE_LOOP('',(#1111,#1112,#1120,#1126));
#1111 = ORIENTED_EDGE('',*,*,#291,.F.);
#1112 = ORIENTED_EDGE('',*,*,#1113,.T.);
#1113 = EDGE_CURVE('',#284,#1114,#1116,.T.);
#1114 = VERTEX_POINT('',#1115);
#1115 = CARTESIAN_POINT('',(-3.992494398912,-7.111433644116,8.));
#1116 = LINE('',#1117,#1118);
#1117 = CARTESIAN_POINT('',(-3.992494398912,-7.111433644116,0.));
#1118 = VECTOR('',#1119,1.);
#1119 = DIRECTION('',(0.,0.,1.));
#1120 = ORIENTED_EDGE('',*,*,#1121,.T.);
#1121 = EDGE_CURVE('',#1114,#1065,#1122,.T.);
#1122 = LINE('',#1123,#1124);
#1123 = CARTESIAN_POINT('',(-3.992494398912,-7.111433644116,8.));
#1124 = VECTOR('',#1125,1.);
#1125 = DIRECTION('',(-0.587785252292,-0.809016994375,0.));
#1126 = ORIENTED_EDGE('',*,*,#1064,.T.);
#1127 = PLANE('',#1128);
#1128 = AXIS2_PLACEMENT_3D('',#1129,#1130,#1131);
#1129 = CARTESIAN_POINT('',(-3.992494398912,-7.111433644116,0.));
#1130 = DIRECTION('',(0.809016994375,-0.587785252292,0.));
#1131 = DIRECTION('',(-0.587785252292,-0.809016994375,0.));
#1132 = ADVANCED_FACE('',(#1133),#1152,.F.);
#1133 = FACE_BOUND('',#1134,.T.);
#1134 = EDGE_LOOP('',(#1135,#1136,#1137,#1146));
#1135 = ORIENTED_EDGE('',*,*,#167,.F.);
#1136 = ORIENTED_EDGE('',*,*,#1098,.F.);
#1137 = ORIENTED_EDGE('',*,*,#1138,.T.);
#1138 = EDGE_CURVE('',#1091,#1139,#1141,.T.);
#1139 = VERTEX_POINT('',#1140);
#1140 = CARTESIAN_POINT('',(-5.082702452834,8.611976299082,8.));
#1141 = CIRCLE('',#1142,10.);
#1142 = AXIS2_PLACEMENT_3D('',#1143,#1144,#1145);
#1143 = CARTESIAN_POINT('',(0.,0.,8.));
#1144 = DIRECTION('',(0.,0.,1.));
#1145 = DIRECTION('',(1.,0.,0.));
#1146 = ORIENTED_EDGE('',*,*,#1147,.T.);
#1147 = EDGE_CURVE('',#1139,#168,#1148,.T.);
#1148 = LINE('',#1149,#1150);
#1149 = CARTESIAN_POINT('',(-5.082702452834,8.611976299082,-2.5E-16));
#1150 = VECTOR('',#1151,1.);
#1151 = DIRECTION('',(-0.,-0.,-1.));
#1152 = CYLINDRICAL_SURFACE('',#1153,10.);
#1153 = AXIS2_PLACEMENT_3D('',#1154,#1155,#1156);
#1154 = CARTESIAN_POINT('',(0.,0.,0.));
#1155 = DIRECTION('',(-0.,-0.,-1.));
#1156 = DIRECTION('',(1.,0.,0.));
#1157 = ADVANCED_FACE('',(#1158),#1176,.T.);
#1158 = FACE_BOUND('',#1159,.T.);
#1159 = EDGE_LOOP('',(#1160,#1168,#1174,#1175));
#1160 = ORIENTED_EDGE('',*,*,#1161,.T.);
#1161 = EDGE_CURVE('',#276,#1162,#1164,.T.);
#1162 = VERTEX_POINT('',#1163);
#1163 = CARTESIAN_POINT('',(-5.529626688224,-5.99464166476,8.));
#1164 = LINE('',#1165,#1166);
#1165 = CARTESIAN_POINT('',(-5.529626688224,-5.99464166476,0.));
#1166 = VECTOR('',#1167,1.);
#1167 = DIRECTION('',(0.,0.,1.));
#1168 = ORIENTED_EDGE('',*,*,#1169,.T.);
#1169 = EDGE_CURVE('',#1162,#1114,#1170,.T.);
#1170 = LINE('',#1171,#1172);
#1171 = CARTESIAN_POINT('',(-5.529626688224,-5.99464166476,8.));
#1172 = VECTOR('',#1173,1.);
#1173 = DIRECTION('',(0.809016994375,-0.587785252292,0.));
#1174 = ORIENTED_EDGE('',*,*,#1113,.F.);
#1175 = ORIENTED_EDGE('',*,*,#283,.F.);
#1176 = PLANE('',#1177);
#1177 = AXIS2_PLACEMENT_3D('',#1178,#1179,#1180);
#1178 = CARTESIAN_POINT('',(-5.529626688224,-5.99464166476,0.));
#1179 = DIRECTION('',(0.587785252292,0.809016994375,0.));
#1180 = DIRECTION('',(0.809016994375,-0.587785252292,0.));
#1181 = ADVANCED_FACE('',(#1182),#1200,.T.);
#1182 = FACE_BOUND('',#1183,.T.);
#1183 = EDGE_LOOP('',(#1184,#1185,#1186,#1194));
#1184 = ORIENTED_EDGE('',*,*,#176,.F.);
#1185 = ORIENTED_EDGE('',*,*,#1147,.F.);
#1186 = ORIENTED_EDGE('',*,*,#1187,.T.);
#1187 = EDGE_CURVE('',#1139,#1188,#1190,.T.);
#1188 = VERTEX_POINT('',#1189);
#1189 = CARTESIAN_POINT('',(-3.992494398914,7.111433644114,8.));
#1190 = LINE('',#1191,#1192);
#1191 = CARTESIAN_POINT('',(-6.226078357625,10.185698222738,8.));
#1192 = VECTOR('',#1193,1.);
#1193 = DIRECTION('',(0.587785252292,-0.809016994375,0.));
#1194 = ORIENTED_EDGE('',*,*,#1195,.F.);
#1195 = EDGE_CURVE('',#177,#1188,#1196,.T.);
#1196 = LINE('',#1197,#1198);
#1197 = CARTESIAN_POINT('',(-3.992494398914,7.111433644114,0.));
#1198 = VECTOR('',#1199,1.);
#1199 = DIRECTION('',(0.,0.,1.));
#1200 = PLANE('',#1201);
#1201 = AXIS2_PLACEMENT_3D('',#1202,#1203,#1204);
#1202 = CARTESIAN_POINT('',(-6.226078357625,10.185698222738,0.));
#1203 = DIRECTION('',(0.809016994375,0.587785252292,0.));
#1204 = DIRECTION('',(0.587785252292,-0.809016994375,0.));
#1205 = ADVANCED_FACE('',(#1206),#1224,.T.);
#1206 = FACE_BOUND('',#1207,.T.);
#1207 = EDGE_LOOP('',(#1208,#1209,#1217,#1223));
#1208 = ORIENTED_EDGE('',*,*,#275,.F.);
#1209 = ORIENTED_EDGE('',*,*,#1210,.F.);
#1210 = EDGE_CURVE('',#1211,#267,#1213,.T.);
#1211 = VERTEX_POINT('',#1212);
#1212 = CARTESIAN_POINT('',(-6.619834742145,-7.495184319728,8.));
#1213 = LINE('',#1214,#1215);
#1214 = CARTESIAN_POINT('',(-6.619834742145,-7.495184319728,-8.E-17));
#1215 = VECTOR('',#1216,1.);
#1216 = DIRECTION('',(-0.,-0.,-1.));
#1217 = ORIENTED_EDGE('',*,*,#1218,.T.);
#1218 = EDGE_CURVE('',#1211,#1162,#1219,.T.);
#1219 = LINE('',#1220,#1221);
#1220 = CARTESIAN_POINT('',(-7.763210646935,-9.068906243384,8.));
#1221 = VECTOR('',#1222,1.);
#1222 = DIRECTION('',(0.587785252292,0.809016994375,-0.));
#1223 = ORIENTED_EDGE('',*,*,#1161,.F.);
#1224 = PLANE('',#1225);
#1225 = AXIS2_PLACEMENT_3D('',#1226,#1227,#1228);
#1226 = CARTESIAN_POINT('',(-7.763210646935,-9.068906243384,0.));
#1227 = DIRECTION('',(-0.809016994375,0.587785252292,0.));
#1228 = DIRECTION('',(0.587785252292,0.809016994375,0.));
#1229 = ADVANCED_FACE('',(#1230),#1248,.T.);
#1230 = FACE_BOUND('',#1231,.T.);
#1231 = EDGE_LOOP('',(#1232,#1233,#1241,#1247));
#1232 = ORIENTED_EDGE('',*,*,#1195,.T.);
#1233 = ORIENTED_EDGE('',*,*,#1234,.T.);
#1234 = EDGE_CURVE('',#1188,#1235,#1237,.T.);
#1235 = VERTEX_POINT('',#1236);
#1236 = CARTESIAN_POINT('',(-5.529626688226,5.994641664759,8.));
#1237 = LINE('',#1238,#1239);
#1238 = CARTESIAN_POINT('',(-3.992494398914,7.111433644114,8.));
#1239 = VECTOR('',#1240,1.);
#1240 = DIRECTION('',(-0.809016994375,-0.587785252292,0.));
#1241 = ORIENTED_EDGE('',*,*,#1242,.F.);
#1242 = EDGE_CURVE('',#185,#1235,#1243,.T.);
#1243 = LINE('',#1244,#1245);
#1244 = CARTESIAN_POINT('',(-5.529626688226,5.994641664759,0.));
#1245 = VECTOR('',#1246,1.);
#1246 = DIRECTION('',(0.,0.,1.));
#1247 = ORIENTED_EDGE('',*,*,#184,.F.);
#1248 = PLANE('',#1249);
#1249 = AXIS2_PLACEMENT_3D('',#1250,#1251,#1252);
#1250 = CARTESIAN_POINT('',(-3.992494398914,7.111433644114,0.));
#1251 = DIRECTION('',(0.587785252292,-0.809016994375,0.));
#1252 = DIRECTION('',(-0.809016994375,-0.587785252292,0.));
#1253 = ADVANCED_FACE('',(#1254),#1273,.F.);
#1254 = FACE_BOUND('',#1255,.T.);
#1255 = EDGE_LOOP('',(#1256,#1257,#1265,#1272));
#1256 = ORIENTED_EDGE('',*,*,#266,.F.);
#1257 = ORIENTED_EDGE('',*,*,#1258,.F.);
#1258 = EDGE_CURVE('',#1259,#259,#1261,.T.);
#1259 = VERTEX_POINT('',#1260);
#1260 = CARTESIAN_POINT('',(-9.173985323386,-3.979697637547,8.));
#1261 = LINE('',#1262,#1263);
#1262 = CARTESIAN_POINT('',(-9.173985323386,-3.979697637547,1.7E-16));
#1263 = VECTOR('',#1264,1.);
#1264 = DIRECTION('',(-0.,-0.,-1.));
#1265 = ORIENTED_EDGE('',*,*,#1266,.T.);
#1266 = EDGE_CURVE('',#1259,#1211,#1267,.T.);
#1267 = CIRCLE('',#1268,10.);
#1268 = AXIS2_PLACEMENT_3D('',#1269,#1270,#1271);
#1269 = CARTESIAN_POINT('',(0.,0.,8.));
#1270 = DIRECTION('',(0.,0.,1.));
#1271 = DIRECTION('',(1.,0.,0.));
#1272 = ORIENTED_EDGE('',*,*,#1210,.T.);
#1273 = CYLINDRICAL_SURFACE('',#1274,10.);
#1274 = AXIS2_PLACEMENT_3D('',#1275,#1276,#1277);
#1275 = CARTESIAN_POINT('',(0.,0.,0.));
#1276 = DIRECTION('',(-0.,-0.,-1.));
#1277 = DIRECTION('',(1.,0.,0.));
#1278 = ADVANCED_FACE('',(#1279),#1297,.T.);
#1279 = FACE_BOUND('',#1280,.T.);
#1280 = EDGE_LOOP('',(#1281,#1282,#1283,#1291));
#1281 = ORIENTED_EDGE('',*,*,#192,.F.);
#1282 = ORIENTED_EDGE('',*,*,#1242,.T.);
#1283 = ORIENTED_EDGE('',*,*,#1284,.T.);
#1284 = EDGE_CURVE('',#1235,#1285,#1287,.T.);
#1285 = VERTEX_POINT('',#1286);
#1286 = CARTESIAN_POINT('',(-6.619834742146,7.495184319726,8.));
#1287 = LINE('',#1288,#1289);
#1288 = CARTESIAN_POINT('',(-5.529626688226,5.994641664759,8.));
#1289 = VECTOR('',#1290,1.);
#1290 = DIRECTION('',(-0.587785252292,0.809016994375,0.));
#1291 = ORIENTED_EDGE('',*,*,#1292,.T.);
#1292 = EDGE_CURVE('',#1285,#193,#1293,.T.);
#1293 = LINE('',#1294,#1295);
#1294 = CARTESIAN_POINT('',(-6.619834742146,7.495184319726,2.5E-16));
#1295 = VECTOR('',#1296,1.);
#1296 = DIRECTION('',(-0.,-0.,-1.));
#1297 = PLANE('',#1298);
#1298 = AXIS2_PLACEMENT_3D('',#1299,#1300,#1301);
#1299 = CARTESIAN_POINT('',(-5.529626688226,5.994641664759,0.));
#1300 = DIRECTION('',(-0.809016994375,-0.587785252292,0.));
#1301 = DIRECTION('',(-0.587785252292,0.809016994375,0.));
#1302 = ADVANCED_FACE('',(#1303),#1321,.T.);
#1303 = FACE_BOUND('',#1304,.T.);
#1304 = EDGE_LOOP('',(#1305,#1306,#1314,#1320));
#1305 = ORIENTED_EDGE('',*,*,#258,.F.);
#1306 = ORIENTED_EDGE('',*,*,#1307,.T.);
#1307 = EDGE_CURVE('',#251,#1308,#1310,.T.);
#1308 = VERTEX_POINT('',#1309);
#1309 = CARTESIAN_POINT('',(-7.409991637334,-3.406541344918,8.));
#1310 = LINE('',#1311,#1312);
#1311 = CARTESIAN_POINT('',(-7.409991637334,-3.406541344918,0.));
#1312 = VECTOR('',#1313,1.);
#1313 = DIRECTION('',(0.,0.,1.));
#1314 = ORIENTED_EDGE('',*,*,#1315,.T.);
#1315 = EDGE_CURVE('',#1308,#1259,#1316,.T.);
#1316 = LINE('',#1317,#1318);
#1317 = CARTESIAN_POINT('',(-7.409991637334,-3.406541344918,8.));
#1318 = VECTOR('',#1319,1.);
#1319 = DIRECTION('',(-0.951056516295,-0.309016994375,0.));
#1320 = ORIENTED_EDGE('',*,*,#1258,.T.);
#1321 = PLANE('',#1322);
#1322 = AXIS2_PLACEMENT_3D('',#1323,#1324,#1325);
#1323 = CARTESIAN_POINT('',(-7.409991637334,-3.406541344918,0.));
#1324 = DIRECTION('',(0.309016994375,-0.951056516295,0.));
#1325 = DIRECTION('',(-0.951056516295,-0.309016994375,0.));
#1326 = ADVANCED_FACE('',(#1327),#1346,.F.);
#1327 = FACE_BOUND('',#1328,.T.);
#1328 = EDGE_LOOP('',(#1329,#1330,#1331,#1340));
#1329 = ORIENTED_EDGE('',*,*,#200,.F.);
#1330 = ORIENTED_EDGE('',*,*,#1292,.F.);
#1331 = ORIENTED_EDGE('',*,*,#1332,.T.);
#1332 = EDGE_CURVE('',#1285,#1333,#1335,.T.);
#1333 = VERTEX_POINT('',#1334);
#1334 = CARTESIAN_POINT('',(-9.173985323387,3.979697637545,8.));
#1335 = CIRCLE('',#1336,10.);
#1336 = AXIS2_PLACEMENT_3D('',#1337,#1338,#1339);
#1337 = CARTESIAN_POINT('',(0.,0.,8.));
#1338 = DIRECTION('',(0.,0.,1.));
#1339 = DIRECTION('',(1.,0.,0.));
#1340 = ORIENTED_EDGE('',*,*,#1341,.T.);
#1341 = EDGE_CURVE('',#1333,#201,#1342,.T.);
#1342 = LINE('',#1343,#1344);
#1343 = CARTESIAN_POINT('',(-9.173985323387,3.979697637545,-2.4E-16));
#1344 = VECTOR('',#1345,1.);
#1345 = DIRECTION('',(-0.,-0.,-1.));
#1346 = CYLINDRICAL_SURFACE('',#1347,10.);
#1347 = AXIS2_PLACEMENT_3D('',#1348,#1349,#1350);
#1348 = CARTESIAN_POINT('',(0.,0.,0.));
#1349 = DIRECTION('',(-0.,-0.,-1.));
#1350 = DIRECTION('',(1.,0.,0.));
#1351 = ADVANCED_FACE('',(#1352),#1370,.T.);
#1352 = FACE_BOUND('',#1353,.T.);
#1353 = EDGE_LOOP('',(#1354,#1362,#1368,#1369));
#1354 = ORIENTED_EDGE('',*,*,#1355,.T.);
#1355 = EDGE_CURVE('',#243,#1356,#1358,.T.);
#1356 = VERTEX_POINT('',#1357);
#1357 = CARTESIAN_POINT('',(-7.997123926647,-1.599533963958,8.));
#1358 = LINE('',#1359,#1360);
#1359 = CARTESIAN_POINT('',(-7.997123926647,-1.599533963958,0.));
#1360 = VECTOR('',#1361,1.);
#1361 = DIRECTION('',(0.,0.,1.));
#1362 = ORIENTED_EDGE('',*,*,#1363,.T.);
#1363 = EDGE_CURVE('',#1356,#1308,#1364,.T.);
#1364 = LINE('',#1365,#1366);
#1365 = CARTESIAN_POINT('',(-7.997123926647,-1.599533963958,8.));
#1366 = VECTOR('',#1367,1.);
#1367 = DIRECTION('',(0.309016994375,-0.951056516295,0.));
#1368 = ORIENTED_EDGE('',*,*,#1307,.F.);
#1369 = ORIENTED_EDGE('',*,*,#250,.F.);
#1370 = PLANE('',#1371);
#1371 = AXIS2_PLACEMENT_3D('',#1372,#1373,#1374);
#1372 = CARTESIAN_POINT('',(-7.997123926647,-1.599533963958,0.));
#1373 = DIRECTION('',(0.951056516295,0.309016994375,0.));
#1374 = DIRECTION('',(0.309016994375,-0.951056516295,0.));
#1375 = ADVANCED_FACE('',(#1376),#1394,.T.);
#1376 = FACE_BOUND('',#1377,.T.);
#1377 = EDGE_LOOP('',(#1378,#1379,#1380,#1388));
#1378 = ORIENTED_EDGE('',*,*,#209,.F.);
#1379 = ORIENTED_EDGE('',*,*,#1341,.F.);
#1380 = ORIENTED_EDGE('',*,*,#1381,.T.);
#1381 = EDGE_CURVE('',#1333,#1382,#1384,.T.);
#1382 = VERTEX_POINT('',#1383);
#1383 = CARTESIAN_POINT('',(-7.409991637335,3.406541344916,8.));
#1384 = LINE('',#1385,#1386);
#1385 = CARTESIAN_POINT('',(-11.02400639925,4.580805923541,8.));
#1386 = VECTOR('',#1387,1.);
#1387 = DIRECTION('',(0.951056516295,-0.309016994375,0.));
#1388 = ORIENTED_EDGE('',*,*,#1389,.F.);
#1389 = EDGE_CURVE('',#210,#1382,#1390,.T.);
#1390 = LINE('',#1391,#1392);
#1391 = CARTESIAN_POINT('',(-7.409991637335,3.406541344916,0.));
#1392 = VECTOR('',#1393,1.);
#1393 = DIRECTION('',(0.,0.,1.));
#1394 = PLANE('',#1395);
#1395 = AXIS2_PLACEMENT_3D('',#1396,#1397,#1398);
#1396 = CARTESIAN_POINT('',(-11.02400639925,4.580805923541,0.));
#1397 = DIRECTION('',(0.309016994375,0.951056516295,0.));
#1398 = DIRECTION('',(0.951056516295,-0.309016994375,0.));
#1399 = ADVANCED_FACE('',(#1400),#1418,.T.);
#1400 = FACE_BOUND('',#1401,.T.);
#1401 = EDGE_LOOP('',(#1402,#1403,#1411,#1417));
#1402 = ORIENTED_EDGE('',*,*,#242,.F.);
#1403 = ORIENTED_EDGE('',*,*,#1404,.F.);
#1404 = EDGE_CURVE('',#1405,#234,#1407,.T.);
#1405 = VERTEX_POINT('',#1406);
#1406 = CARTESIAN_POINT('',(-9.761117612699,-2.172690256586,8.));
#1407 = LINE('',#1408,#1409);
#1408 = CARTESIAN_POINT('',(-9.761117612699,-2.172690256586,-1.7E-16));
#1409 = VECTOR('',#1410,1.);
#1410 = DIRECTION('',(-0.,-0.,-1.));
#1411 = ORIENTED_EDGE('',*,*,#1412,.T.);
#1412 = EDGE_CURVE('',#1405,#1356,#1413,.T.);
#1413 = LINE('',#1414,#1415);
#1414 = CARTESIAN_POINT('',(-11.61113868856,-2.773798542582,8.));
#1415 = VECTOR('',#1416,1.);
#1416 = DIRECTION('',(0.951056516295,0.309016994375,-0.));
#1417 = ORIENTED_EDGE('',*,*,#1355,.F.);
#1418 = PLANE('',#1419);
#1419 = AXIS2_PLACEMENT_3D('',#1420,#1421,#1422);
#1420 = CARTESIAN_POINT('',(-11.61113868856,-2.773798542582,0.));
#1421 = DIRECTION('',(-0.309016994375,0.951056516295,0.));
#1422 = DIRECTION('',(0.951056516295,0.309016994375,0.));
#1423 = ADVANCED_FACE('',(#1424),#1442,.T.);
#1424 = FACE_BOUND('',#1425,.T.);
#1425 = EDGE_LOOP('',(#1426,#1427,#1435,#1441));
#1426 = ORIENTED_EDGE('',*,*,#1389,.T.);
#1427 = ORIENTED_EDGE('',*,*,#1428,.T.);
#1428 = EDGE_CURVE('',#1382,#1429,#1431,.T.);
#1429 = VERTEX_POINT('',#1430);
#1430 = CARTESIAN_POINT('',(-7.997123926647,1.599533963956,8.));
#1431 = LINE('',#1432,#1433);
#1432 = CARTESIAN_POINT('',(-7.409991637335,3.406541344916,8.));
#1433 = VECTOR('',#1434,1.);
#1434 = DIRECTION('',(-0.309016994375,-0.951056516295,0.));
#1435 = ORIENTED_EDGE('',*,*,#1436,.F.);
#1436 = EDGE_CURVE('',#218,#1429,#1437,.T.);
#1437 = LINE('',#1438,#1439);
#1438 = CARTESIAN_POINT('',(-7.997123926647,1.599533963956,0.));
#1439 = VECTOR('',#1440,1.);
#1440 = DIRECTION('',(0.,0.,1.));
#1441 = ORIENTED_EDGE('',*,*,#217,.F.);
#1442 = PLANE('',#1443);
#1443 = AXIS2_PLACEMENT_3D('',#1444,#1445,#1446);
#1444 = CARTESIAN_POINT('',(-7.409991637335,3.406541344916,0.));
#1445 = DIRECTION('',(0.951056516295,-0.309016994375,0.));
#1446 = DIRECTION('',(-0.309016994375,-0.951056516295,0.));
#1447 = ADVANCED_FACE('',(#1448),#1467,.F.);
#1448 = FACE_BOUND('',#1449,.T.);
#1449 = EDGE_LOOP('',(#1450,#1451,#1459,#1466));
#1450 = ORIENTED_EDGE('',*,*,#233,.F.);
#1451 = ORIENTED_EDGE('',*,*,#1452,.F.);
#1452 = EDGE_CURVE('',#1453,#226,#1455,.T.);
#1453 = VERTEX_POINT('',#1454);
#1454 = CARTESIAN_POINT('',(-9.761117612699,2.172690256584,8.));
#1455 = LINE('',#1456,#1457);
#1456 = CARTESIAN_POINT('',(-9.761117612699,2.172690256584,2.4E-16));
#1457 = VECTOR('',#1458,1.);
#1458 = DIRECTION('',(-0.,-0.,-1.));
#1459 = ORIENTED_EDGE('',*,*,#1460,.T.);
#1460 = EDGE_CURVE('',#1453,#1405,#1461,.T.);
#1461 = CIRCLE('',#1462,10.);
#1462 = AXIS2_PLACEMENT_3D('',#1463,#1464,#1465);
#1463 = CARTESIAN_POINT('',(0.,0.,8.));
#1464 = DIRECTION('',(0.,0.,1.));
#1465 = DIRECTION('',(1.,0.,0.));
#1466 = ORIENTED_EDGE('',*,*,#1404,.T.);
#1467 = CYLINDRICAL_SURFACE('',#1468,10.);
#1468 = AXIS2_PLACEMENT_3D('',#1469,#1470,#1471);
#1469 = CARTESIAN_POINT('',(0.,0.,0.));
#1470 = DIRECTION('',(-0.,-0.,-1.));
#1471 = DIRECTION('',(1.,0.,0.));
#1472 = ADVANCED_FACE('',(#1473),#1484,.T.);
#1473 = FACE_BOUND('',#1474,.T.);
#1474 = EDGE_LOOP('',(#1475,#1476,#1477,#1483));
#1475 = ORIENTED_EDGE('',*,*,#225,.F.);
#1476 = ORIENTED_EDGE('',*,*,#1436,.T.);
#1477 = ORIENTED_EDGE('',*,*,#1478,.T.);
#1478 = EDGE_CURVE('',#1429,#1453,#1479,.T.);
#1479 = LINE('',#1480,#1481);
#1480 = CARTESIAN_POINT('',(-7.997123926647,1.599533963956,8.));
#1481 = VECTOR('',#1482,1.);
#1482 = DIRECTION('',(-0.951056516295,0.309016994375,0.));
#1483 = ORIENTED_EDGE('',*,*,#1452,.T.);
#1484 = PLANE('',#1485);
#1485 = AXIS2_PLACEMENT_3D('',#1486,#1487,#1488);
#1486 = CARTESIAN_POINT('',(-7.997123926647,1.599533963956,0.));
#1487 = DIRECTION('',(-0.309016994375,-0.951056516295,0.));
#1488 = DIRECTION('',(-0.951056516295,0.309016994375,0.));
#1489 = ADVANCED_FACE('',(#1490),#1509,.F.);
#1490 = FACE_BOUND('',#1491,.T.);
#1491 = EDGE_LOOP('',(#1492,#1500,#1507,#1508));
#1492 = ORIENTED_EDGE('',*,*,#1493,.F.);
#1493 = EDGE_CURVE('',#1494,#399,#1496,.T.);
#1494 = VERTEX_POINT('',#1495);
#1495 = CARTESIAN_POINT('',(2.65,200.,18.7));
#1496 = LINE('',#1497,#1498);
#1497 = CARTESIAN_POINT('',(2.65,200.,18.7));
#1498 = VECTOR('',#1499,1.);
#1499 = DIRECTION('',(-6.E-17,0.,-1.));
#1500 = ORIENTED_EDGE('',*,*,#1501,.T.);
#1501 = EDGE_CURVE('',#1494,#1494,#1502,.T.);
#1502 = CIRCLE('',#1503,2.65);
#1503 = AXIS2_PLACEMENT_3D('',#1504,#1505,#1506);
#1504 = CARTESIAN_POINT('',(0.,200.,18.7));
#1505 = DIRECTION('',(0.,0.,1.));
#1506 = DIRECTION('',(1.,0.,0.));
#1507 = ORIENTED_EDGE('',*,*,#1493,.T.);
#1508 = ORIENTED_EDGE('',*,*,#398,.T.);
#1509 = CYLINDRICAL_SURFACE('',#1510,2.65);
#1510 = AXIS2_PLACEMENT_3D('',#1511,#1512,#1513);
#1511 = CARTESIAN_POINT('',(0.,200.,18.7));
#1512 = DIRECTION('',(-0.,-0.,-1.));
#1513 = DIRECTION('',(1.,0.,0.));
#1514 = ADVANCED_FACE('',(#1515,#1521,#1532),#1543,.T.);
#1515 = FACE_BOUND('',#1516,.T.);
#1516 = EDGE_LOOP('',(#1517,#1518,#1519,#1520));
#1517 = ORIENTED_EDGE('',*,*,#480,.T.);
#1518 = ORIENTED_EDGE('',*,*,#498,.T.);
#1519 = ORIENTED_EDGE('',*,*,#448,.F.);
#1520 = ORIENTED_EDGE('',*,*,#432,.T.);
#1521 = FACE_BOUND('',#1522,.T.);
#1522 = EDGE_LOOP('',(#1523));
#1523 = ORIENTED_EDGE('',*,*,#1524,.F.);
#1524 = EDGE_CURVE('',#1525,#1525,#1527,.T.);
#1525 = VERTEX_POINT('',#1526);
#1526 = CARTESIAN_POINT('',(4.,0.,10.));
#1527 = CIRCLE('',#1528,4.);
#1528 = AXIS2_PLACEMENT_3D('',#1529,#1530,#1531);
#1529 = CARTESIAN_POINT('',(0.,0.,10.));
#1530 = DIRECTION('',(0.,0.,1.));
#1531 = DIRECTION('',(1.,0.,0.));
#1532 = FACE_BOUND('',#1533,.T.);
#1533 = EDGE_LOOP('',(#1534));
#1534 = ORIENTED_EDGE('',*,*,#1535,.F.);
#1535 = EDGE_CURVE('',#1536,#1536,#1538,.T.);
#1536 = VERTEX_POINT('',#1537);
#1537 = CARTESIAN_POINT('',(7.5,200.,10.));
#1538 = CIRCLE('',#1539,7.5);
#1539 = AXIS2_PLACEMENT_3D('',#1540,#1541,#1542);
#1540 = CARTESIAN_POINT('',(0.,200.,10.));
#1541 = DIRECTION('',(0.,0.,1.));
#1542 = DIRECTION('',(1.,0.,0.));
#1543 = PLANE('',#1544);
#1544 = AXIS2_PLACEMENT_3D('',#1545,#1546,#1547);
#1545 = CARTESIAN_POINT('',(3.1E-16,95.930846525817,10.));
#1546 = DIRECTION('',(0.,0.,1.));
#1547 = DIRECTION('',(1.,0.,0.));
#1548 = ADVANCED_FACE('',(#1549,#1592),#1603,.F.);
#1549 = FACE_BOUND('',#1550,.F.);
#1550 = EDGE_LOOP('',(#1551,#1552,#1553,#1554,#1555,#1556,#1557,#1558,
    #1559,#1560,#1561,#1562,#1563,#1564,#1565,#1566,#1567,#1568,#1569,
    #1570,#1571,#1572,#1573,#1574,#1575,#1576,#1577,#1578,#1579,#1580,
    #1581,#1582,#1583,#1584,#1585,#1586,#1587,#1588,#1589,#1590,#1591));
#1551 = ORIENTED_EDGE('',*,*,#896,.T.);
#1552 = ORIENTED_EDGE('',*,*,#944,.T.);
#1553 = ORIENTED_EDGE('',*,*,#993,.T.);
#1554 = ORIENTED_EDGE('',*,*,#1040,.T.);
#1555 = ORIENTED_EDGE('',*,*,#1090,.T.);
#1556 = ORIENTED_EDGE('',*,*,#1138,.T.);
#1557 = ORIENTED_EDGE('',*,*,#1187,.T.);
#1558 = ORIENTED_EDGE('',*,*,#1234,.T.);
#1559 = ORIENTED_EDGE('',*,*,#1284,.T.);
#1560 = ORIENTED_EDGE('',*,*,#1332,.T.);
#1561 = ORIENTED_EDGE('',*,*,#1381,.T.);
#1562 = ORIENTED_EDGE('',*,*,#1428,.T.);
#1563 = ORIENTED_EDGE('',*,*,#1478,.T.);
#1564 = ORIENTED_EDGE('',*,*,#1460,.T.);
#1565 = ORIENTED_EDGE('',*,*,#1412,.T.);
#1566 = ORIENTED_EDGE('',*,*,#1363,.T.);
#1567 = ORIENTED_EDGE('',*,*,#1315,.T.);
#1568 = ORIENTED_EDGE('',*,*,#1266,.T.);
#1569 = ORIENTED_EDGE('',*,*,#1218,.T.);
#1570 = ORIENTED_EDGE('',*,*,#1169,.T.);
#1571 = ORIENTED_EDGE('',*,*,#1121,.T.);
#1572 = ORIENTED_EDGE('',*,*,#1072,.T.);
#1573 = ORIENTED_EDGE('',*,*,#1024,.T.);
#1574 = ORIENTED_EDGE('',*,*,#975,.T.);
#1575 = ORIENTED_EDGE('',*,*,#927,.T.);
#1576 = ORIENTED_EDGE('',*,*,#878,.T.);
#1577 = ORIENTED_EDGE('',*,*,#830,.T.);
#1578 = ORIENTED_EDGE('',*,*,#781,.T.);
#1579 = ORIENTED_EDGE('',*,*,#733,.T.);
#1580 = ORIENTED_EDGE('',*,*,#684,.T.);
#1581 = ORIENTED_EDGE('',*,*,#636,.T.);
#1582 = ORIENTED_EDGE('',*,*,#587,.T.);
#1583 = ORIENTED_EDGE('',*,*,#564,.T.);
#1584 = ORIENTED_EDGE('',*,*,#522,.T.);
#1585 = ORIENTED_EDGE('',*,*,#531,.T.);
#1586 = ORIENTED_EDGE('',*,*,#605,.T.);
#1587 = ORIENTED_EDGE('',*,*,#652,.T.);
#1588 = ORIENTED_EDGE('',*,*,#702,.T.);
#1589 = ORIENTED_EDGE('',*,*,#750,.T.);
#1590 = ORIENTED_EDGE('',*,*,#799,.T.);
#1591 = ORIENTED_EDGE('',*,*,#846,.T.);
#1592 = FACE_BOUND('',#1593,.F.);
#1593 = EDGE_LOOP('',(#1594));
#1594 = ORIENTED_EDGE('',*,*,#1595,.F.);
#1595 = EDGE_CURVE('',#1596,#1596,#1598,.T.);
#1596 = VERTEX_POINT('',#1597);
#1597 = CARTESIAN_POINT('',(4.,0.,8.));
#1598 = CIRCLE('',#1599,4.);
#1599 = AXIS2_PLACEMENT_3D('',#1600,#1601,#1602);
#1600 = CARTESIAN_POINT('',(0.,0.,8.));
#1601 = DIRECTION('',(0.,0.,1.));
#1602 = DIRECTION('',(1.,0.,0.));
#1603 = PLANE('',#1604);
#1604 = AXIS2_PLACEMENT_3D('',#1605,#1606,#1607);
#1605 = CARTESIAN_POINT('',(3.1E-16,95.930846525817,8.));
#1606 = DIRECTION('',(0.,0.,1.));
#1607 = DIRECTION('',(1.,0.,0.));
#1608 = ADVANCED_FACE('',(#1609,#1620),#1623,.T.);
#1609 = FACE_BOUND('',#1610,.T.);
#1610 = EDGE_LOOP('',(#1611));
#1611 = ORIENTED_EDGE('',*,*,#1612,.T.);
#1612 = EDGE_CURVE('',#1613,#1613,#1615,.T.);
#1613 = VERTEX_POINT('',#1614);
#1614 = CARTESIAN_POINT('',(7.5,200.,18.7));
#1615 = CIRCLE('',#1616,7.5);
#1616 = AXIS2_PLACEMENT_3D('',#1617,#1618,#1619);
#1617 = CARTESIAN_POINT('',(0.,200.,18.7));
#1618 = DIRECTION('',(0.,0.,1.));
#1619 = DIRECTION('',(1.,0.,0.));
#1620 = FACE_BOUND('',#1621,.T.);
#1621 = EDGE_LOOP('',(#1622));
#1622 = ORIENTED_EDGE('',*,*,#1501,.F.);
#1623 = PLANE('',#1624);
#1624 = AXIS2_PLACEMENT_3D('',#1625,#1626,#1627);
#1625 = CARTESIAN_POINT('',(-5.5E-16,200.,18.7));
#1626 = DIRECTION('',(0.,0.,1.));
#1627 = DIRECTION('',(1.,0.,0.));
#1628 = ADVANCED_FACE('',(#1629),#1640,.F.);
#1629 = FACE_BOUND('',#1630,.T.);
#1630 = EDGE_LOOP('',(#1631,#1637,#1638,#1639));
#1631 = ORIENTED_EDGE('',*,*,#1632,.T.);
#1632 = EDGE_CURVE('',#1596,#1525,#1633,.T.);
#1633 = LINE('',#1634,#1635);
#1634 = CARTESIAN_POINT('',(4.,0.,8.));
#1635 = VECTOR('',#1636,1.);
#1636 = DIRECTION('',(0.,0.,1.));
#1637 = ORIENTED_EDGE('',*,*,#1524,.T.);
#1638 = ORIENTED_EDGE('',*,*,#1632,.F.);
#1639 = ORIENTED_EDGE('',*,*,#1595,.F.);
#1640 = CYLINDRICAL_SURFACE('',#1641,4.);
#1641 = AXIS2_PLACEMENT_3D('',#1642,#1643,#1644);
#1642 = CARTESIAN_POINT('',(0.,0.,8.));
#1643 = DIRECTION('',(-0.,-0.,-1.));
#1644 = DIRECTION('',(1.,0.,0.));
#1645 = ADVANCED_FACE('',(#1646),#1657,.T.);
#1646 = FACE_BOUND('',#1647,.F.);
#1647 = EDGE_LOOP('',(#1648,#1654,#1655,#1656));
#1648 = ORIENTED_EDGE('',*,*,#1649,.T.);
#1649 = EDGE_CURVE('',#1536,#1613,#1650,.T.);
#1650 = LINE('',#1651,#1652);
#1651 = CARTESIAN_POINT('',(7.5,200.,10.));
#1652 = VECTOR('',#1653,1.);
#1653 = DIRECTION('',(0.,0.,1.));
#1654 = ORIENTED_EDGE('',*,*,#1612,.T.);
#1655 = ORIENTED_EDGE('',*,*,#1649,.F.);
#1656 = ORIENTED_EDGE('',*,*,#1535,.F.);
#1657 = CYLINDRICAL_SURFACE('',#1658,7.5);
#1658 = AXIS2_PLACEMENT_3D('',#1659,#1660,#1661);
#1659 = CARTESIAN_POINT('',(0.,200.,10.));
#1660 = DIRECTION('',(-0.,-0.,-1.));
#1661 = DIRECTION('',(1.,0.,0.));
#1662 = ( GEOMETRIC_REPRESENTATION_CONTEXT(3) 
GLOBAL_UNCERTAINTY_ASSIGNED_CONTEXT((#1666)) 
GLOBAL_UNIT_ASSIGNED_CONTEXT((#1663,#1664,#1665)) REPRESENTATION_CONTEXT
('Context #1','3D Context with UNIT and UNCERTAINTY') );
#1663 = ( LENGTH_UNIT() NAMED_UNIT(*) SI_UNIT(.MILLI.,.METRE.) );
#1664 = ( NAMED_UNIT(*) PLANE_ANGLE_UNIT() SI_UNIT($,.RADIAN.) );
#1665 = ( NAMED_UNIT(*) SI_UNIT($,.STERADIAN.) SOLID_ANGLE_UNIT() );
#1666 = UNCERTAINTY_MEASURE_WITH_UNIT(LENGTH_MEASURE(1.E-07),#1663,
  'distance_accuracy_value','confusion accuracy');
#1667 = PRODUCT_RELATED_PRODUCT_CATEGORY('part',$,(#7));
#1668 = MECHANICAL_DESIGN_GEOMETRIC_PRESENTATION_REPRESENTATION('',(
    #1669),#1662);
#1669 = STYLED_ITEM('color',(#1670),#15);
#1670 = PRESENTATION_STYLE_ASSIGNMENT((#1671,#1677));
#1671 = SURFACE_STYLE_USAGE(.BOTH.,#1672);
#1672 = SURFACE_SIDE_STYLE('',(#1673));
#1673 = SURFACE_STYLE_FILL_AREA(#1674);
#1674 = FILL_AREA_STYLE('',(#1675));
#1675 = FILL_AREA_STYLE_COLOUR('',#1676);
#1676 = COLOUR_RGB('',0.976470577825,0.694117673655,0.125490201081);
#1677 = CURVE_STYLE('',#1678,POSITIVE_LENGTH_MEASURE(0.1),#1679);
#1678 = DRAUGHTING_PRE_DEFINED_CURVE_FONT('continuous');
#1679 = COLOUR_RGB('',9.803921802644E-02,9.803921802644E-02,
  9.803921802644E-02);
ENDSEC;
END-ISO-10303-21;
